<mxfile host="65bd71144e">
    <diagram id="wapKrANrmhfDWNmncK84" name="Page-1">
        <mxGraphModel dx="615" dy="574" grid="1" gridSize="10" guides="1" tooltips="1" connect="1" arrows="1" fold="1" page="1" pageScale="1" pageWidth="850" pageHeight="1100" math="0" shadow="0">
            <root>
                <mxCell id="0"/>
                <mxCell id="1" parent="0"/>
                <mxCell id="3" value="" style="shape=image;verticalLabelPosition=bottom;labelBackgroundColor=default;verticalAlign=top;aspect=fixed;imageAspect=0;image=data:image/png,iVBORw0KGgoAAAANSUhEUgAAA+gAAAPoCAYAAABNo9TkAAAABHNCSVQICAgIfAhkiAAAIABJREFUeF7s2m9sneddN/DLrdu0zrKltFtNUhwk1pAJaaH2GGmQkqJsyTukIZRJrjRKpwopmQJ7M8oLurWaNApCWyclL5g0IaRESwViQ7xYvGbsT7UwhL0UqBpggsVLsgDJUsjs2E0zP773wCPkB2/2fV/3Ob/7XJ8j5YXrc1339/r87nN8vq6HlpYfyYMAAQIEwgksLi6Gy/Q/A1X5NmzYEDZj9HwVXFQ/916z2zr6vRc9X+TXRrM7w2oCBAj8aIHh6ilDQ0M/+pmeQYAAgXUK+P3fOsFWPP2XfumX0tTUVLNNWly9Y8eOdO7cuRav0GzrLVu2pEuXLjXbpMXVc3NzLe7ebOtbt26ljRs3NtukxdXRZxv9tTExMZGmp6dbnFCzrScnJ9Px48ebbdLyap+dWwa2PYECBTZv3pyuXbuWbivw7I5MgAABAgQIECBAgAABAgTCCSjo4UYiEAECBAgQIECAAAECBAiUKKCglzh1ZyZAgAABAgQIECBAgACBcAIKeriRCESAAAECBAgQIECAAAECJQoo6CVO3ZkJECBAgAABAgQIECBAIJyAgh5uJAIRIECAAAECBAgQIECAQIkCCnqJU3dmAgQIECBAgAABAgQIEAgnoKCHG4lABAgQIECAAAECBAgQIFCigIJe4tSdmQABAgQIECBAgAABAgTCCSjo4UYiEAECBAgQIECAAAECBAiUKKCglzh1ZyZAgAABAgQIECBAgACBcAIKeriRCESAAAECBAgQIECAAAECJQoo6CVO3ZkJECBAgAABAgQIECBAIJyAgh5uJAIRIECAAAECBAgQIECAQIkCCnqJU3dmAgQIECBAgAABAgQIEAgnoKCHG4lABAgQIECAAAECBAgQIFCigIJe4tSdmQABAgQIECBAgAABAgTCCSjo4UYiEAECBAgQIECAAAECBAiUKKCglzh1ZyZAgAABAgQIECBAgACBcAIKeriRCESAAAECBAgQIECAAAECJQoo6CVO3ZkJECBAgAABAgQIECBAIJyAgh5uJAIRIECAAAECBAgQIECAQIkCCnqJU3dmAgQIECBAgAABAgQIEAgnoKCHG4lABAgQIECAAAECBAgQIFCigIJe4tSdmQABAgQIECBAgAABAgTCCSjo4UYiEAECBAgQIECAAAECBAiUKKCglzh1ZyZAgAABAgQIECBAgACBcAIKeriRCESAAAECBAgQIECAAAECJQoo6CVO3ZkJECBAgAABAgQIECBAIJyAgh5uJAIRIECAAAECBAgQIECAQIkCCnqJU3dmAgQIECBAgAABAgQIEAgnoKCHG4lABAgQIECAAAECBAgQIFCigIJe4tSdmQABAgQIECBAgAABAgTCCSjo4UYiEAECBAgQIECAAAECBAiUKKCglzh1ZyZAgAABAgQIECBAgACBcAIKeriRCESAAAECBAgQIECAAAECJQoo6CVO3ZkJECBAgAABAgQIECBAIJyAgh5uJAIRIECAAAECBAgQIECAQIkCwyUe2pkJECDQBYHFxcU0OjoaNurrr7+etm7dGjbf0tJS6HyXLl1Kd999d0i/7373u6HvvVu3boWebfXaiPzanZ+fD53vxo0bIV8XQhEgQKAXAuEL+ubNm9O1a9d6YeEaBDon8IlPfCJ98IMf7FxugdcmsGHDhnT58uW1PbkPz5qenk7j4+N9uPJgXHLjxo2pKkoRHyMjI2GzVV5jY2Pp/PnzEel+kGlmZiZNTEyEzVf9Yu2VV14Jmy/qL67Cgq0I9vGPfzz95m/+ZlfiykmgpwL33HNPevXVV3t6zfVezJ+4r1fM8wkQIECAAAECBAgQIECAQAsCCnoLqLYkQIAAAQIECBAgQIAAAQLrFVDQ1yvm+QQIECBAgAABAgQIECBAoAUBBb0FVFsSIECAAAECBAgQIECAAIH1Cijo6xXzfAIECBAgQIAAAQIECBAg0IKAgt4Cqi0JECBAgAABAgQIECBAgMB6BRT09Yp5PgECBAgQIECAAAECBAgQaEFAQW8B1ZYECBAgQIAAAQIECBAgQGC9Agr6esU8nwABAgQIECBAgAABAgQItCCgoLeAaksCBAgQIECAAAECBAgQILBeAQV9vWKeT4AAAQIECBAgQIAAAQIEWhBQ0FtAtSUBAgQIECBAgAABAgQIEFivgIK+XjHPJ0CAAAECBAgQIECAAAECLQgo6C2g2pIAAQIECBAgQIAAAQIECKxXQEFfr5jnEyBAgAABAgQIECBAgACBFgQU9BZQbUmAAAECBAgQIECAAAECBNYroKCvV8zzCRAgQIAAAQIECBAgQIBACwIKeguotiRAgAABAgQIECBAgAABAusVUNDXK+b5BAgQIECAAAECBAgQIECgBQEFvQVUWxIgQIAAAQIECBAgQIAAgfUKKOjrFfN8AgQIECBAgAABAgQIECDQgoCC3gKqLQkQIECAAAECBAgQIECAwHoFFPT1ink+AQIECBAgQIAAAQIECBBoQUBBbwHVlgQIECBAgAABAgQIECBAYL0CCvp6xTyfAAECBAgQIECAAAECBAi0IKCgt4BqSwIECBAgQIAAAQIECBAgsF4BBX29Yp5PgAABAgQIECBAgAABAgRaEFDQW0C1JQECBAgQIECAAAECBAgQWK+Agr5eMc8nQIAAAQIECBAgQIAAAQItCCjoLaDakgABAgQIECBAgAABAgQIrFdAQV+vmOcTIECAAAECBAgQIECAAIEWBBT0FlBtSYAAAQIECBAgQIAAAQIE1iugoK9XzPMJECBAgAABAgQIECBAgEALAgp6C6i2JECAAAECBAgQIECAAAEC6xVQ0Ncr5vkECBAgQIAAAQIECBAgQKAFAQW9BVRbEiBAgAABAgQIECBAgACB9Qoo6OsV83wCBAgQIECAAAECBAgQINCCgILeAqotCRAgQIAAAQIECBAgQIDAegWG17vA8wkQIDAoAi+99FLoo1y/fj3t3LkzdEbh6gs88MAD9Re3vPL73/9+uu02v8Nvwhz5tXvjxo20ffv2Jsdrde21a9da3d/mBAgQiCygoGeYztDQUIZdbBFR4NChQ+no0aMRo8mUQeD3fu/30okTJzLs1M4Wp06dSvv3729nc7v2XeDChQtpfn6+7zn+twAjIyNhs1V5x8bG/rfYYf7b+Ph4Onv2bJg8K4NMTU2lAwcOrPzPYb5+xzveESaLIPkFDh8+nI4dO5Z/YzuGEFhaWgqRo8sh/Hq8y9OTnQABAgQIECBAgAABAgQGRkBBH5hROggBAgQIECBAgAABAgQIdFlAQe/y9GQnQIAAAQIECBAgQIAAgYERUNAHZpQOQoAAAQIECBAgQIAAAQJdFlDQuzw92QkQIECAAAECBAgQIEBgYAQU9IEZpYMQIECAAAECBAgQIECAQJcFFPQuT092AgQIECBAgAABAgQIEBgYAQV9YEbpIAQIECBAgAABAgQIECDQZQEFvcvTk50AAQIECBAgQIAAAQIEBkZAQR+YUToIAQIECBAgQIAAAQIECHRZQEHv8vRkJ0CAAAECBAgQIECAAIGBEVDQB2aUDkKAAAECBAgQIECAAAECXRZQ0Ls8PdkJECBAgAABAgQIECBAYGAEFPSBGaWDECBAgAABAgQIECBAgECXBRT0Lk9PdgIECBAgQIAAAQIECBAYGAEFfWBG6SAECBAgQIAAAQIECBAg0GUBBb3L05OdAAECBAgQIECAAAECBAZGQEEfmFE6CAECBAgQIECAAAECBAh0WUBB7/L0ZCdAgAABAgQIECBAgACBgRFQ0AdmlA5CgAABAgQIECBAgAABAl0WUNC7PD3ZCRAgQIAAAQIECBAgQGBgBBT0gRmlgxAgQIAAAQIECBAgQIBAlwUU9C5PT3YCBAgQIECAAAECBAgQGBgBBX1gRukgBAgQIECAAAECBAgQINBlAQW9y9OTnQABAgQIECBAgAABAgQGRkBBH5hROggBAgQIECBAgAABAgQIdFlAQe/y9GQnQIAAAQIECBAgQIAAgYERUNAHZpQOQoAAAQIECBAgQIAAAQJdFlDQuzw92QkQIECAAAECBAgQIEBgYAQU9IEZpYMQIECAAAECBAgQIECAQJcFFPQuT092AgQIECBAgAABAgQIEBgYAQV9YEbpIAQIECBAgAABAgQIECDQZQEFvcvTk50AAQIECBAgQIAAAQIEBkZAQR+YUToIAQIECBAgQIAAAQIECHRZQEHv8vRkJ0CAAAECBAgQIECAAIGBEVDQB2aUDkKAAAECBAgQIECAAAECXRZQ0Ls8PdkJECBAgAABAgQIECBAYGAEFPSBGaWDECBAgAABAgQIECBAgECXBYa7HF52AgQINBG4fPlyeuihh5ps0eras2fPpv3797d6jUHe/PTp06GP9853vjPdfvvtITPeunUrbLYKbGFhIUWf7759+0LOtgpVvbdEfu+r3ps9CBAgUKqAgl7q5J2bAIE0OjqavvjFL4aV+N3f/d2w2boQ7PHHH0+zs7Nho87NzaWRkZGw+SIHq+a6bdu2sBHHx8fT9PR02Hw/+7M/m37rt34rbL7Jycmw2QQjQIBA2wL+xL1tYfsTIECAAAECBAgQIECAAIE1CCjoa0DyFAIECBAgQIAAAQIECBAg0LaAgt62sP0JECBAgAABAgQIECBAgMAaBBT0NSB5CgECBAgQIECAAAECBAgQaFtAQW9b2P4ECBAgQIAAAQIECBAgQGANAgr6GpA8hQABAgQIECBAgAABAgQItC2goLctbH8CBAgQIECAAAECBAgQILAGAQV9DUieQoAAAQIECBAgQIAAAQIE2hZQ0NsWtj8BAgQIECBAgAABAgQIEFiDgIK+BiRPIUCAAAECBAgQIECAAAECbQso6G0L258AAQIECBAgQIAAAQIECKxBQEFfA5KnECBAgAABAgQIECBAgACBtgUU9LaF7U+AAAECBAgQIECAAAECBNYgoKCvAclTCBAgQIAAAQIECBAgQIBA2wIKetvC9idAgAABAgQIECBAgAABAmsQUNDXgOQpBAgQIECAAAECBAgQIECgbQEFvW1h+xMgQIAAAQIECBAgQIAAgTUIKOhrQPIUAgQIECBAgAABAgQIECDQtoCC3raw/QkQIECAAAECBAgQIECAwBoEFPQ1IHkKAQIECBAgQIAAAQIECBBoW0BBb1vY/gQIECBAgAABAgQIECBAYA0CCvoakDyFAAECBAgQIECAAAECBAi0LaCgty1sfwIECBAgQIAAAQIECBAgsAYBBX0NSJ5CgAABAgQIECBAgAABAgTaFlDQ2xa2PwECBAgQIECAAAECBAgQWIOAgr4GJE8hQIAAAQIECBAgQIAAAQJtCyjobQvbnwABAgQIECBAgAABAgQIrEFAQV8DkqcQIECAAAECBAgQIECAAIG2BRT0toXtT4AAAQIECBAgQIAAAQIE1iCgoK8ByVMIECBAgAABAgQIECBAgEDbAgp628L2J0CAAAECBAgQIECAAAECaxBQ0NeA5CkECBAgQIAAAQIECBAgQKBtAQW9bWH7EyBAgAABAgQIECBAgACBNQgo6GtA8hQCBAgQIECAAAECBAgQINC2gILetrD9CRAgQIAAAQIECBAgQIDAGgQU9DUgeQoBAgQIECBAgAABAgQIEGhbQEFvW9j+BAgQIECAAAECBAgQIEBgDQIK+hqQPIUAAQIECBAgQIAAAQIECLQtMNz2BexPgACByAIHDx6MHC90tueffz50vvvuuy9t3bo1bMb5+fk0MjISMl+V7S/+4i9CZqtC/dM//VN6+OGHw+brQjDvfV2YkowECJQooKCXOHVnJkDgBwLHjx8n0UDg2WefTTMzMw12aHfpli1b0qVLl9q9SIPdo5bz/z7Se9/73gana3dp9NmOj4+3C9Bw9/3796fqnwcBAgQIxBPwJ+7xZiIRAQIECBAgQIAAAQIECBQooKAXOHRHJkCAAAECBAgQIECAAIF4Agp6vJlIRIAAAQIECBAgQIAAAQIFCijoBQ7dkQkQIECAAAECBAgQIEAgnoCCHm8mEhEgQIAAAQIECBAgQIBAgQIKeoFDd2QCBAgQIECAAAECBAgQiCegoMebiUQECBAgQIAAAQIECBAgUKCAgl7g0B2ZAAECBAgQIECAAAECBOIJKOjxZiIRAQIECBAgQIAAAQIECBQooKAXOHRHJkCAAAECBAgQIECAAIF4Agp6vJlIRIAAAQIECBAgQIAAAQIFCijoBQ7dkQkQIECAAAECBAgQIEAgnoCCHm8mEhEgQIAAAQIECBAgQIBAgQIKeoFDd2QCBAgQIECAAAECBAgQiCegoMebiUQECBAgQIAAAQIECBAgUKCAgl7g0B2ZAAECBAgQIECAAAECBOIJKOjxZiIRAQIECBAgQIAAAQIECBQooKAXOHRHJkCAAAECBAgQIECAAIF4Agp6vJlIRIAAAQIECBAgQIAAAQIFCijoBQ7dkQkQIECAAAECBAgQIEAgnoCCHm8mEhEgQIAAAQIECBAgQIBAgQIKeoFDd2QCBAgQIECAAAECBAgQiCegoMebiUQECBAgQIAAAQIECBAgUKCAgl7g0B2ZAAECBAgQIECAAAECBOIJKOjxZiIRAQIECBAgQIAAAQIECBQooKAXOHRHJkCAAAECBAgQIECAAIF4Agp6vJlIRIAAAQIECBAgQIAAAQIFCijoBQ7dkQkQIECAAAECBAgQIEAgnoCCHm8mEhEgQIAAAQIECBAgQIBAgQIKeoFDd2QCBAgQIECAAAECBAgQiCegoMebiUQECBAgQIAAAQIECBAgUKCAgl7g0B2ZAAECBAgQIECAAAECBOIJKOjxZiIRAQIECBAgQIAAAQIECBQooKAXOHRHJkCAAAECBAgQIECAAIF4Agp6vJlIRIAAAQIECBAgQIAAAQIFCijoBQ7dkQkQIECAAAECBAgQIEAgnoCCHm8mEhEgQIAAAQIECBAgQIBAgQIKeoFDd2QCBAgQIECAAAECBAgQiCcwHC9S9xIdOnSoe6ElJkCAQEOBXbt2pepf1Mf169fTpk2bosYLnWt+fj7t2bMnbMZqtm9961vD5osebGpqKn3zm98MHdNnq9DjaRzOfBsT2mCABRT0DMM9evRohl1sQYAAgW4JeO/r1rzWk3ZkZCR95StfWc+Snj53y5Yt6Rvf+EZPr7mei42Pj6/n6X157uHDh/ty3bVcdHJyMilwa5Hq5nP87Ojm3KTunYA/ce+dtSsRIECAAAECBAgQIECAAIFVBRT0VWl8gwABAgQIECBAgAABAgQI9E5AQe+dtSsRIECAAAECBAgQIECAAIFVBRT0VWl8gwABAgQIECBAgAABAgQI9E5AQe+dtSsRIECAAAECBAgQIECAAIFVBRT0VWl8gwABAgQIECBAgAABAgQI9E5AQe+dtSsRIECAAAECBAgQIECAAIFVBRT0VWl8gwABAgQIECBAgAABAgQI9E5AQe+dtSsRIECAAAECBAgQIECAAIFVBRT0VWl8gwABAgQIECBAgAABAgQI9E5AQe+dtSsRIECAAAECBAgQIECAAIFVBRT0VWl8gwABAgQIECBAgAABAgQI9E5AQe+dtSsRIECAAAECBAgQIECAAIFVBRT0VWl8gwABAgQIECBAgAABAgQI9E5AQe+dtSsRIECAAAECBAgQIECAAIFVBRT0VWl8gwABAgQIECBAgAABAgQI9E5AQe+dtSsRIECAAAECBAgQIECAAIFVBRT0VWl8gwABAgQIECBAgAABAgQI9E5AQe+dtSsRIECAAAECBAgQIECAAIFVBRT0VWl8gwABAgQIECBAgAABAgQI9E5AQe+dtSsRIECAAAECBAgQIECAAIFVBRT0VWl8gwABAgQIECBAgAABAgQI9E5AQe+dtSsRIECAAAECBAgQIECAAIFVBRT0VWl8gwABAgQIECBAgAABAgQI9E5AQe+dtSsRIECAAAECBAgQIECAAIFVBRT0VWl8gwABAgQIECBAgAABAgQI9E5AQe+dtSsRIECAAAECBAgQIECAAIFVBRT0VWl8gwABAgQIECBAgAABAgQI9E5AQe+dtSsRIECAAAECBAgQIECAAIFVBRT0VWl8gwABAgQIECBAgAABAgQI9E5AQe+dtSsRIECAAAECBAgQIECAAIFVBRT0VWl8gwABAgQIECBAgAABAgQI9E5AQe+dtSsRIECAAAECBAgQIECAAIFVBRT0VWl8gwABAgQIECBAgAABAgQI9E5AQe+dtSsRIECAAAECBAgQIECAAIFVBRT0VWl8gwABAgQIECBAgAABAgQI9E5AQe+dtSsRIECAAAECBAgQIECAAIFVBRT0VWl8gwABAgQIECBAgAABAgQI9E5guHeXqnelV199Nf3RH/1RvcVWERhwgZdffnnAT9ju8Z555pl2L9Bw9127dqX9+/c33KW95dH9HnvssTQ2NtYeQMOdI/vdvHkzPfXUUw1P2N7yCxcupH/+539u7wIDvvP09HR65JFHwp7y0qVLYbN1IdiXv/zltHnz5i5ElZFAzwWGh+PW36r3Vo+hpeXH0NBQz3FckACBwRdYfnsJfchHH300nThxImzGU6dOhS7oExMTaWZmJqzf+fPnQxf0jRs3pvn5+ZB+IyMjaW5uLmS2KtTs7Gzatm1b2Hzj4+OpKsFRH1NTU+nAgQNR46XJycl0/PjxsPmqYD47hx6PcAQ6KVD9Yu3atWvJn7h3cnxCEyBAgAABAgQIECBAgMCgCSjogzZR5yFAgAABAgQIECBAgACBTgoo6J0cm9AECBAgQIAAAQIECBAgMGgCCvqgTdR5CBAgQIAAAQIECBAgQKCTAgp6J8cmNAECBAgQIECAAAECBAgMmoCCPmgTdR4CBAgQIECAAAECBAgQ6KSAgt7JsQlNgAABAgQIECBAgAABAoMmoKAP2kSdhwABAgQIECBAgAABAgQ6KaCgd3JsQhMgQIAAAQIECBAgQIDAoAko6IM2UechQIAAAQIECBAgQIAAgU4KKOidHJvQBAgQIECAAAECBAgQIDBoAgr6oE3UeQgQIECAAAECBAgQIECgkwIKeifHJjQBAgQIECBAgAABAgQIDJqAgj5oE3UeAgQIECBAgAABAgQIEOikgILeybEJTYAAAQIECBAgQIAAAQKDJqCgD9pEnYcAAQIECBAgQIAAAQIEOimgoHdybEITIECAAAECBAgQIECAwKAJKOiDNlHnIUCAAAECBAgQIECAAIFOCijonRyb0AQIECBAgAABAgQIECAwaAIK+qBN1HkIECBAgAABAgQIECBAoJMCCnonxyY0AQIECBAgQIAAAQIECAyagII+aBN1HgIECBAgQIAAAQIECBDopICC3smxCU2AAAECBAgQIECAAAECgyagoA/aRJ2HAAECBAgQIECAAAECBDopoKB3cmxCEyBAgAABAgQIECBAgMCgCSjogzZR5yFAgAABAgQIECBAgACBTgoo6J0cm9AECBAgQIAAAQIECBAgMGgCCvqgTdR5CBAgQIAAAQIECBAgQKCTAgp6J8cmNAECBAgQIECAAAECBAgMmoCCPmgTdR4CBAgQIECAAAECBAgQ6KSAgt7JsQlNgAABAgQIECBAgAABAoMmoKAP2kSdhwABAgQIECBAgAABAgQ6KaCgd3JsQhMgQIAAAQIECBAgQIDAoAko6IM2UechQIAAAQIECBAgQIAAgU4KKOidHJvQBAgQIECAAAECBAgQIDBoAgr6oE3UeQgQIECAAAECBAgQIECgkwIKeifHJjQBAgQIECBAgAABAgQIDJqAgj5oE3UeAgQIECBAgAABAgQIEOikwNDS8qOTyYUmQIBAQ4FPfvKTDXdod/lf/uVfprGxsXYv0mD3DRs2pAceeKDBDu0uPXv2bNq0aVO7F2mwezXbO+64o8EO7S49cuRIuxdosPvs7Gz67Gc/22CH9pdG9puamkrnzp1rH6HBFSL7NTiWpQQIEPiRAgr6jyTyBAIECPRH4MCBA6n6IB31MT09ncbHx6PGS9u2bUtVkYv6mJubSyMjI1HjyUWAAAECBAj0QcCfuPcB3SUJECBAgAABAgQIECBAgMBKAQV9pYivCRAgQIAAAQIECBAgQIBAHwQU9D6guyQBAgQIECBAgAABAgQIEFgpoKCvFPE1AQIECBAgQIAAAQIECBDog4CC3gd0lyRAgAABAgQIECBAgAABAisFFPSVIr4mQIAAAQIECBAgQIAAAQJ9EFDQ+4DukgQIECBAgAABAgQIECBAYKWAgr5SxNcECBAgQIAAAQIECBAgQKAPAgp6H9BdkgABAgQIECBAgAABAgQIrBRQ0FeK+JoAAQIECBAgQIAAAQIECPRBQEHvA7pLEiBAgAABAgQIECBAgACBlQIK+koRXxMgQIAAAQIECBAgQIAAgT4IKOh9QHdJAgQIECBAgAABAgQIECCwUkBBXyniawIECBAgQIAAAQIECBAg0AcBBb0P6C5JgAABAgQIECBAgAABAgRWCijoK0V8TYAAAQIECBAgQIAAAQIE+iCgoPcB3SUJECBAgAABAgQIECBAgMBKAQV9pYivCRAgQIAAAQIECBAgQIBAHwQU9D6guyQBAgQIECBAgAABAgQIEFgpoKCvFPE1AQIECBAgQIAAAQIECBDog4CC3gd0lyRAgAABAgQIECBAgAABAisFFPSVIr4mQIAAAQIECBAgQIAAAQJ9EFDQ+4DukgQIECBAgAABAgQIECBAYKWAgr5SxNcECBAgQIAAAQIECBAgQKAPAgp6H9BdkgABAgQIECBAgAABAgQIrBRQ0FeK+JoAAQIECBAgQIAAAQIECPRBQEHvA7pLEiBAgAABAgQIECBAgACBlQIK+koRXxMgQIAAAQIECBAgQIAAgT4IKOh9QHdJAgQIECBAgAABAgSdX7hJAAAgAElEQVQIECCwUkBBXyniawIECBAgQIAAAQIECBAg0AcBBb0P6C5JgAABAgQIECBAgAABAgRWCijoK0V8TYAAAQIECBAgQIAAAQIE+iCgoPcB3SUJECBAgAABAgQIECBAgMBKAQV9pYivCRAgQIAAAQIECBAgQIBAHwQU9D6guyQBAgQIECBAgAABAgQIEFgpoKCvFPE1AQIECBAgQIAAAQIECBDog4CC3gd0lyRAgAABAgQIECBAgAABAisFFPSVIr4mQIAAAQIECBAgQIAAAQJ9EBhaWn704bou2SOB06dPp09/+tM9ulq9yxw/frzeQqvSM888k/7hH/4hrMTP//zPpyNHjoTNFz3YL/zCL0SPmH7yJ38ybMZdu3ale++9N2y+z33uc2l4eDhsvsjvzbOzs+m3f/u3w9pVwSL7hYYTjkCfBR599NE+J/jhl798+XIaHR394U/q43c/9KEPpZ07d/YxQfcvHfeTQfdtw5zgxIkTYbKsDHLw4MGV/8nX6xSIPN+qoHvUF3jDG96Qpqam6m/Q8sodO3akr33tay1fpf72H/vYx9LY2Fj9DVpe+cQTT6T5+fmWr1Jv+5GRkXoLe7gq8nvf+Ph4DyVcigCBnAK3bt1KJ0+ezLll1r0eeuih9MUvfjHrnjk3qwq6RzMBf+LezM9qAgQIECBAgAABAgQIECCQRUBBz8JoEwIECBAgQIAAAQIECBAg0ExAQW/mZzUBAgQIECBAgAABAgQIEMgioKBnYbQJAQIECBAgQIAAAQIECBBoJqCgN/OzmgABAgQIECBAgAABAgQIZBFQ0LMw2oQAAQIECBAgQIAAAQIECDQTUNCb+VlNgAABAgQIECBAgAABAgSyCCjoWRhtQoAAAQIECBAgQIAAAQIEmgko6M38rCZAgAABAgQIECBAgAABAlkEFPQsjDYhQIAAAQIECBAgQIAAAQLNBBT0Zn5WEyBAgAABAgQIECBAgACBLAIKehZGmxAgQIAAAQIECBAgQIAAgWYCCnozP6sJECBAgAABAgQIECBAgEAWAQU9C6NNCBAgQIAAAQIECBAgQIBAMwEFvZmf1QQIECBAgAABAgQIECBAIIuAgp6F0SYECBAgQIAAAQIECBAgQKCZgILezM9qAgQIECBAgAABAgQIECCQRUBBz8JoEwIECBAgQIAAAQIECBAg0ExAQW/mZzUBAgQIECBAgAABAgQIEMgioKBnYbQJAQIECBAgQIAAAQIECBBoJqCgN/OzmgABAgQIECBAgAABAgQIZBFQ0LMw2oQAAQIECBAgQIAAAQIECDQTUNCb+VlNgAABAgQIECBAgAABAgSyCCjoWRhtQoAAAQIECBAgQIAAAQIEmgko6M38rCZAgAABAgQIECBAgAABAlkEFPQsjDYhQIAAAQIECBAgQIAAAQLNBBT0Zn5WEyBAgAABAgQIECBAgACBLAIKehZGmxAgQIAAAQIECBAgQIAAgWYCCnozP6sJECBAgAABAgQIECBAgEAWAQU9C6NNCBAgQIAAAQIECBAgQIBAMwEFvZmf1QQIECBAgAABAgQIECBAIIuAgp6F0SYECBAgQIAAAQIECBAgQKCZgILezM9qAgQIECBAgAABAgQIECCQRUBBz8JoEwIECBAgQIAAAQIECBAg0ExAQW/mZzUBAgQIECBAgAABAgQIEMgioKBnYbQJAQIECBAgQIAAAQIECBBoJqCgN/OzmgABAgQIECBAgAABAgQIZBFQ0LMw2oQAAQIECBAgQIAAAQIECDQTGG62vP3VFy9eTI8//nj7F6p5hevXr6dNmzbVXN3+sqtXr6ZTp061f6EBvcKxY8fS5z73ubCne8tb3mK+Dabz6KOPpitXrjTYod2l//Iv/5ImJibavUiD3d/97nenX/zFX2ywQ9lL/+zP/qxsgIan97OtPuDU1FT6gz/4g/obtLzye9/7XnrDG97Q8lXqb79jx4703HPP1d+g8JWHDx9O3/zmN8Mq/NzP/Vzoz1Yf+MAHQn82eN/73pdGR0fDzvfTn/502rp1a9h8VbDwBb0KWf0gifrYvn17OnPmTNR4ad++fWn//v1h83UhWOT776mnnjLfhjdR5PlW5Xx6errhCdtb/od/+IdpfHy8vQsM+M7em+sPeGxsLFX/POoLRH7v2717d+jPflVB92gmEPn+e//73x/6s1X13nf69OlmA2hxddWNIs+3xaNn29qfuGejtBEBAgQIECBAgAABAgQIEKgvoKDXt7OSAAECBAgQIECAAAECBAhkE1DQs1HaiAABAgQIECBAgAABAgQI1BdQ0OvbWUmAAAECBAgQIECAAAECBLIJKOjZKG1EgAABAgQIECBAgAABAgTqCyjo9e2sJECAAAECBAgQIECAAAEC2QQU9GyUNiJAgAABAgQIECBAgAABAvUFFPT6dlYSIECAAAECBAgQIECAAIFsAgp6NkobESBAgAABAgQIECBAgACB+gIKen07KwkQIECAAAECBAgQIECAQDYBBT0bpY0IECBAgAABAgQIECBAgEB9AQW9vp2VBAgQIECAAAECBAgQIEAgm4CCno3SRgQIECBAgAABAgQIECBAoL6Agl7fzkoCBAgQIECAAAECBAgQIJBNQEHPRmkjAgQIECBAgAABAgQIECBQX0BBr29nJQECBAgQIECAAAECBAgQyCagoGejtBEBAgQIECBAgAABAgQIEKgvoKDXt7OSAAECBAgQIECAAAECBAhkE1DQs1HaiAABAgQIECBAgAABAgQI1BdQ0OvbWUmAAAECBAgQIECAAAECBLIJKOjZKG1EgAABAgQIECBAgAABAgTqCyjo9e2sJECAAAECBAgQIECAAAEC2QQU9GyUNiJAgAABAgQIECBAgAABAvUFFPT6dlYSIECAAAECBAgQIECAAIFsAgp6NkobESBAgAABAgQIECBAgACB+gIKen07KwkQIECAAAECBAgQIECAQDYBBT0bpY0IECBAgAABAgQIECBAgEB9AQW9vp2VBAgQIECAAAECBAgQIEAgm4CCno3SRgQIECBAgAABAgQIECBAoL6Agl7fzkoCBAgQIECAAAECBAgQIJBNQEHPRmkjAgQIECBAgAABAgQIECBQX0BBr29nJQECBAgQIECAAAECBAgQyCagoGejtBEBAgQIECBAgAABAgQIEKgvoKDXt7OSAAECBAgQIECAAAECBAhkE1DQs1HaiAABAgQIECBAgAABAgQI1BdQ0OvbWUmAAAECBAgQIECAAAECBLIJKOjZKG1EgAABAgQIECBAgAABAgTqCyjo9e2sJECAAAECBAgQIECAAAEC2QSGFhYWlnbv3p1tw9wbzc/P594y637Xr19PmzZtyrpnzs3e+MY3pq9//es5t8y61/PPP5+effbZrHvm3Oynfuqn0pNPPplzy6x7fepTn0p//dd/nXXPnJv96q/+ajpy5EjOLbPuNTMzk3W/3Js99thj6ebNm7m3zbbf7/zO76TJycls++XeaGJiIveWWff76le/mkZGRrLuWcpms7Oz6T3veU/o405PT4fNF/2979y5c2nHjh1h/T7zmc+k06dPh81XfS6tPp9GfkT+fH/nnXem4eHhsHxPPPFEeuc73xk236/8yq+kDRs2hM1XBYv8s/drX/ta+sHdF/mNenR0NF2+fDnskLdv356qHyRRH/v27Ysa7f/linz/7dq1K42Pj4c1/PEf//HQr9+qoEd+RJ5t5VbNd2pqKixh5A/QFdqVK1dSVeQ8BlMg8s+O6O8t8jV7Tbz44ouhf/bu3bs3dL49e/aEzvfwww+nM2fONLtJWlz94IMPhv5sWv3PwZdeeqlFgWZbV90ycnerTudP3JvN2GoCBAgQIECAAAECBAgQIJBFQEHPwmgTAgQIECBAgAABAgQIECDQTEBBb+ZnNQECBAgQIECAAAECBAgQyCKgoGdhtAkBAgQIECBAgAABAgQIEGgmoKA387OaAAECBAgQIECAAAECBAhkEVDQszDahAABAgQIECBAgAABAgQINBNQ0Jv5WU2AAAECBAgQIECAAAECBLIIKOhZGG1CgAABAgQIECBAgAABAgSaCSjozfysJkCAAAECBAgQIECAAAECWQQU9CyMNiFAgAABAgQIECBAgAABAs0EFPRmflYTIECAAAECBAgQIECAAIEsAgp6FkabECBAgAABAgQIECBAgACBZgIKejM/qwkQIECAAAECBAgQIECAQBYBBT0Lo00IECBAgAABAgQIECBAgEAzAQW9mZ/VBAgQIECAAAECBAgQIEAgi4CCnoXRJgQIECBAgAABAgQIECBAoJmAgt7Mz2oCBAgQIECAAAECBAgQIJBFQEHPwmgTAgQIECBAgAABAgQIECDQTEBBb+ZnNQECBAgQIECAAAECBAgQyCKgoGdhtAkBAgQIECBAgAABAgQIEGgmoKA387OaAAECBAgQIECAAAECBAhkEVDQszDahAABAgQIECBAgAABAgQINBNQ0Jv5WU2AAAECBAgQIECAAAECBLIIKOhZGG1CgAABAgQIECBAgAABAgSaCSjozfysJkCAAAECBAgQIECAAAECWQQU9CyMNiFAgAABAgQIECBAgAABAs0EFPRmflYTIECAAAECBAgQIECAAIEsAgp6FkabECBAgAABAgQIECBAgACBZgIKejM/qwkQIECAAAECBAgQIECAQBYBBT0Lo00IECBAgAABAgQIECBAgEAzAQW9mZ/VBAgQIECAAAECBAgQIEAgi4CCnoXRJgQIECBAgAABAgQIECBAoJmAgt7Mz2oCBAgQIECAAAECBAgQIJBFQEHPwmgTAgQIECBAgAABAgQIECDQTEBBb+ZnNQECBAgQIECAAAECBAgQyCKgoGdhtAkBAgQIECBAgAABAgQIEGgmoKA387OaAAECBAgQIECAAAECBAhkEVDQszDahAABAgQIECBAgAABAgQINBMYrpafP3++2S4trr58+XIaHR1t8QrNtv7yl7+cnnzyyWabtLh6YWGhxd2bb71r167Q91/zE7a7w2OPPZaqfx6DKfCpT31qMA/Wo1N99atf7dGV6l1mx44daWhoqN7iHqyK/NmgOn7kfH//93+ftm3b1oMp1btEde+dOnWq3mKr0rVr19KWLVvCSmzfvj398R//cdh8ly5dCu0XPd/k5GR6/PHHw853eHg49Hxv3rwZOt/i4mIa3rBhQxobGws75MjZKrS3v/3tqXohR3287W1vixrtB7mizzc0Hr/o42mcz+ujGWF0v6tXr6b5+flmh2xp9cjISEs759k2+myvXLmSZmdn8xy2hV2qgu5RX+Cee+4J/dnvgQceCP35KvrrN3q+u+66K/T7S/ULosjdqPofv5HzVd3cn7jXf3+2kgABAgQIECBAgAABAgQIZBNQ0LNR2ogAAQIECBAgQIAAAQIECNQXUNDr21lJgAABAgQIECBAgAABAgSyCSjo2ShtRIAAAQIECBAgQIAAAQIE6gso6PXtrCRAgAABAgQIECBAgAABAtkEFPRslDYiQIAAAQIECBAgQIAAAQL1BRT0+nZWEiBAgAABAgQIECBAgACBbAIKejZKGxEgQIAAAQIECBAgQIAAgfoCCnp9OysJECBAgAABAgQIECBAgEA2AQU9G6WNCBAgQIAAAQIECBAgQIBAfQEFvb6dlQQIECBAgAABAgQIECBAIJuAgp6N0kYECBAgQIAAAQIECBAgQKC+gIJe385KAgQIECBAgAABAgQIECCQTUBBz0ZpIwIECBAgQIAAAQIECBAgUF9AQa9vZyUBAgQIECBAgAABAgQIEMgmoKBno7QRAQIECBAgQIAAAQIECBCoL6Cg17ezkgABAgQIECBAgAABAgQIZBNQ0LNR2ogAAQIECBAgQIAAAQIECNQXUNDr21lJgAABAgQIECBAgAABAgSyCSjo2ShtRIAAAQIECBAgQIAAAQIE6gso6PXtrCRAgAABAgQIECBAgAABAtkEFPRslDYiQIAAAQIECBAgQIAAAQL1BRT0+nZWEiBAgAABAgQIECBAgACBbAIKejZKGxEgQIAAAQIECBAgQIAAgfoCCnp9OysJECBAgAABAgQIECBAgEA2AQU9G6WNCBAgQIAAAQIECBAgQIBAfQEFvb6dlQQIECBAgAABAgQIECBAIJuAgp6N0kYECBAgQIAAAQIECBAgQKC+gIJe385KAgQIECBAgAABAgQIECCQTUBBz0ZpIwIECBAgQIAAAQIECBAgUF9AQa9vZyUBAgQIECBAgAABAgQIEMgmoKBno7QRAQIECBAgQIAAAQIECBCoL6Cg17ezkgABAgQIECBAgAABAgQIZBNQ0LNR2ogAAQIECBAgQIAAAQIECNQXUNDr21lJgAABAgQIECBAgAABAgSyCSjo2ShtRIAAAQIECBAgQIAAAQIE6gso6PXtrCRAgAABAgQIECBAgAABAtkEFPRslDYiQIAAAQIECBAgQIAAAQL1BYYXFxfTj/3Yj9XfoeWV99xzT7pw4ULLV6m//YMPPpjm5ubqb1D4yueffz792q/9WliFxx57LB09ejRsvmeeeSY9++yzYfN97GMfS0eOHAmbL3qwAwcOpBdffDFszLGxsTQ7Oxs23yuvvJKqjFEf//7v/x41Wpqfn08bN24Mm+++++5L58+fD5tvYWEhjYyMhM1369atsNmqYCdOnEhPPPFE2Izj4+Oh53vz5s2wdoI1F/jzP//z5pu0uEP18yPy+99b3/rW0Pmqbj5czaeCjPqoCnrkR+QbMLLb/8wW+f7rgiG/Lkypfsbo842er758+yuj//ww2/r3wF133RX6s9Xtt99e/3A9Whn5/qv8Iue74447ejQll+mHQPSfHdHz3XbbbaFfvxs2bEj+xL0fryzXJECAAAECBAgQIECAAAECKwQUdLcEAQIECBAgQIAAAQIECBAIIKCgBxiCCAQIECBAgAABAgQIECBAQEF3DxAgQIAAAQIECBAgQIAAgQACCnqAIYhAgAABAgQIECBAgAABAgQUdPcAAQIECBAgQIAAAQIECBAIIKCgBxiCCAQIECBAgAABAgQIECBAQEF3DxAgQIAAAQIECBAgQIAAgQACCnqAIYhAgAABAgQIECBAgAABAgQUdPcAAQIECBAgQIAAAQIECBAIIKCgBxiCCAQIECBAgAABAgQIECBAQEF3DxAgQIAAAQIECBAgQIAAgQACCnqAIYhAgAABAgQIECBAgAABAgQUdPcAAQIECBAgQIAAAQIECBAIIKCgBxiCCAQIECBAgAABAgQIECBAQEF3DxAgQIAAAQIECBAgQIAAgQACCnqAIYhAgAABAgQIECBAgAABAgQUdPcAAQIECBAgQIAAAQIECBAIIKCgBxiCCAQIECBAgAABAgQIECBAQEF3DxAgQIAAAQIECBAgQIAAgQACCnqAIYhAgAABAgQIECBAgAABAgQUdPcAAQIECBAgQIAAAQIECBAIIKCgBxiCCAQIECBAgAABAgQIECBAQEF3DxAgQIAAAQIECBAgQIAAgQACCnqAIYhAgAABAgQIECBAgAABAgQUdPcAAQIECBAgQIAAAQIECBAIIKCgBxiCCAQIECBAgAABAgQIECBAQEF3DxAgQIAAAQIECBAgQIAAgQACCnqAIYhAgAABAgQIECBAgAABAgQUdPcAAQIECBAgQIAAAQIECBAIIKCgBxiCCAQIECBAgAABAgQIECBAQEF3DxAgQIAAAQIECBAgQIAAgQACCnqAIYhAgAABAgQIECBAgAABAgQUdPcAAQIECBAgQIAAAQIECBAIIKCgBxiCCAQIECBAgAABAgQIECBAQEF3DxAgQIAAAQIECBAgQIAAgQACCnqAIYhAgAABAgQIECBAgAABAgSGFxcX08jISFiJ73//+2l+fj5svipYZL/odtHvv9dffz30/Xfz5s3Q91+VL/o9GPn1e+vWrdDzjZ7vxo0boX92RH5tVNkivzaWlpZCv7csLCyE9gv9wlgO99prr4X2qz6bRn59RP/ZG/39JXo+3aPZO1j18yPy67c63fCGDRtC/5B74xvfmDZu3NhsEi2u3rlzZzp79myLV2i29ZkzZ9K73vWuZpu0uPrgwYNpbm6uxSs02/rYsWOh77+nnnoqtN9v/MZvhPY7fvx4mpycbHaTtLj69ttvD/3+HD3f3Xff3eJ0mm/95je/Oex8qw8vkd+bZ2dnQ7+3jI+Ph/Zrfve2u8Odd94Z9rVRnfyhhx5KX/nKV9pFaLD7hz/84dCvjz179oT2e/jhh1P1+Tnq44UXXkj79u2LGi/t3r07vfTSS2HzXbhwIW3dujVsviqYP3EPPR7hCBAgQIAAAQIECBAgQKAUAQW9lEk7JwECBAgQIECAAAECBAiEFlDQQ49HOAIECBAgQIAAAQIECBAoRUBBL2XSzkmAAAECBAgQIECAAAECoQUU9NDjEY4AAQIECBAgQIAAAQIEShFQ0EuZtHMSIECAAAECBAgQIECAQGgBBT30eIQjQIAAAQIECBAgQIAAgVIEFPRSJu2cBAgQIECAAAECBAgQIBBaQEEPPR7hCBAgQIAAAQIECBAgQKAUAQW9lEk7JwECBAgQIECAAAECBAiEFlDQQ49HOAIECBAgQIAAAQIECBAoRUBBL2XSzkmAAAECBAgQIECAAAECoQUU9NDjEY4AAQIECBAgQIAAAQIEShFQ0EuZtHMSIECAAAECBAgQIECAQGgBBT30eIQjQIAAAQIECBAgQIAAgVIEFPRSJu2cBAgQIECAAAECBAgQIBBaQEEPPR7hCBAgQIAAAQIECBAgQKAUAQW9lEk7JwECBAgQIECAAAECBAiEFlDQQ49HOAIECBAgQIAAAQIECBAoRUBBL2XSzkmAAAECBAgQIECAAAECoQUU9NDjEY4AAQIECBAgQIAAAQIEShFQ0EuZtHMSIECAAAECBAgQIECAQGgBBT30eIQjQIAAAQIECBAgQIAAgVIEFPRSJu2cBAgQIECAAAECBAgQIBBaQEEPPR7hCBAgQIAAAQIECBAgQKAUAQW9lEk7JwECBAgQIECAAAECBAiEFlDQQ49HOAIECBAgQIAAAQIECBAoRUBBL2XSzkmAAAECBAgQIECAAAECoQUU9NDjEY4AAQIECBAgQIAAAQIEShFQ0EuZtHMSIECAAAECBAgQIECAQGgBBT30eIQjQIAAAQIECBAgQIAAgVIEFPRSJu2cBAgQIECAAAECBAgQIBBaQEEPPR7hCBAgQIAAAQIECBAgQKAUAQW9lEk7JwECBAgQIECAAAECBAiEFlDQQ49HOAIECBAgQIAAAQIECBAoRUBBL2XSzkmAAAECBAgQIECAAAECoQUU9NDjEY4AAQIECBAgQIAAAQIEShFQ0EuZtHMSIECAAAECBAgQIECAQGiB4cXFxbRly5awIW/evBk639zcXJqdnQ3r92//9m9pbGwsbL7owa5duxb6/rtw4ULo++/y5cuh/a5evRr6FlxYWAjtV70/e3+pfwvdd9999RcXvvLSpUuhXxvRPxtUt0/0127kfNevXw/9s7f6bBD5s33VPSLPN3o3euWVV9KDDz4Y9qfAa6+9Fnq+Fy9eTLdu3Qrrd//996e0/AFwaTlh2H+jo6Nhs1Vu27dvD51v3759Sx71BY4ePRp6vo888kjofHv37g2d7/jx4/Vvjh6s3L9/f2i/6enpHii4BIH/X+D8+fOhXxs7duwIna96b/GoL/Dcc8+Fnm/0n73VZ6vIj/e+972h5/vQQw+Fznf27NnI413aunVraL+qm/sT97C/PxGMAAECBAgQIECAAAECBEoSUNBLmrazEiBAgAABAgQIECBAgEBYAQU97GgEI0CAAAECBAgQIECAAIGSBBT0kqbtrAQIECBAgAABAgQIECAQVkBBDzsawQgQIECAAAECBAgQIECgJAEFvaRpOysBAgQIECBAgAABAgQIhBVQ0MOORjACBAgQIECAAAECBAgQKElAQS9p2s5KgAABAgQIECBAgAABAmEFFPSwoxGMAAECBAgQIECAAAECBEoSUNBLmrazEiBAgAABAgQIECBAgEBYAQU97GgEI0CAAAECBAgQIECAAIGSBBT0kqbtrAQIECBAgAABAgQIECAQVkBBDzsawQgQIECAAAECBAgQIECgJAEFvaRpOysBAgQIECBAgAABAgQIhBVQ0MOORjACBAgQIECAAAECBAgQKElAQS9p2s5KgAABAgQIECBAgAABAmEFFPSwoxGMAAECBAgQIECAAAECBEoSUNBLmrazEiBAgAABAgQIECBAgEBYAQU97GgEI0CAAAECBAgQIECAAIGSBBT0kqbtrAQIECBAgAABAgQIECAQVkBBDzsawQgQIECAAAECBAgQIECgJAEFvaRpOysBAgQIECBAgAABAgQIhBVQ0MOORjACBAgQIECAAAECBAgQKElAQS9p2s5KgAABAgQIECBAgAABAmEFFPSwoxGMAAECBAgQIECAAAECBEoSUNBLmrazEiBAgAABAgQIECBAgEBYAQU97GgEI0CAAAECBAgQIECAAIGSBBT0kqbtrAQIECBAgAABAgQIECAQVkBBDzsawQgQIECAAAECBAgQIECgJAEFvaRpOysBAgQIECBAgAABAgQIhBVQ0MOORjACBAgQIECAAAECBAgQKElAQS9p2s5KgAABAgQIECBAgAABAmEFFPSwoxGMAAECBAgQIECAAAECBEoSUNBLmrazEiBAgAABAgQIECBAgEBYAQU97GgEI0CAAAECBAgQIECAAIGSBBT0kqbtrAQIECBAgAABAgQIECAQVkBBDzsawQgQIECAAAECBAgQIECgJAEFvaRpOysBAgQIECBAgAABAgQIhBUYXlxcTDt27Agb8PXXX0/j4+Nh8924cSN0vuvXr94S2BUAACAASURBVKeZmZmwfufOnQt9/337298OPd9qsJFfH9Hzfetb3wr9+vjP//zP0POtXr+RH/fdd18aGxsLGzHye3P01270fPPz86Ffu9V7S+T7L/pngwsXLoSeb/TXR/XZKvL9d+3atdDznZubC/3Z+R//8R/Tzp07w/7svf/++1P1L/RjYWFhaTlg2H9bt25d8qgv8MILL4SdbXXfPfzww6HzHTp0qD6+leEFJicnQ99/p06dCm24/Muh0H7nz58P7TcyMhLWr8rmMbgC1XtL5M9+u3fvDp3vyJEjg3tz9OBk1WeryPffyZMne6BQ/xL79u0L7Xf27Nn6h7PyBwL+xD30r0+EI0CAAAECBAgQIECAAIFSBBT0UibtnAQIECBAgAABAgQIECAQWkBBDz0e4QgQIECAAAECBAgQIECgFAEFvZRJOycBAgQIECBAgAABAgQIhBZQ0EOPRzgCBAgQIECAAAECBAgQKEVAQS9l0s5JgAABAgQIECBAgAABAqEFFPTQ4xGOAAECBAgQIECAAAECBEoRUNBLmbRzEiBAgAABAgQIECBAgEBoAQU99HiEI0CAAAECBAgQIECAAIFSBBT0UibtnAQIECBAgAABAgQIECAQWkBBDz0e4QgQIECAAAECBAgQIECgFAEFvZRJOycBAgQIECBAgAABAgQIhBZQ0EOPRzgCBAgQIECAAAECBAgQKEVAQS9l0s5JgAABAgQIECBAgAABAqEFFPTQ4xGOAAECBAgQIECAAAECBEoRUNBLmbRzEiBAgAABAgQIECBAgEBoAQU99HiEI0CAAAECBAgQIECAAIFSBBT0UibtnAQIECBAgAABAgQIECAQWkBBDz0e4QgQIECAAAECBAgQIECgFAEFvZRJOycBAgQIECBAgAABAgQIhBZQ0EOPRzgCBAgQIECAAAECBAgQKEVAQS9l0s5JgAABAgQIECBAgAABAqEFFPTQ4xGOAAECBAgQIECAAAECBEoRUNBLmbRzEiBAgAABAgQIECBAgEBoAQU99HiEI0CAAAECBAgQIECAAIFSBBT0UibtnAQIECBAgAABAgQIECAQWkBBDz0e4QgQIECAAAECBAgQIECgFAEFvZRJOycBAgQIECBAgAABAgQIhBZQ0EOPRzgCBAgQIECAAAECBAgQKEVAQS9l0s5JgAABAgQIECBAgAABAqEFFPTQ4xGOAAECBAgQIECAAAECBEoRUNBLmbRzEiBAgAABAgQIECBAgEBoAQU99HiEI0CAAAECBAgQIECAAIFSBBT0UibtnAQIECBAgAABAgQIECAQWkBBDz0e4QgQIECAAAECBAgQIECgFAEFvZRJOycBAgQIECBAgAABAgQIhBZQ0EOPRzgCBAgQIECAAAECBAgQKEVAQS9l0s5JgAABAgQIECBAgAABAqEFhhcXF9PExETokMLVF/jGN74Rer6vvvpq2r9/f/0DFr5yamoqvEDk+X7nO98J/fr4zGc+E3q+d955p9dvgwm97W1va7Da0sgCMzMz6cqVK2EjVu8tkT/7Xbx4MXS+v/mbv0mRf/5OT0+H9qteH5Hvv7/9279NBw8eDPv6rT47R/b7kz/5k/Sv//qvYf2uXr2a7r333rD59u7dm9LCwsLScsKw/7Zu3brkUV/ghRdeCDvb6r5bfgOsfzgrl55++unQ833uuedCT2lycjK03/IP4ND5lj8Ehp5v9HAjIyNh51tl86gvUL02In+2iv7esnv37tB+yx+g5WvQHfbs2RPa7+TJk/Vf/D1YuW/fvtB+27dvD51vdHQ0dL6qm/sT97C/PxGMAAECBAgQIECAAAECBEoSUNBLmrazEiBAgAABAgQIECBAgEBYAQU97GgEI0CAAAECBAgQIECAAIGSBBT0kqbtrAQIECBAgAABAgQIECAQVkBBDzsawQgQIECAAAECBAgQIECgJAEFvaRpOysBAgQIECBAgAABAgQIhBVQ0MOORjACBAgQIECAAAECBAgQKElAQS9p2s5KgAABAgQIECBAgAABAmEFFPSwoxGMAAECBAgQIECAAAECBEoSUNBLmrazEiBAgAABAgQIECBAgEBYAQU97GgEI0CAAAECBAgQIECAAIGSBBT0kqbtrAQIECBAgAABAgQIECAQVkBBDzsawQgQIECAAAECBAgQIECgJAEFvaRpOysBAgQIECBAgAABAgQIhBVQ0MOORjACBAgQIECAAAECBAgQKElAQS9p2s5KgAABAgQIECBAgAABAmEFFPSwoxGMAAECBAgQIECAAAECBEoSUNBLmrazEiBAgAABAgQIECBAgEBYAQU97GgEI0CAAAECBAgQIECAAIGSBBT0kqbtrAQIECBAgAABAgQIECAQVkBBDzsawQgQIECAAAECBAgQIECgJAEFvaRpOysBAgQIECBAgAABAgQIhBVQ0MOORjACBAgQIECAAAECBAgQKElAQS9p2s5KgAABAgQIECBAgAABAmEFFPSwoxGMAAECBAgQIECAAAECBEoSUNBLmrazEiBAgAABAgQIECBAgEBYAQU97GgEI0CAAAECBAgQIECAAIGSBBT0kqbtrAQIECBAgAABAgQIECAQVkBBDzsawQgQIECAAAECBAgQIECgJAEFvaRpOysBAgQIECBAgAABAgQIhBVQ0MOORjACBAgQIECAAAECBAgQKElAQS9p2s5KgAABAgQIECBAgAABAmEFFPSwoxGMAAECBAgQIECAAAECBEoSUNBLmrazEiBAgAABAgQIECBAgEBYAQU97GgEI0CAAAECBAgQIECAAIGSBBT0kqbtrAQIECBAgAABAgQIECAQVkBBDzsawQgQIECAAAECBAgQIECgJAEFvaRpOysBAgQIECBAgAABAgQIhBUYrpJNTk6GDShYcwHzbW4YeQfzrT+db33rW2n37t31N2h55dzcXOj3589//vPp3LlzLSvU3/7q1avp3nvvrb9Byyvf/va3p9tu83vyOsyzs7PpxRdfrLO0J2uq95bI780vv/xy6Pe+K1euhPa7ePGifA1eSTMzM6HvvzNnzqSDBw82OGG7S2/cuBHar/q59o53vKNdhAa7z8/Pp5GRkQY7tL90aGn50f5lXIEAAQLxBB599NF04sSJeMH+K9GpU6fS/v37w+abmJhI1QetqI8tW7akS5cuRY33gw8I1QeFiI8qW/ULoqiPqqBv27Ytarw0Pj6epqenw+abmppKBw4cCJuv+uXG8ePHw+YTrJnA4cOH07Fjx5pt0uLqkydPhi7o73rXu9Lp06dbFGi29dmzZ9POnTubbVL4ar+6L/wGcHwCBAgQIECAAAECBAgQiCGgoMeYgxQECBAgQIAAAQIECBAgULiAgl74DeD4BAgQIECAAAECBAgQIBBDQEGPMQcpCBAgQIAAAQIECBAgQKBwAQW98BvA8QkQIECAAAECBAgQIEAghoCCHmMOUhAgQIAAAQIECBAgQIBA4QIKeuE3gOMTIECAAAECBAgQIECAQAwBBT3GHKQgQIAAAQIECBAgQIAAgcIFFPTCbwDHJ0CAAAECBAgQIECAAIEYAgp6jDlIQYAAAQIECBAgQIAAAQKFCyjohd8Ajk+AAAECBAgQIECAAAECMQQU9BhzkIIAAQIECBAgQIAAAQIEChdQ0Au/ARyfAAECBAgQIECAAAECBGIIKOgx5iAFAQIECBAgQIAAAQIECBQuoKAXfgM4PgECBAgQIECAAAECBAjEEFDQY8xBCgIECBAgQIAAAQIECBAoXEBBL/wGcHwCBAgQIECAAAECBAgQiCGgoMeYgxQECBAgQIAAAQIECBAgULiAgl74DeD4BAgQIECAAAECBAgQIBBDQEGPMQcpCBAgQIAAAQIECBAgQKBwAQW98BvA8QkQIECAAAECBAgQIEAghoCCHmMOUhAgQIAAAQIECBAgQIBA4QIKeuE3gOMTIECAAAECBAgQIECAQAwBBT3GHKQgQIAAAQIECBAgQIAAgcIFFPTCbwDHJ0CAAAECBAgQIECAAIEYAgp6jDlIQYAAAQIECBAgQIAAAQKFCyjohd8Ajk+AAAECBAgQIECAAAECMQQU9BhzkIIAAQIECBAgQIAAAQIEChdQ0Au/ARyfAAECBAgQIECAAAECBGIIKOgx5iAFAQIECBAgQIAAAQIECBQuoKAXfgM4PgECBAgQIECAAAECBAjEEFDQY8xBCgIECBAgQIAAAQIECBAoXEBBL/wGcHwCBAgQIECAAAECBAgQiCGgoMeYgxQECBAgQIAAAQIECBAgULiAgl74DeD4BAgQIECAAAECBAgQIBBDQEGPMQcpCBAgQIAAAQIECBAgQKBwAQW98BvA8QkQIECAAAECBAgQIEAghoCCHmMOUhAgQIAAAQIECBAgQIBA4QJDS8uPwg0cnwCBQgUeeeSR0CfftGlTeve73x0241/91V+lN7/5zWHzff3rX0933XVX2Hzbt29Pd999d9h8zz33XNhs1b335JNPhs33ve99L73vfe8Lm+8LX/hCun79eth8VbAvfelLYfN98pOfDJvtv4MdOXIkbMboP3uHhobSe97znrB+1WvjJ37iJ8Lmq36ubdmyJWy+//iP/0hvetObwub79V//9ZT+q6BXJd0/Bu4B90DWe6B6f4n8mJyczHre3O+jExMTofNNT09HHu/S2NhYaL+5ubnQfpHDnT9/PvRsd+zYETpf9PeW6r058mP5l1eh5/v0009H5ls6dOhQaL/du3eHzvfCCy+Enu/OnTtD+42OjobOt7CwsORP3MP+/kQwAgQIECBAgAABAgQIEChJQEEvadrOSoAAAQIECBAgQIAAAQJhBRT0sKMRjAABAgQIECBAgAABAgRKElDQS5q2sxIgQIAAAQIECBAgQIBAWAEFPexoBCNAgAABAgQIECBAgACBkgQU9JKm7awECBAgQIAAAQIECBAgEFZAQQ87GsEIECBAgAABAgQIECBAoCQBBb2kaTsrAQIECBAgQIAAAQIECIQVUNDDjkYwAgQIECBAgAABAgQIEChJQEEvadrOSoAAAQIECBAgQIAAAQJhBRT0sKMRjAABAgQIECBAgAABAgRKElDQS5q2sxIgQIAAAQIECBAgQIBAWAEFPexoBCNAgAABAgQIECBAgACBkgQU9JKm7awECBAgQIAAAQIECBAgEFZAQQ87GsEIECBAgAABAgQIECBAoCQBBb2kaTsrAQIECBAgQIAAAQIECIQVUNDDjkYwAgQIECBAgAABAgQIEChJQEEvadrOSoAAAQIECBAgQIAAAQJhBRT0sKMRjAABAgQIECBAgAABAgRKElDQS5q2sxIgQIAAAQIECBAgQIBAWAEFPexoBCNAgAABAgQIECBAgACBkgQU9JKm7awECBAgQIAAAQIECBAgEFZAQQ87GsEIECBAgAABAgQIECBAoCQBBb2kaTsrAQIECBAgQIAAAQIECIQVUNDDjkYwAgQIECBAgAABAgQIEChJQEEvadrOSoAAAQIECBAgQIAAAQJhBRT0sKMRjAABAgQIECBAgAABAgRKElDQS5q2sxIgQIAAAQIECBAgQIBAWAEFPexoBCNAgAABAgQIECBAgACBkgQU9JKm7awECBAgQIAAAQIECBAgEFZAQQ87GsEIECBAgAABAgQIECBAoCQBBb2kaTsrAQIECBAgQIAAAQIECIQVUNDDjkYwAgQIECBAgAABAgQIEChJQEEvadrOSoAAAQIECBAgQIAAAQJhBRT0sKMRjAABAgQIECBAgAABAgRKElDQS5q2sxIgQIAAAQIECBAgQIBAWAEFPexoBCNAgAABAgQIECBAgACBkgQU9JKm7awECBAgQIAAAQIECBAgEFZgOGyy/xHsIx/5SBdiykig5wJnz55Nn/3sZ3t+3UG54E//9E+np59+Ouxx/vRP/zTt3bs3bL5z586l8fHxsPne//73h81WBfvoRz+a7rjjjrAZI782KrTI+f7u7/4u3X///WFnOzs7G/q95eLFi2Ht/jtY5PsvOt7LL78c+v577bXXQr+/RJ/vL//yL6fqX9TH5z//+VR9/ov6WFxcTENLy4+hoaGoGdPmzZvTtWvXwuYTjEA/BT7xiU+kD37wg/2M8EOvvfz28kO/75s/XODAgQNpamrqhz+pj9+dnp4OXdD7SLOmS2/cuDHNz8+v6bm9ftLIyEiam5vr9WUH5nozMzNpYmIi7HmqbNXrN+pjcnIyHT9+PGo8uRoKHD58OB07dqzhLu0tP3nyZDp48GB7F7BzXwUeeOCBFPmXgAsLC8mfuPf1FnFxAgQIECBAgAABAgQIECDwfwUUdHcCAQIECBAgQIAAAQIECBAIIKCgBxiCCAQIECBAgAABAgQIECBAQEF3DxAgQIAAAQIECBAgQIAAgQACCnqAIYhAgAABAgQIECBAgAABAgQUdPcAAQIECBAgQIAAAQIECBAIIKCgBxiCCAQIECBAgAABAgQIECBAQEF3DxAgQIAAAQIECBAgQIAAgQACCnqAIYhAgAABAgQIECBAgAABAgQUdPcAAQIECBAgQIAAAQIECBAIIKCgBxiCCAQIECBAgAABAgQIECBAQEF3DxAgQIAAAQIECBAgQIAAgQACCnqAIYhAgAABAgQIECBAgAABAgQUdPcAAQIECBAgQIAAAQIECBAIIKCgBxiCCAQIECBAgAABAgQIECBAQEF3DxAgQIAAAQIECBAgQIAAgQACCnqAIYhAgAABAgQIECBAgAABAgQUdPcAAQIECBAgQIAAAQIECBAIIKCgBxiCCAQIECBAgAABAgQIECBAQEF3DxAgQIAAAQIECBAgQIAAgQACCnqAIYhAgAABAgQIECBAgAABAgQUdPcAAQIECBAgQIAAAQIECBAIIKCgBxiCCAQIECBAgAABAgQIECBAQEF3DxAgQIAAAQIECBAgQIAAgQACCnqAIYhAgAABAgQIECBAgAABAgQUdPcAAQIECBAgQIAAAQIECBAIIKCgBxiCCAQIECBAgAABAgQIECBAQEF3DxAgQIAAAQIECBAgQIAAgQACCnqAIYhAgAABAgQIECBAgAABAgQUdPcAAQIECBAgQIAAAQIECBAIIKCgBxiCCAQIECBAgAABAgQIECBAQEF3DxAgQIAAAQIECBAgQIAAgQACCnqAIYhAgAABAgQIECBAgAABAgQUdPcAAQIECBAgQIAAAQIECBAIIKCgBxiCCAQIECBAgAABAgQIECBAQEF3DxAgQIAAAQIECBAgQIAAgQACCnqAIYhAgAABAgQIECBAgAABAgQUdPcAAQIECBAgQIAAAQIECBAIIDAcIEPnIxw+fLjzZ3CA1QWOHj26+jd9p9MC0V+73/nOd9KePXvCGp87dy6Nj4+HzRc92O///u+Hjfjaa6+l6K+P6O/NkfOdOnUqbdy4Mez9NzMzE/r+e/nll9PP/MzPhPWLnm9qair0z7YzZ86kgwcPhp1v9GDRf3YcOnQobd68OTbj0vJjOWHYf8uAVcTQj8h+sjW7t5dfxKHvvY9//ONhX7vVvRf9MTk5GdpvYmIidL7p6enoI5avpsDc3Fzoe29sbKzmySyrBJYLeuj57t69O3S+vXv3ytegOyz/4jm038mTJ71RNBDYuXNn6PleuHChwel6s9SfuMf+/Yl0BAgQIECAAAECBAgQIFCIgIJeyKAdkwABAgQIECBAgAABAgRiCyjosecjHQECBAgQIECAAAECBAgUIqCgFzJoxyRAgAABAgQIECBAgACB2AIKeuz5SEeAAAECBAgQIECAAAEChQgo6IUM2jEJECBAgAABAgQIECBAILaAgh57PtIRIECAAAECBAgQIECAQCECCnohg3ZMAgQIECBAgAABAgQIEIgtoKDHno90BAgQIECAAAECBAgQIFCIgIJeyKAdkwABAgQIECBAgAABAgRiCyjosecjHQECBAgQIECAAAECBAgUIqCgFzJoxyRAgAABAgQIECBAgACB2AIKeuz5SEeAAAECBAgQIECAAAEChQgo6IUM2jEJECBAgAABAgQIECBAILaAgh57PtIRIECAAAECBAgQIECAQCECCnohg3ZMAgQIECBAgAABAgQIEIgtoKDHno90BAgQIECAAAECBAgQIFCIgIJeyKAdkwABAgT+T7t28GJV3YcB/GdNTQwFpuAMWpNITIILcWijm1m0dJ9iriKE2rQrCPoHWhQJ6U5wIejGhbtE17MpMlopJCqWWopCNjktmndO8L67oTj33Pc+8v1cmNXMOff5fZ47d+YZJUCAAAECBAgQyBYw0LP7kY4AAQIECBAgQIAAAQIEiggY6EWKdkwCBAgQIECAAAECBAgQyBYw0LP7kY4AAQIECBAgQIAAAQIEiggY6EWKdkwCBAgQIECAAAECBAgQyBYw0LP7kY4AAQIECBAgQIAAAQIEiggY6EWKdkwCBAgQIECAAAECBAgQyBYw0LP7kY4AAQIECBAgQIAAAQIEiggY6EWKdkwCBAgQIECAAAECBAgQyBYw0LP7kY4AAQIECBAgQIAAAQIEiggY6EWKdkwCBAgQIECAAAECBAgQyBYw0LP7kY4AAQIECBAgQIAAAQIEiggY6EWKdkwCBAgQIECAAAECBAgQyBYw0LP7kY4AAQIECBAgQIAAAQIEiggY6EWKdkwCBAgQIECAAAECBAgQyBYw0LP7kY4AAQIECBAgQIAAAQIEiggY6EWKdkwCBAgQIECAAAECBAgQyBYw0LP7kY4AAQIECBAgQIAAAQIEiggY6EWKdkwCBAgQIECAAAECBAgQyBYw0LP7kY4AAQIECBAgQIAAAQIEiggY6EWKdkwCBAgQIECAAAECBAgQyBaYyo4nHQECBMYncPPmzbZ///7xPcGId965c2f76KOPRrxL3csPHz4cffhTp061mZmZ2Iznzp2LzXb//v2W3u/Zs2dj/bpgyf0uLy+3Dz/8MNbv5MmT7cCBA7H5fvzxx+h8U1NT0a+/L7/8sp0/fz6233v37rXZ2dnYfO+880775JNPYvO9//770T97T58+3dra+mNdMPZj8+bNXcToR7KfbKO9tj/44IPo194XX3wR+73bvfbSH0eOHIn2+/rrr9MJo/PNz89H9/v7779H+yWHW//jWnS3i4uLyXyyjSiwPuCiX39LS0vR+b766qsRGxjv5YcOHYr227dvX3S+K1eujLegEe++Y8eOaL8nT56s+S/usX/fEYwAAQIECBAgQIAAAQIEKgkY6JXadlYCBAgQIECAAAECBAgQiBUw0GOrEYwAAQIECBAgQIAAAQIEKgkY6JXadlYCBAgQIECAAAECBAgQiBUw0GOrEYwAAQIECBAgQIAAAQIEKgkY6JXadlYCBAgQIECAAAECBAgQiBUw0GOrEYwAAQIECBAgQIAAAQIEKgkY6JXadlYCBAgQIECAAAECBAgQiBUw0GOrEYwAAQIECBAgQIAAAQIEKgkY6JXadlYCBAgQIECAAAECBAgQiBUw0GOrEYwAAQIECBAgQIAAAQIEKgkY6JXadlYCBAgQIECAAAECBAgQiBUw0GOrEYwAAQIECBAgQIAAAQIEKgkY6JXadlYCBAgQIECAAAECBAgQiBUw0GOrEYwAAQIECBAgQIAAAQIEKgkY6JXadlYCBAgQIECAAAECBAgQiBUw0GOrEYwAAQIECBAgQIAAAQIEKgkY6JXadlYCBAgQIECAAAECBAgQiBUw0GOrEYwAAQIECBAgQIAAAQIEKgkY6JXadlYCBAgQIECAAAECBAgQiBUw0GOrEYwAAQIECBAgQIAAAQIEKgkY6JXadlYCBAgQIECAAAECBAgQiBUw0GOrEYwAAQIECBAgQIAAAQIEKgkY6JXadlYCBAgQIECAAAECBAgQiBUw0GOrEYwAAQIECBAgQIAAAQIEKgkY6JXadlYCBAgQIECAAAECBAgQiBUw0GOrEYwAAQIECBAgQIAAAQIEKgkY6JXadlYCBAgQIECAAAECBAgQiBUw0GOrEYwAAQIECBAgQIAAAQIEKgkY6JXadlYCBAgQIECAAAECBAgQiBUw0GOrEYwAAQIECBAgQIAAAQIEKgkY6JXadlYCBAgQIECAAAECBAgQiBUw0GOrEYwAAQIECBAgQIAAAQIEKgkY6JXadlYCBAgQIECAAAECBAgQiBUw0GOrEYwAAQIECBAgQIAAAQIEKgkY6JXadlYCBAgQIECAAAECBAgQiBUw0GOrEYwAAQIECBAgQIAAAQIEKgkY6JXadlYCBAgQIECAAAECBAgQiBWYik0mGAECBMYs8O6777buI/Xx8ccft88++yw13t/ZFhcXY/Nt3bq1dR+pj5WVlTYzM5MaLz7XpUuX4jOmBrx48WL0e8vs7Gw7c+ZMKl/bs2dPS379fffdd+3TTz+N9Tt+/Hg7f/58bL47d+60ffv2xeb75ZdfovMdPXq0dd/DqY+XX365bdu2LTVeW11dbQZ6bD2CESAwboG33npr3E8x0v27cdn9Iu3RT+DBgwft1q1b/S7+P1xlnPdHnp+fb92HR3+By5cv9794zFceOXJkzM8w2u3Tf3ak5+vG+YkTJ0YrYYxX79+/vy0vL4/xGUa7dffHg+6PMKmPhYWFlvz+Mjc31+7evZvK16anp5v/4h5bj2AECBAgQIAAAQIECBAgUEnAQK/UtrMSIECAAAECBAgQIECAQKyAgR5bjWAECBAgQIAAAQIECBAgUEnAQK/UtrMSIECAAAECBAgQIECAQKyAgR5bjWAECBAgQIAAAQIECBAgUEnAQK/UtrMSIECAAAECBAgQIECAQKyAgR5bjWAECBAgQIAAAQIECBAgUEnAQK/UtrMSIECAAAECBAgQIECAQKyAgR5bjWAECBAgQIAAAQIECBAgUEnAQK/UtrMSIECAAAECBAgQIECAQKyAgR5bjWAEbK7SqgAAC1dJREFUCBAgQIAAAQIECBAgUEnAQK/UtrMSIECAAAECBAgQIECAQKyAgR5bjWAECBAgQIAAAQIECBAgUEnAQK/UtrMSIECAAAECBAgQIECAQKyAgR5bjWAECBAgQIAAAQIECBAgUEnAQK/UtrMSIECAAAECBAgQIECAQKyAgR5bjWAECBAgQIAAAQIECBAgUEnAQK/UtrMSIECAAAECBAgQIECAQKyAgR5bjWAECBAgQIAAAQIECBAgUEnAQK/UtrMSIECAAAECBAgQIECAQKyAgR5bjWAECBAgQIAAAQIECBAgUEnAQK/UtrMSIECAAAECBAgQIECAQKyAgR5bjWAECBAgQIAAAQIECBAgUEnAQK/UtrMSIECAAAECBAgQIECAQKyAgR5bjWAECBAgQIAAAQIECBAgUEnAQK/UtrMSIECAAAECBAgQIECAQKyAgR5bjWAECBAgQIAAAQIECBAgUEnAQK/UtrMSIECAAAECBAgQIECAQKyAgR5bjWAECBAgQIAAAQIECBAgUEnAQK/UtrMSIECAAAECBAgQIECAQKyAgR5bjWAECBAgQIAAAQIECBAgUEnAQK/UtrMSIECAAAECBAgQIECAQKyAgR5bjWAECBAgQIAAAQIECBAgUEnAQK/UtrMSIECAAAECBAgQIECAQKyAgR5bjWAECBAgQIAAAQIECBAgUEnAQK/UtrMSIECAAAECBAgQIECAQKyAgR5bjWAECBAgQIAAAQIECBAgUEnAQK/UtrMSIECAAAECBAgQIECAQKzAVGyypyjY2traU5RWVAIEnhaB3377rS0sLMTGvXbtWltcXIzNd+HChdhs6cFWVlbagQMHYmP++eef7fnnn4/N9+yzz7Zvv/02Nt/169ej31sePnwYa9cFO378eDt16lRsxs2bN7dHjx7F5jt48GC7cuVKbL7uZ9vJkydj8x09ejT6+/fx48fR+Z48eRKdb3V1tRnosd9+ghEgUF3gpZdeasvLy7EMyX886ND27t0ba/c0BPv+++9jY27fvr39/PPPsfmS/3DVoe3atat1IyT18eabb6ZG+1+u5O+PpaWllpzv2LFj0e/P6T87Zmdn2+XLl2O/R7rfDZLfX+bm5tqtW7di/aanp5v/4h5bj2AECBAgQIAAAQIECBAgUEnAQK/UtrMSIECAAAECBAgQIECAQKyAgR5bjWAECBAgQIAAAQIECBAgUEnAQK/UtrMSIECAAAECBAgQIECAQKyAgR5bjWAECBAgQIAAAQIECBAgUEnAQK/UtrMSIECAAAECBAgQIECAQKyAgR5bjWAECBAgQIAAAQIECBAgUEnAQK/UtrMSIECAAAECBAgQIECAQKyAgR5bjWAECBAgQIAAAQIECBAgUEnAQK/UtrMSIECAAAECBAgQIECAQKyAgR5bjWAECBAgQIAAAQIECBAgUEnAQK/UtrMSIECAAAECBAgQIECAQKyAgR5bjWAECBAgQIAAAQIECBAgUEnAQK/UtrMSIECAAAECBAgQIECAQKyAgR5bjWAECBAgQIAAAQIECBAgUEnAQK/UtrMSIECAAAECBAgQIECAQKyAgR5bjWAECBAgQIAAAQIECBAgUEnAQK/UtrMSIECAAAECBAgQIECAQKyAgR5bjWAECBAgQIAAAQIECBAgUEnAQK/UtrMSIECAAAECBAgQIECAQKyAgR5bjWAECBAgQIAAAQIECBAgUEnAQK/UtrMSIECAAAECBAgQIECAQKyAgR5bjWAECBAgQIAAAQIECBAgUEnAQK/UtrMSIECAAAECBAgQIECAQKyAgR5bjWAECBAgQIAAAQIECBAgUEnAQK/UtrMSIECAAAECBAgQIECAQKyAgR5bjWAECBAgQIAAAQIECBAgUEnAQK/UtrMSIECAAAECBAgQIECAQKyAgR5bjWAECBAgQIAAAQIECBAgUEnAQK/UtrMSIECAAAECBAgQIECAQKyAgR5bjWAECBAgQIAAAQIECBAgUEnAQK/UtrMSIECAAAECBAgQIECAQKyAgR5bjWAECBAgQIAAAQIECBAgUEnAQK/UtrMSIECAAAECBAgQIECAQKyAgR5bjWAECBAgQIAAAQIECBAgUEnAQK/UtrMSIECAAAECBAgQIECAQKyAgR5bjWAECBAgQIAAAQIECBAgUEnAQK/UtrMSIECAAAECBAgQIECAQKzAprX1x6ZNm2IDdsF27twZnU84ApMSePz4cbt///6knv4fn3f97eUfv8YXbCywtLTUrl27tvEXTPgzL774Yvvjjz8mnGLjp+9ef8k/35Lz/fXXXy39+/ebb77ZuPwJf+aHH35o77333oRTbPz0W7Zsab/++uvGXzDhz7zyyivtzp07E06x8dO/+uqr7caNGxt/wYQ/s2PHjvbTTz9NOMXGT//aa6+127dvb/wFE/7M559/3t5+++0Jp9j46ZO77VLfvXu3zc3NbXyACX9mcXGxPfNM7r9RX716tU1N2OhfPX3ym+C/OoAvIkCAQA+BF1544e8fdKmP3bt3R/8SuH379uh8MzMzbWVlJbLe5Gwd2Pz8fOtGSOrj3r170a+97pfn5PeWXbt2Rfu9/vrr0X5vvPFGdL6FhYXoflPfV/6bK/m9r8uYnu+5556Lfv1NT0+33D8fpH93yEeAAAECBAgQIECAAAECBAYUMNAHxHQrAgQIECBAgAABAgQIECDQV8BA7yvnOgIECBAgQIAAAQIECBAgMKCAgT4gplsRIECAAAECBAgQIECAAIG+AgZ6XznXESBAgAABAgQIECBAgACBAQUM9AEx3YoAAQIECBAgQIAAAQIECPQVMND7yrmOAAECBAgQIECAAAECBAgMKGCgD4jpVgQIECBAgAABAgQIECBAoK+Agd5XznUECBAgQIAAAQIECBAgQGBAAQN9QEy3IkCAAAECBAgQIECAAAECfQUM9L5yriNAgAABAgQIECBAgAABAgMKGOgDYroVAQIECBAgQIAAAQIECBDoK2Cg95VzHQECBAgQIECAAAECBAgQGFDAQB8Q060IECBAgAABAgQIECBAgEBfAQO9r5zrCBAgQIAAAQIECBAgQIDAgAIG+oCYbkWAAAECBAgQIECAAAECBPoKGOh95VxHgAABAgQIECBAgAABAgQGFDDQB8R0KwIECBAgQIAAAQIECBAg0FfAQO8r5zoCBAgQIECAAAECBAgQIDCggIE+IKZbESBAgAABAgQIECBAgACBvgIGel851xEgQIAAAQIECBAgQIAAgQEFDPQBMd2KAAECBAgQIECAAAECBAj0FTDQ+8q5jgABAgQIECBAgAABAgQIDChgoA+I6VYECBAgQIAAAQIECBAgQKCvgIHeV851BAgQIECAAAECBAgQIEBgQAEDfUBMtyJAgAABAgQIECBAgAABAn0FDPS+cq4jQIAAAQIECBAgQIAAAQIDChjoA2K6FQECBAgQIECAAAECBAgQ6CtgoPeVcx0BAgQIECBAgAABAgQIEBhQwEAfENOtCBAgQIAAAQIECBAgQIBAXwEDva+c6wgQIECAAAECBAgQIECAwIACBvqAmG5FgAABAgQIECBAgAABAgT6ChjofeVcR4AAAQIECBAgQIAAAQIEBhQw0AfEdCsCBAgQIECAAAECBAgQINBXwEDvK+c6AgQIECBAgAABAgQIECAwoICBPiCmWxEgQIAAAQIECBAgQIAAgb4CBnpfOdcRIECAAAECBAgQIECAAIEBBQz0ATHdigABAgQIECBAgAABAgQI9BXYtLb+6Hux6wgQIEBgfAKrq6vju/kAd+7yTU9PD3Cn8dxCvv6u6XbdydJfe/31x39ler/yjfYa4DeaX/r7y+inq32H9N+tunb+A8phVw5oG7ToAAAAAElFTkSuQmCC;" vertex="1" parent="1">
                    <mxGeometry y="320" width="180" height="180" as="geometry"/>
                </mxCell>
                <mxCell id="4" value="" style="shape=image;verticalLabelPosition=bottom;labelBackgroundColor=default;verticalAlign=top;aspect=fixed;imageAspect=0;image=data:image/png,iVBORw0KGgoAAAANSUhEUgAAA+gAAAPoCAYAAABNo9TkAAAABHNCSVQICAgIfAhkiAAAIABJREFUeF7s2l+MndV1N+A9xOAwExzToMTMhHGkUGuqSnWZKf+cyrZqZPcqEWrli0FRovaikl25zU1bcuE0SGlabghIuBeoKDemNYraJlL/2IE0IBLSlJmaVEiGoqoewKWNjU2dGc9gm/n8Ron0fdLHeHL2PmfW++7nSM4F5+z1rvWs95w5v8kMLV95JA8CBAgQINAxgaWlpdATNf2tX78+ZI+Re2vAovfX9Bh1tz/1C3nj/V9NRfaLbqc/AgTaLbCuaX9oaKjdU+ieAIGQAn7/F3It1TS1ZcuWNDc3F3be4eHhtLCwELK/yL01YKOjo+nUqVMh7ZqmJicn08zMTNj+nnnmmbRnz56w/U1PT6fDhw+H7a9pzHfn0OvRHIFWCmzcuDGdPXs2XdPK7jVNgAABAgQIECBAgAABAgQ6JiCgd2yhxiFAgAABAgQIECBAgACBdgoI6O3cm64JECBAgAABAgQIECBAoGMCAnrHFmocAgQIECBAgAABAgQIEGingIDezr3pmgABAgQIECBAgAABAgQ6JiCgd2yhxiFAgAABAgQIECBAgACBdgoI6O3cm64JECBAgAABAgQIECBAoGMCAnrHFmocAgQIECBAgAABAgQIEGingIDezr3pmgABAgQIECBAgAABAgQ6JiCgd2yhxiFAgAABAgQIECBAgACBdgoI6O3cm64JECBAgAABAgQIECBAoGMCAnrHFmocAgQIECBAgAABAgQIEGingIDezr3pmgABAgQIECBAgAABAgQ6JiCgd2yhxiFAgAABAgQIECBAgACBdgoI6O3cm64JECBAgAABAgQIECBAoGMCAnrHFmocAgQIECBAgAABAgQIEGingIDezr3pmgABAgQIECBAgAABAgQ6JiCgd2yhxiFAgAABAgQIECBAgACBdgoI6O3cm64JECBAgAABAgQIECBAoGMCAnrHFmocAgQIECBAgAABAgQIEGingIDezr3pmgABAgQIECBAgAABAgQ6JiCgd2yhxiFAgAABAgQIECBAgACBdgoI6O3cm64JECBAgAABAgQIECBAoGMCAnrHFmocAgQIECBAgAABAgQIEGingIDezr3pmgABAgQIECBAgAABAgQ6JiCgd2yhxiFAgAABAgQIECBAgACBdgoI6O3cm64JECBAgAABAgQIECBAoGMCAnrHFmocAgQIECBAgAABAgQIEGingIDezr3pmgABAgQIECBAgAABAgQ6JiCgd2yhxiFAgAABAgQIECBAgACBdgoI6O3cm64JECBAgAABAgQIECBAoGMCAnrHFmocAgQIECBAgAABAgQIEGingIDezr3pmgABAgQIECBAgAABAgQ6JiCgd2yhxiFAgAABAgQIECBAgACBdgoI6O3cm64JECBAgAABAgQIECBAoGMCAnrHFmocAgQIECBAgAABAgQIEGingIDezr3pmgABAgQIECBAgAABAgQ6JiCgd2yhxiFAgAABAgQIECBAgACBdgqsa2fbuiZAgAABAlcXGBsbu/qL1ugVly5dShs2bFijq6982eXl5XTjjTeu/KI1fLax27Rp0xp2sPKlL168uPILAjwb+b0RgEcLBAgQWDOBoSs/hJeHhobWrIGrXXjjxo3p7NmzV3uZ5wlUKfCVr3wlfe5znws7e/Ml34MAgf+/wMjISFpYWPj/P7nG/3V4eDjNz8+vcRfvffm5ubm0efPm937BGj8zOTmZZmZm1rgLl++nQOTvzg899FD6/d///X6OrzaB1go0v3w+d+5cyP5/mnv9iXvI9WiKAAECBAgQIECAAAECBGoTENBr27h5CRAgQIAAAQIECBAgQCCkgIAeci2aIkCAAAECBAgQIECAAIHaBAT02jZuXgIECBAgQIAAAQIECBAIKSCgh1yLpggQIECAAAECBAgQIECgNgEBvbaNm5cAAQIECBAgQIAAAQIEQgoI6CHXoikCBAgQIECAAAECBAgQqE1AQK9t4+YlQIAAAQIECBAgQIAAgZACAnrItWiKAAECBAgQIECAAAECBGoTENBr27h5CRAgQIAAAQIECBAgQCCkgIAeci2aIkCAAAECBAgQIECAAIHaBAT02jZuXgIECBAgQIAAAQIECBAIKSCgh1yLpggQIECAAAECBAgQIECgNgEBvbaNm5cAAQIECBAgQIAAAQIEQgoI6CHXoikCBAgQIECAAAECBAgQqE1AQK9t4+YlQIAAAQIECBAgQIAAgZACAnrItWiKAAECBAgQIECAAAECBGoTENBr27h5CRAgQIAAAQIECBAgQCCkgIAeci2aIkCAAAECBAgQIECAAIHaBAT02jZuXgIECBAgQIAAAQIECBAIKSCgh1yLpggQIECAAAECBAgQIECgNgEBvbaNm5cAAQIECBAgQIAAAQIEQgoI6CHXoikCBAgQIECAAAECBAgQqE1AQK9t4+YlQIAAAQIECBAgQIAAgZACAnrItWiKAAECBAgQIECAAAECBGoTENBr27h5CRAgQIAAAQIECBAgQCCkgIAeci2aIkCAAAECBAgQIECAAIHaBAT02jZuXgIECBAgQIAAAQIECBAIKSCgh1yLpggQIECAAAECBAgQIECgNgEBvbaNm5cAAQIECBAgQIAAAQIEQgoI6CHXoikCBAgQIECAAAECBAgQqE1AQK9t4+YlQIAAAQIECBAgQIAAgZACAnrItWiKAAECBAgQIECAAAECBGoTENBr27h5CRAgQIAAAQIECBAgQCCkgIAeci2aIkCAAAECBAgQIECAAIHaBAT02jZuXgIECBAgQIAAAQIECBAIKSCgh1yLpggQIECAAAECBAgQIECgNgEBvbaNm5cAAQIECBAgQIAAAQIEQgqsC9mVpggQIDAAgRdffHEAV+n9Eq+88krasmVL7wUGcHLr1q0DuEpvl4i+37GxsTQ0NNTbcE6lyPfehQsXUvT7L7Kf25sAAQI1CwjoBbbvC1YBxKAl9u3blx599NGg3WkrV+DBBx9MTzzxRG6Zvp2fmppKMzMzfaufWzhyb81sn/zkJ9Pc3FzumH07Pzw8nBYWFvpWP6dw01vkx/j4eDp+/HjYFmdnZ9Mv//Ivh+1v9+7d6ejRo2H701i3Bfbv358OHTrU7SErnm55ebni6cuM7k/cyziqQoAAAQIECBAgQIAAAQIEsgQE9Cw+hwkQIECAAAECBAgQIECAQBkBAb2MoyoECBAgQIAAAQIECBAgQCBLQEDP4nOYAAECBAgQIECAAAECBAiUERDQyziqQoAAAQIECBAgQIAAAQIEsgQE9Cw+hwkQIECAAAECBAgQIECAQBkBAb2MoyoECBAgQIAAAQIECBAgQCBLQEDP4nOYAAECBAgQIECAAAECBAiUERDQyziqQoAAAQIECBAgQIAAAQIEsgQE9Cw+hwkQIECAAAECBAgQIECAQBkBAb2MoyoECBAgQIAAAQIECBAgQCBLQEDP4nOYAAECBAgQIECAAAECBAiUERDQyziqQoAAAQIECBAgQIAAAQIEsgQE9Cw+hwkQIECAAAECBAgQIECAQBkBAb2MoyoECBAgQIAAAQIECBAgQCBLQEDP4nOYAAECBAgQIECAAAECBAiUERDQyziqQoAAAQIECBAgQIAAAQIEsgQE9Cw+hwkQIECAAAECBAgQIECAQBkBAb2MoyoECBAgQIAAAQIECBAgQCBLQEDP4nOYAAECBAgQIECAAAECBAiUERDQyziqQoAAAQIECBAgQIAAAQIEsgQE9Cw+hwkQIECAAAECBAgQIECAQBkBAb2MoyoECBAgQIAAAQIECBAgQCBLQEDP4nOYAAECBAgQIECAAAECBAiUERDQyziqQoAAAQIECBAgQIAAAQIEsgQE9Cw+hwkQIECAAAECBAgQIECAQBkBAb2MoyoECBAgQIAAAQIECBAgQCBLQEDP4nOYAAECBAgQIECAAAECBAiUERDQyziqQoAAAQIECBAgQIAAAQIEsgQE9Cw+hwkQIECAAAECBAgQIECAQBkBAb2MoyoECBAgQIAAAQIECBAgQCBLQEDP4nOYAAECBAgQIECAAAECBAiUERDQyziqQoAAAQIECBAgQIAAAQIEsgQE9Cw+hwkQIECAAAECBAgQIECAQBkBAb2MoyoECBAgQIAAAQIECBAgQCBLQEDP4nOYAAECBAgQIECAAAECBAiUERDQyziqQoAAAQIECBAgQIAAAQIEsgQE9Cw+hwkQIECAAAECBAgQIECAQBmBdWXKqEKAAIH2Cbz55pvptttuC9v4+fPn065du8L29/3vfz+dPXs2bH8bNmwIvd8bbrghXXvttWH9Ijc2NzeX/v3f/z1si01vkd+7YeE0RoAAAQJJQHcTECBQrcCmTZvSt771rbDzHz16NO3evTtsf1NTU2l2djZsf6Ojo+nUqVNh+5ufn0/Dw8Nh+4ve2D333BO2xcnJyTQzMxO2P40RIECAQFwBf+Iedzc6I0CAAAECBAgQIECAAIGKBAT0ipZtVAIECBAgQIAAAQIECBCIKyCgx92NzggQIECAAAECBAgQIECgIgEBvaJlG5UAAQIECBAgQIAAAQIE4goI6HF3ozMCBAgQIECAAAECBAgQqEhAQK9o2UYlQIAAAQIECBAgQIAAgbgCAnrc3eiMAAECBAgQIECAAAECBCoSENArWrZRCRAgQIAAAQIECBAgQCCugIAedzc6I0CAAAECBAgQIECAAIGKBAT0ipZtVAIECBAgQIAAAQIECBCIKyCgx92NzggQIECAAAECBAgQIECgIgEBvaJlG5UAAQIECBAgQIAAAQIE4goI6HF3ozMCBAgQIECAAAECBAgQqEhAQK9o2UYlQIAAAQIECBAgQIAAgbgCAnrc3eiMAAECBAgQIECAAAECBCoSENArWrZRCRAgQIAAAQIECBAgQCCugIAedzc6I0CAAAECBAgQIECAAIGKBAT0ipZtVAIECBAgQIAAAQIECBCIKyCgx92NzggQIECAAAECBAgQIECgIgEBvaJlG5UAAQIECBAgQIAAAQIE4goI6HF3ozMCBAgQIECAAAECBAgQqEhAQK9o2UYlQIAAAQIECBAgQIAAgbgCAnrc3eiMAAECBAgQIECAAAECBCoSENArWrZRCRAgQIAAAQIECBAgQCCugIAedzc6I0CAAAECBAgQIECAAIGKBAT0ipZtVAIECBAgQIAAAQIECBCIKyCgx92NzggQIECAAAECBAgQIECgIgEBvaJlG5UAAQIECBAgQIAAAQIE4goI6HF3ozMCBAgQIECAAAECBAgQqEhAQK9o2UYlQIAAAQIECBAgQIAAgbgCAnrc3eiMAAECBAgQIECAAAECBCoSENArWrZRCRAgQIAAAQIECBAgQCCugIAedzc6I0CAAAECBAgQIECAAIGKBAT0ipZtVAIECBAgQIAAAQIECBCIKyCgx92NzggQIECAAAECBAgQIECgIgEBvaJlG5UAAQIECBAgQIAAAQIE4goI6HF3ozMCBAgQIECAAAECBAgQqEhAQK9o2UYlQIAAAQIECBAgQIAAgbgC6+K2pjMCBAj0X2Dv3r39v0iPV3j22WfTuXPnejzd/2OXLl1Kd999d/8v1OMVhoeH06/+6q/2eLr/x/76r/86XXfddf2/UA9XWFpaSuvXr+/h5GCOnD59OkV+7549ezY9+eSTg8Ho4So/+MEP0i/90i/1cHJwRyLvd3AKrkSAQI0CAnqNWzczAQI/Fjh8+HBoiT179qQvfelLYXucmJhIzRf9qI+TJ0+m8fHxqO2lkZGRtLCwELK/5pcbUXtrwJq9NvuN+pidnU1TU1NR2/txb5E/W6anp0P/AibsYjVGgEAnBPyJeyfWaAgCBAgQIECAAAECBAgQaLuAgN72DeqfAAECBAgQIECAAAECBDohIKB3Yo2GIECAAAECBAgQIECAAIG2Cwjobd+g/gkQIECAAAECBAgQIECgEwICeifWaAgCBAgQIECAAAECBAgQaLuAgN72DeqfAAECBAgQIECAAAECBDohIKB3Yo2GIECAAAECBAgQIECAAIG2Cwjobd+g/gkQIECAAAECBAgQIECgEwICeifWaAgCBAgQIECAAAECBAgQaLuAgN72DeqfAAECBAgQIECAAAECBDohIKB3Yo2GIECAAAECBAgQIECAAIG2Cwjobd+g/gkQIECAAAECBAgQIECgEwICeifWaAgCBAgQIECAAAECBAgQaLuAgN72DeqfAAECBAgQIECAAAECBDohIKB3Yo2GIECAAAECBAgQIECAAIG2Cwjobd+g/gkQIECAAAECBAgQIECgEwICeifWaAgCBAgQIECAAAECBAgQaLuAgN72DeqfAAECBAgQIECAAAECBDohIKB3Yo2GIECAAAECBAgQIECAAIG2Cwjobd+g/gkQIECAAAECBAgQIECgEwICeifWaAgCBAgQIECAAAECBAgQaLuAgN72DeqfAAECBAgQIECAAAECBDohIKB3Yo2GIECAAAECBAgQIECAAIG2Cwjobd+g/gkQIECAAAECBAgQIECgEwICeifWaAgCBAgQIECAAAECBAgQaLuAgN72DeqfAAECBAgQIECAAAECBDohIKB3Yo2GIECAAAECBAgQIECAAIG2Cwjobd+g/gkQIECAAAECBAgQIECgEwICeifWaAgCBAgQIECAAAECBAgQaLuAgN72DeqfAAECBAgQIECAAAECBDohIKB3Yo2GIECAAAECBAgQIECAAIG2Cwjobd+g/gkQIECAAAECBAgQIECgEwICeifWaAgCBAgQIECAAAECBAgQaLuAgN72DeqfAAECBAgQIECAAAECBDohIKB3Yo2GIECAAAECBAgQIECAAIG2Cwjobd+g/gkQIECAAAECBAgQIECgEwICeifWaAgCBAgQIECAAAECBAgQaLuAgN72DeqfAAECBAgQIECAAAECBDohsK4TU6zxEPv27VvjDlyeAIEuCtx6662p+Rf18cMf/jD92q/9WtT2wvf12c9+NmyPi4uL6dVXXw3b39LSUjp06FDY/l544YW0ffv2sP299tproft7/fXXw9pprIyA785lHFXppoCAXmCvjz76aIEqShAgQOD/FfDZ0u07IvJ+FxYW0sjISNgFjI6Opv3794ftb2JiIp04cSJsf1NTU+nZZ58N29/09HTY3jSWLxD5sy9/OhUI5Av4E/d8QxUIECBAgAABAgQIECBAgEC2gICeTagAAQIECBAgQIAAAQIECBDIFxDQ8w1VIECAAAECBAgQIECAAAEC2QICejahAgQIECBAgAABAgQIECBAIF9AQM83VIEAAQIECBAgQIAAAQIECGQLCOjZhAoQIECAAAECBAgQIECAAIF8AQE931AFAgQIECBAgAABAgQIECCQLSCgZxMqQIAAAQIECBAgQIAAAQIE8gUE9HxDFQgQIECAAAECBAgQIECAQLaAgJ5NqAABAgQIECBAgAABAgQIEMgXENDzDVUgQIAAAQIECBAgQIAAAQLZAgJ6NqECBAgQIECAAAECBAgQIEAgX0BAzzdUgQABAgQIECBAgAABAgQIZAsI6NmEChAgQIAAAQIECBAgQIAAgXwBAT3fUAUCBAgQIECAAAECBAgQIJAtIKBnEypAgAABAgQIECBAgAABAgTyBQT0fEMVCBAgQIAAAQIECBAgQIBAtoCAnk2oAAECBAgQIECAAAECBAgQyBcQ0PMNVSBAgAABAgQIECBAgAABAtkCAno2oQIECBAgQIAAAQIECBAgQCBfQEDPN1SBAAECBAgQIECAAAECBAhkCwjo2YQKECBAgAABAgQIECBAgACBfAEBPd9QBQIECBAgQIAAAQIECBAgkC0goGcTKkCAAAECBAgQIECAAAECBPIFBPR8QxUIECBAgAABAgQIECBAgEC2gICeTagAAQIECBAgQIAAAQIECBDIFxDQ8w1VIECAAAECBAgQIECAAAEC2QICejahAgQIECBAgAABAgQIECBAIF9AQM83VIEAAQIECBAgQIAAAQIECGQLCOjZhAoQIECAAAECBAgQIECAAIF8AQE931AFAgQIECBAgAABAgQIECCQLSCgZxMqQIAAAQIECBAgQIAAAQIE8gUE9HxDFQgQIECAAAECBAgQIECAQLaAgJ5NqAABAgQIECBAgAABAgQIEMgXENDzDVUgQIAAAQIECBAgQIAAAQLZAgJ6NqECBAgQIECAAAECBAgQIEAgX0BAzzdUgQABAgQIECBAgAABAgQIZAsI6NmEChAgQIAAAQIECBAgQIAAgXyBdfkl+lvh3Llz6atf/Wp/L6I6gZYKvPTSSy3tPEbbDzzwQIxG3qOLu+66K+3evfs9nl37/xzd77Of/WwaHx9fe6j36CCy38WLF9PBgwffo/O1/8+vv/56+o//+I+1b+Q9Ojh//nxov+985ztp586d79H92v/nU6dOrX0TLe7gmWeeSRs3bmzxBFon0D+Bdevixt8m9zaPoeUrj6Ghof4pqEyAQLUCVz5eQs9+3333pSeeeCJsj0ePHg0d0KemptLs7GxYv5MnT4YO6CMjI2lhYSGk3/DwcJqfnw/ZW9PU3Nxc2rx5c9j+Jicn08zMTNj+jh07lvbs2RO2v+np6XT48OGw/TWN+e4cej2aI9BKgeYXa2fPnk3+xL2V69M0AQIECBAgQIAAAQIECHRNQEDv2kbNQ4AAAQIECBAgQIAAAQKtFBDQW7k2TRMgQIAAAQIECBAgQIBA1wQE9K5t1DwECBAgQIAAAQIECBAg0EoBAb2Va9M0AQIECBAgQIAAAQIECHRNQEDv2kbNQ4AAAQIECBAgQIAAAQKtFBDQW7k2TRMgQIAAAQIECBAgQIBA1wQE9K5t1DwECBAgQIAAAQIECBAg0EoBAb2Va9M0AQIECBAgQIAAAQIECHRNQEDv2kbNQ4AAAQIECBAgQIAAAQKtFBDQW7k2TRMgQIAAAQIECBAgQIBA1wQE9K5t1DwECBAgQIAAAQIECBAg0EoBAb2Va9M0AQIECBAgQIAAAQIECHRNQEDv2kbNQ4AAAQIECBAgQIAAAQKtFBDQW7k2TRMgQIAAAQIECBAgQIBA1wQE9K5t1DwECBAgQIAAAQIECBAg0EoBAb2Va9M0AQIECBAgQIAAAQIECHRNQEDv2kbNQ4AAAQIECBAgQIAAAQKtFBDQW7k2TRMgQIAAAQIECBAgQIBA1wQE9K5t1DwECBAgQIAAAQIECBAg0EoBAb2Va9M0AQIECBAgQIAAAQIECHRNQEDv2kbNQ4AAAQIECBAgQIAAAQKtFBDQW7k2TRMgQIAAAQIECBAgQIBA1wQE9K5t1DwECBAgQIAAAQIECBAg0EoBAb2Va9M0AQIECBAgQIAAAQIECHRNQEDv2kbNQ4AAAQIECBAgQIAAAQKtFBDQW7k2TRMgQIAAAQIECBAgQIBA1wQE9K5t1DwECBAgQIAAAQIECBAg0EoBAb2Va9M0AQIECBAgQIAAAQIECHRNQEDv2kbNQ4AAAQIECBAgQIAAAQKtFBDQW7k2TRMgQIAAAQIECBAgQIBA1wQE9K5t1DwECBAgQIAAAQIECBAg0EoBAb2Va9M0AQIECBAgQIAAAQIECHRNQEDv2kbNQ4AAAQIECBAgQIAAAQKtFBDQW7k2TRMgQIAAAQIECBAgQIBA1wQE9K5t1DwECBAgQIAAAQIECBAg0EoBAb2Va9M0AQIECBAgQIAAAQIECHRNQEDv2kbNQ4AAAQIECBAgQIAAAQKtFFjXdL28vNzK5jVNgACBHIE777wzNf88ehP4zGc+k5p/Hr0JfPnLX+7t4ABOXbx4Mf3e7/3eAK7U2yXefPPNtGPHjt4OO5VmZmZC+73xxhvht+S7c/gVaZBAawWGrnzASOetXZ/GCRAgQIBAeYGFhYU0MjJSvnChiqOjo+nUqVOFqpUvMzk5+eMQHPVx7NixtGfPnqjtpenp6XT48OGw/WmMAAEC/RTwJ+791FWbAAECBAgQIECAAAECBAisUkBAXyWUlxEgQIAAAQIECBAgQIAAgX4KCOj91FWbAAECBAgQIECAAAECBAisUkBAXyWUlxEgQIAAAQIECBAgQIAAgX4KCOj91FWbAAECBAgQIECAAAECBAisUkBAXyWUlxEgQIAAAQIECBAgQIAAgX4KCOj91FWbAAECBAgQIECAAAECBAisUkBAXyWUlxEgQIAAAQIECBAgQIAAgX4KCOj91FWbAAECBAgQIECAAAECBAisUkBAXyWUlxEgQIAAAQIECBAgQIAAgX4KCOj91FWbAAECBAgQIECAAAECBAisUkBAXyWUlxEgQIAAAQIECBAgQIAAgX4KCOj91FWbAAECBAgQIECAAAECBAisUkBAXyWUlxEgQIAAAQIECBAgQIAAgX4KCOj91FWbAAECBAgQIECAAAECBAisUkBAXyWUlxEgQIAAAQIECBAgQIAAgX4KCOj91FWbAAECBAgQIECAAAECBAisUkBAXyWUlxEgQIAAAQIECBAgQIAAgX4KCOj91FWbAAECBAgQIECAAAECBAisUkBAXyWUlxEgQIAAAQIECBAgQIAAgX4KCOj91FWbAAECBAgQIECAAAECBAisUkBAXyWUlxEgQIAAAQIECBAgQIAAgX4KCOj91FWbAAECBAgQIECAAAECBAisUkBAXyWUlxEgQIAAAQIECBAgQIAAgX4KCOj91FWbAAECBAgQIECAAAECBAisUkBAXyWUlxEgQIAAAQIECBAgQIAAgX4KCOj91FWbAAECBAgQIECAAAECBAisUkBAXyWUlxEgQIAAAQIECBAgQIAAgX4KCOj91FWbAAECBAgQIECAAAECBAisUkBAXyWUlxEgQIAAAQIECBAgQIAAgX4KCOj91FWbAAECBAgQIECAAAECBAisUkBAXyWUlxEgQIDAc/RXAAAgAElEQVQAAQIECBAgQIAAgX4KCOj91FWbAAECBAgQIECAAAECBAisUkBAXyWUlxEgQIAAAQIECBAgQIAAgX4KCOj91FWbAAECBAgQIECAAAECBAisUkBAXyWUlxEgQIAAAQIECBAgQIAAgX4KCOj91FWbAAECBAgQIECAAAECBAisUkBAXyWUlxEgQIAAAQIECBAgQIAAgX4KrOtncbXXXuDpp59Ojz/++No3skIHhw8fXuFZT60k8MADD6SXX355pZes6XN33nlnOnDgwJr24OL1Ctx3332hh3/sscfS8PBw2B4jfzafOXMmfehDHwprF72xmZmZtG3btrBt/ud//mfY3jTWfYHoPzvefPPNtGnTprCL+IM/+IO0devWsP21oTEBvQ1byuzxiSeeyKzQv+N79+7tX/FKKkfebxPQPQislcBzzz2X5ubm1uryV71uE9CjPppfHExPT0dtT1+ZAlNTU+nzn/98ZpX+HXfv9c9W5asLXL58OR05cuTqL1yjV9x2223pW9/61hpd/eqXbQK6R56AP3HP83OaAAECBAgQIECAAAECBAgUERDQizAqQoAAAQIECBAgQIAAAQIE8gQE9Dw/pwkQIECAAAECBAgQIECAQBEBAb0IoyIECBAgQIAAAQIECBAgQCBPQEDP83OaAAECBAgQIECAAAECBAgUERDQizAqQoAAAQIECBAgQIAAAQIE8gQE9Dw/pwkQIECAAAECBAgQIECAQBEBAb0IoyIECBAgQIAAAQIECBAgQCBPQEDP83OaAAECBAgQIECAAAECBAgUERDQizAqQoAAAQIECBAgQIAAAQIE8gQE9Dw/pwkQIECAAAECBAgQIECAQBEBAb0IoyIECBAgQIAAAQIECBAgQCBPQEDP83OaAAECBAgQIECAAAECBAgUERDQizAqQoAAAQIECBAgQIAAAQIE8gQE9Dw/pwkQIECAAAECBAgQIECAQBEBAb0IoyIECBAgQIAAAQIECBAgQCBPQEDP83OaAAECBAgQIECAAAECBAgUERDQizAqQoAAAQIECBAgQIAAAQIE8gQE9Dw/pwkQIECAAAECBAgQIECAQBEBAb0IoyIECBAgQIAAAQIECBAgQCBPQEDP83OaAAECBAgQIECAAAECBAgUERDQizAqQoAAAQIECBAgQIAAAQIE8gQE9Dw/pwkQIECAAAECBAgQIECAQBEBAb0IoyIECBAgQIAAAQIECBAgQCBPQEDP83OaAAECBAgQIECAAAECBAgUERDQizAqQoAAAQIECBAgQIAAAQIE8gQE9Dw/pwkQIECAAAECBAgQIECAQBEBAb0IoyIECBAgQIAAAQIECBAgQCBPQEDP83OaAAECBAgQIECAAAECBAgUERDQizAqQoAAAQIECBAgQIAAAQIE8gQE9Dw/pwkQIECAAAECBAgQIECAQBEBAb0IoyIECBAgQIAAAQIECBAgQCBPQEDP83OaAAECBAgQIECAAAECBAgUERDQizAqQoAAAQIECBAgQIAAAQIE8gQE9Dw/pwkQIECAAAECBAgQIECAQBEBAb0IoyIECBAgQIAAAQIECBAgQCBPQEDP83OaAAECBAgQIECAAAECBAgUERDQizAqQoAAAQIECBAgQIAAAQIE8gSGFhcXlz/5yU/mVenj6aWlpbR+/fo+XiGv9Pnz59MNN9yQV6SPp8+cOZP+5E/+pI9XyC+9e/fu/CJ9qnDo0KH09a9/vU/V88t++MMfTp/+9KfzC/Wpwp//+Z+nhYWFPlXPL/uZz3wmTU9P5xdSIaTAsWPHQvb106YefPDB9L73vS9kj5cvXw7b20/Bjh49GtKuaWp2djbdf//9YfuL/t3gn/7pn35sGPUxMTGRHn744ajthe9r//796dVXXw3b5+233562b98etr/f/d3fTRs2bAjb38WLF9OmTZvC9vf444+nsbGxsP01ja1r/ifyl5hmwW+++WZYxC1btqTnn38+bH+7du1KkQNwWLj/q7HI74+DBw+G3u/f/d3fpUceeSTsmpuA7tFdgeiffffee2/YX2ANDw+H7a25Y8fHx8PfuJF/djTvjcjvj9OnT6c//dM/DbvjJqB75AlEfn/89m//duj3R/P59/TTT+ctoI+nm2wUeb99HL1YaX/iXoxSIQIECBAgQIAAAQIECBAg0LuAgN67nZMECBAgQIAAAQIECBAgQKCYgIBejFIhAgQIECBAgAABAgQIECDQu4CA3rudkwQIECBAgAABAgQIECBAoJiAgF6MUiECBAgQIECAAAECBAgQINC7gIDeu52TBAgQIECAAAECBAgQIECgmICAXoxSIQIECBAgQIAAAQIECBAg0LuAgN67nZMECBAgQIAAAQIECBAgQKCYgIBejFIhAgQIECBAgAABAgQIECDQu4CA3rudkwQIECBAgAABAgQIECBAoJiAgF6MUiECBAgQIECAAAECBAgQINC7gIDeu52TBAgQIECAAAECBAgQIECgmICAXoxSIQIECBAgQIAAAQIECBAg0LuAgN67nZMECBAgQIAAAQIECBAgQKCYgIBejFIhAgQIECBAgAABAgQIECDQu4CA3rudkwQIECBAgAABAgQIECBAoJiAgF6MUiECBAgQIECAAAECBAgQINC7gIDeu52TBAgQIECAAAECBAgQIECgmICAXoxSIQIECBAgQIAAAQIECBAg0LuAgN67nZMECBAgQIAAAQIECBAgQKCYgIBejFIhAgQIECBAgAABAgQIECDQu4CA3rudkwQIECBAgAABAgQIECBAoJiAgF6MUiECBAgQIECAAAECBAgQINC7gIDeu52TBAgQIECAAAECBAgQIECgmICAXoxSIQIECBAgQIAAAQIECBAg0LuAgN67nZMECBAgQIAAAQIECBAgQKCYgIBejFIhAgQIECBAgAABAgQIECDQu4CA3rudkwQIECBAgAABAgQIECBAoJiAgF6MUiECBAgQIECAAAECBAgQINC7gIDeu52TBAgQIECAAAECBAgQIECgmICAXoxSIQIECBAgQIAAAQIECBAg0LuAgN67nZMECBAgQIAAAQIECBAgQKCYgIBejFIhAgQIECBAgAABAgQIECDQu4CA3rudkwQIECBAgAABAgQIECBAoJiAgF6MUiECBAgQIECAAAECBAgQINC7gIDeu52TBAgQIECAAAECBAgQIECgmICAXoxSIQIECBAgQIAAAQIECBAg0LuAgN67nZMECBAgQIAAAQIECBAgQKCYwNDbb7+9fOeddxYrWLrQpUuX0pEjR0qXLVbvm9/8ZvrqV79arF7pQhs2bEj//M//XLpssXpPPvlk+rM/+7Ni9UoX+vjHP57+6I/+qHTZYvUee+yx9P3vf79YvX4UWlhY6EfZIjU//elPp89//vNFavWjyJ49e9Lp06f7UbpIzWa3w8PDRWr1o8jf/M3fpPHx8X6ULlLzF37hF4rU6UeRd999N/3lX/5lP0oXqzk5OVmsVulCs7OzpUsWrfe9730v/cVf/EXRmiWLXb58OS0tLZUsWbRW5M+9ZtBPfepT6eDBg0VnLlks+vvj/vvvD/+zt+Q+Stc6f/58uuGGG0qXLVov8nv4u9/9blq3fv36dOLEiaJDlyw2NjaWIv8Qft/73hc6wO3atavkOvpSK/IH9V133RX6/rv55ptTZL8dO3aE7u9jH/tYX+7pkkUj73diYiL0fkvuoR+15ubmUtRfYDVfXiL/7O3HPkrWjG7X/OIv8mfLtm3b0osvvlhyJUVrNT/bnnnmmaI1SxZrAnrkR/T3x4033piOHTsWlvC2225L//qv/xq2vy1btoTOlps2bQrdX7NYf+Ie9vbWGAECBAgQIECAAAECBAjUJCCg17RtsxIgQIAAAQIECBAgQIBAWAEBPexqNEaAAAECBAgQIECAAAECNQkI6DVt26wECBAgQIAAAQIECBAgEFZAQA+7Go0RIECAAAECBAgQIECAQE0CAnpN2zYrAQIECBAgQIAAAQIECIQVENDDrkZjBAgQIECAAAECBAgQIFCTgIBe07bNSoAAAQIECBAgQIAAAQJhBQT0sKvRGAECBAgQIECAAAECBAjUJCCg17RtsxIgQIAAAQIECBAgQIBAWAEBPexqNEaAAAECBAgQIECAAAECNQkI6DVt26wECBAgQIAAAQIECBAgEFZAQA+7Go0RIECAAAECBAgQIECAQE0CAnpN2zYrAQIECBAgQIAAAQIECIQVENDDrkZjBAgQIECAAAECBAgQIFCTgIBe07bNSoAAAQIECBAgQIAAAQJhBQT0sKvRGAECBAgQIECAAAECBAjUJCCg17RtsxIgQIAAAQIECBAgQIBAWAEBPexqNEaAAAECBAgQIECAAAECNQkI6DVt26wECBAgQIAAAQIECBAgEFZAQA+7Go0RIECAAAECBAgQIECAQE0CAnpN2zYrAQIECBAgQIAAAQIECIQVENDDrkZjBAgQIECAAAECBAgQIFCTgIBe07bNSoAAAQIECBAgQIAAAQJhBQT0sKvRGAECBAgQIECAAAECBAjUJCCg17RtsxIgQIAAAQIECBAgQIBAWAEBPexqNEaAAAECBAgQIECAAAECNQkI6DVt26wECBAgQIAAAQIECBAgEFZAQA+7Go0RIECAAAECBAgQIECAQE0CAnpN2zYrAQIECBAgQIAAAQIECIQVENDDrkZjBAgQIECAAAECBAgQIFCTgIBe07bNSoAAAQIECBAgQIAAAQJhBQT0sKvRGAECBAgQIECAAAECBAjUJCCg17RtsxIgQIAAAQIECBAgQIBAWAEBPexqNEaAAAECBAgQIECAAAECNQkI6DVt26wECBAgQIAAAQIECBAgEFZAQA+7Go0RIECAAAECBAgQIECAQE0CAnpN2zYrAQIECBAgQIAAAQIECIQVWLe0tJRGR0fDNri8vBy2t6axG2+8MZ08eTJ0j5GbO336dOj774UXXkibN28OS3jvvfeGvv9OnToVer8HDhxI999/f9j9fulLX0qPPfZY2P52794der933HFHWr9+fVi/2dnZdP3114fs78KFC6E/+xq0yD97m902n89RHx/84AdDv3c/8IEPhN5v9J9tUe+7tvT14IMPpuZf1Mdv/MZvhH7/Li4uhu7v4sWLoftrsvm65stL80ET9TE2Nha1tR/3NT4+Hrq/6M3ddNNNoe+/W2+9Nc3NzYVlbL5kRb4HI/fWLHVkZCT0fj/84Q+H3m/j9/LLL4d9fzS/fI78/r3lllvS8PBwSL+FhYXQdtE/W5qlRr73pqamQv/s3blzZ+jPvjbcfyE/WFrSVPT9Nt/9mv8DKepjy5Yt6ZVXXonaXtq0aVPoz78mm/sT97C3j8YIECBAgAABAgQIECBAoCYBAb2mbZuVAAECBAgQIECAAAECBMIKCOhhV6MxAgQIECBAgAABAgQIEKhJQECvadtmJUCAAAECBAgQIECAAIGwAgJ62NVojAABAgQIECBAgAABAgRqEhDQa9q2WQkQIECAAAECBAgQIEAgrICAHnY1GiNAgAABAgQIECBAgACBmgQE9Jq2bVYCBAgQIECAAAECBAgQCCsgoIddjcYIECBAgAABAgQIECBAoCYBAb2mbZuVAAECBAgQIECAAAECBMIKCOhhV6MxAgQIECBAgAABAgQIEKhJQECvadtmJUCAAAECBAgQIECAAIGwAgJ62NVojAABAgQIECBAgAABAgRqEhDQa9q2WQkQIECAAAECBAgQIEAgrICAHnY1GiNAgAABAgQIECBAgACBmgQE9Jq2bVYCBAgQIECAAAECBAgQCCsgoIddjcYIECBAgAABAgQIECBAoCYBAb2mbZuVAAECBAgQIECAAAECBMIKCOhhV6MxAgQIECBAgAABAgQIEKhJQECvadtmJUCAAAECBAgQIECAAIGwAgJ62NVojAABAgQIECBAgAABAgRqEhDQa9q2WQkQIECAAAECBAgQIEAgrICAHnY1GiNAgAABAgQIECBAgACBmgQE9Jq2bVYCBAgQIECAAAECBAgQCCsgoIddjcYIECBAgAABAgQIECBAoCYBAb2mbZuVAAECBAgQIECAAAECBMIKCOhhV6MxAgQIECBAgAABAgQIEKhJQECvadtmJUCAAAECBAgQIECAAIGwAgJ62NVojAABAgQIECBAgAABAgRqEhDQa9q2WQkQIECAAAECBAgQIEAgrICAHnY1GiNAgAABAgQIECBAgACBmgQE9Jq2bVYCBAgQIECAAAECBAgQCCsgoIddjcYIECBAgAABAgQIECBAoCYBAb2mbZuVAAECBAgQIECAAAECBMIKCOhhV6MxAgQIECBAgAABAgQIEKhJQECvadtmJUCAAAECBAgQIECAAIGwAgJ62NVojAABAgQIECBAgAABAgRqEhDQa9q2WQkQIECAAAECBAgQIEAgrMC6prP5+fmwDZ46dSqNjIyE7e/nf/7n0/Hjx8P2F72xd955Jw0PD4dt8+Mf/3j6h3/4h7D9ffnLXw79/mj6O3DgQFi/xx57LDX/PHoTePfdd0O/f6P3t7CwENYvcm/N3bq8vNzbTTugU4uLi2F32xDccMMNob/7Pfnkk6F/tt1+++3pX/7lXwZ0N/3sl/nDP/zDdPDgwZ/9oBOtEPjGN74Rus877rgj9Odf9O8GS0tLad369etDL/n6669PzRcFj24KXHfddaH329x/kX+BcO2114b2i37XRt5tdLumv2uuuSb0/bdx48bQ/UW+/5reIv/svemmm0K/Rd7//veH9mt+9ka+/6J/N2huvsjvj9BvDs1lC0R+7zbDrVu3LvT7Y8OGDaH7a7K5P3HPfpsoQIAAAQIECBAgQIAAAQIE8gUE9HxDFQgQIECAAAECBAgQIECAQLaAgJ5NqAABAgQIECBAgAABAgQIEMgXENDzDVUgQIAAAQIECBAgQIAAAQLZAgJ6NqECBAgQIECAAAECBAgQIEAgX0BAzzdUgQABAgQIECBAgAABAgQIZAsI6NmEChAgQIAAAQIECBAgQIAAgXwBAT3fUAUCBAgQIECAAAECBAgQIJAtIKBnEypAgAABAgQIECBAgAABAgTyBQT0fEMVCBAgQIAAAQIECBAgQIBAtoCAnk2oAAECBAgQIECAAAECBAgQyBcQ0PMNVSBAgAABAgQIECBAgAABAtkCAno2oQIECBAgQIAAAQIECBAgQCBfQEDPN1SBAAECBAgQIECAAAECBAhkCwjo2YQKECBAgAABAgQIECBAgACBfAEBPd9QBQIECBAgQIAAAQIECBAgkC0goGcTKkCAAAECBAgQIECAAAECBPIFBPR8QxUIECBAgAABAgQIECBAgEC2gICeTagAAQIECBAgQIAAAQIECBDIFxDQ8w1VIECAAAECBAgQIECAAAEC2QICejahAgQIECBAgAABAgQIECBAIF9AQM83VIEAAQIECBAgQIAAAQIECGQLCOjZhAoQIECAAAECBAgQIECAAIF8AQE931AFAgQIECBAgAABAgQIECCQLSCgZxMqQIAAAQIECBAgQIAAAQIE8gUE9HxDFQgQIECAAAECBAgQIECAQLaAgJ5NqAABAgQIECBAgAABAgQIEMgXENDzDVUgQIAAAQIECBAgQIAAAQLZAgJ6NqECBAgQIECAAAECBAgQIEAgX0BAzzdUgQABAgQIECBAgAABAgQIZAsI6NmEChAgQIAAAQIECBAgQIAAgXwBAT3fUAUCBAgQIECAAAECBAgQIJAtIKBnEypAgAABAgQIECBAgAABAgTyBQT0fEMVCBAgQIAAAQIECBAgQIBAtoCAnk2oAAECBAgQIECAAAECBAgQyBcQ0PMNVSBAgAABAgQIECBAgAABAtkCAno2oQIECBAgQIAAAQIECBAgQCBfYN3S0lK6fPlyfqU+Vbhw4UIaHh7uU/Xul11YWAg9ZHP/Rd7vpUuXUmTDixcvhvYLffO1oLnI917D17w/Ir9/33333dD9nTlzJuxd2Nx7kXe7vLwc+rN5cXExtF/YG+8njb3zzjuh/aJ/tjTfDSL//Ij++RK9v+ZtEvnzOfr7o/n5Edmv2e+65n9GRkbCflaPjY2l+fn5sP1Fb+z5559P99xzT9g29+7dG3q/hw4dCv3+OHjwYGi/sDdeSxq7995707Fjx8J2OzExEfpL4MaNG0P3F9mv+fIS+Wfv3Nxc6M/mycnJ0H5hP1R+0th1110X+r172223pWeffTYs4xe+8IXQ74/t27eH9rv77rtT8/056uOpp55Ku3btitpeuuaaa0K/f1955ZXU5MvID3/iHnk7eiNAgAABAgQIECBAgACBagQE9GpWbVACBAgQIECAAAECBAgQiCwgoEfejt4IECBAgAABAgQIECBAoBoBAb2aVRuUAAECBAgQIECAAAECBCILCOiRt6M3AgQIECBAgAABAgQIEKhGQECvZtUGJUCAAAECBAgQIECAAIHIAgJ65O3ojQABAgQIECBAgAABAgSqERDQq1m1QQkQIECAAAECBAgQIEAgsoCAHnk7eiNAgAABAgQIECBAgACBagQE9GpWbVACBAgQIECAAAECBAgQiCwgoEfejt4IECBAgAABAgQIECBAoBoBAb2aVRuUAAECBAgQIECAAAECBCILCOiRt6M3AgQIECBAgAABAgQIEKhGQECvZtUGJUCAAAECBAgQIECAAIHIAgJ65O3ojQABAgQIECBAgAABAgSqERDQq1m1QQkQIECAAAECBAgQIEAgsoCAHnk7eiNAgAABAgQIECBAgACBagQE9GpWbVACBAgQIECAAAECBAgQiCwgoEfejt4IECBAgAABAgQIECBAoBoBAb2aVRuUAAECBAgQIECAAAECBCILCOiRt6M3AgQIECBAgAABAgQIEKhGQECvZtUGJUCAAAECBAgQIECAAIHIAgJ65O3ojQABAgQIECBAgAABAgSqERDQq1m1QQkQIECAAAECBAgQIEAgsoCAHnk7eiNAgAABAgQIECBAgACBagQE9GpWbVACBAgQIECAAAECBAgQiCwgoEfejt4IECBAgAABAgQIECBAoBoBAb2aVRuUAAECBAgQIECAAAECBCILCOiRt6M3AgQIECBAgAABAgQIEKhGQECvZtUGJUCAAAECBAgQIECAAIHIAgJ65O3ojQABAgQIECBAgAABAgSqERDQq1m1QQkQIECAAAECBAgQIEAgsoCAHnk7eiNAgAABAgQIECBAgACBagQE9GpWbVACBAgQIECAAAECBAgQiCwgoEfejt4IECBAgAABAgQIECBAoBoBAb2aVRuUAAECBAgQIECAAAECBCILCOiRt6M3AgQIECBAgAABAgQIEKhGQECvZtUGJUCAAAECBAgQIECAAIHIAuuWlpbS6Oho2B4vXbqU5ubmwvbXNDY+Pq6/HgUWFhZC7/fs2bOh9/v222+H9jt16lToz5fo79/FxcXQfhcuXAjd3zvvvBO6v+Xl5bRx48YePz37e6zpLfLP3uazJfLP3ubei+wX/bMven/nz58Pvd/mu0Hk90f0/Ubv73/+539C33/N51/k+++NN95Ily9f7u8P0YzqH/nIR1K68gVw+UqNsP82bdoUtrfGbevWrVe+x3j0KnDkyJHQ+923b1+vow3k3Be/+MXQfjt27Ajd3+HDhweyp14vsnv37tB+ExMTofu78svn0P0NDw+H7S9yb83P3itf/np9Ww3k3MzMTNjdNn7NZ4tH7wIPP/xw6P023w08uiuwa9eu0Pff8ePHQ+OPjY2F9muyuT9xz/gNh6MECBAgQIAAAQIECBAgQKCUgIBeSlIdAgQIECBAgAABAgQIECCQISCgZ+A5SoAAAQIECBAgQIAAAQIESgkI6KUk1SFAgAABAgQIECBAgAABAhkCAnoGnqMECBAgQIAAAQIECBAgQKCUgIBeSlIdAgQIECBAgAABAgQIECCQISCgZ+A5SoAAAQIECBAgQIAAAQIESgkI6KUk1SFAgAABAgQIECBAgAABAhkCAnoGnqMECBAgQIAAAQIECBAgQKCUgIBeSlIdAgQIECBAgAABAgQIECCQISCgZ+A5SoAAAQIECBAgQIAAAQIESgkI6KUk1SFAgAABAgQIECBAgAABAhkCAnoGnqMECBAgQIAAAQIECBAgQKCUgIBeSlIdAgQIECBAgAABAgQIECCQISCgZ+A5SoAAAQIECBAgQIAAAQIESgkI6KUk1SFAgAABAgQIECBAgAABAhkCAnoGnqMECBAgQIAAAQIECBAgQKCUgIBeSlIdAgQIECBAgAABAgQIECCQISCgZ+A5SoAAAQIECBAgQIAAAQIESgkI6KUk1SFAgAABAgQIECBAgAABAhkCAnoGnqMECBAgQIAAAQIECBAgQKCUgIBeSlIdAgQIECBAgAABAgQIECCQISCgZ+A5SoAAAQIECBAgQIAAAQIESgkI6KUk1SFAgAABAgQIECBAgAABAhkCAnoGnqMECBAgQIAAAQIECBAgQKCUgIBeSlIdAgQIECBAgAABAgQIECCQISCgZ+A5SoAAAQIECBAgQIAAAQIESgkI6KUk1SFAgAABAgQIECBAgAABAhkCAnoGnqMECBAgQIAAAQIECBAgQKCUgIBeSlIdAgQIECBAgAABAgQIECCQISCgZ+A5SoAAAQIECBAgQIAAAQIESgkI6KUk1SFAgAABAgQIECBAgAABAhkCAnoGnqMECBAgQIAAAQIECBAgQKCUgIBeSlIdAgQIECBAgAABAgQIECCQISCgZ+A5SoAAAQIECBAgQIAAAQIESgkI6KUk1SFAgAABAgQIECBAgAABAhkCAnoGnqMECBAgQIAAAQIECBAgQKCUgIBeSlIdAgQIECBAgAABAgQIECCQIbBuaWkpTUxMZJTo79FLly6lycnJ/l6kwwo/6bMAACAASURBVNVnZ2dDT/fcc8+Fvv9++MMfhvZrmov8/vjRj34Uer/f/e53Q/f3v//7v6H3+9Zbb4X2u3DhQuj+rrvuurRu3bqQnzHvvvtuuuYav8PPWU7kz+bmsyX694PIftF/9v7Xf/1X6P2eOHEi9Gdz9P2eP38+tN8rr7yStm7dmvPx2dezH/nIR1LzL/RjcXFx+UqDYf+NjY0te/Qu8NRTT4XdbXPf3X333aH727dvX+/4Ti4fOHAg9H63bdsWur+jR4+GvouufIEO7Tc6Ohq6v/n5+dD71Vx3BZrPlsjf/aanp7uLP4DJDh48GHq/27dvD93fkSNHBrCl3i+xa9eu0H7Hjx/vfTgnfyzg1+Ohf32iOQIECBAgQIAAAQIECBCoRUBAr2XT5iRAgAABAgQIECBAgACB0AICeuj1aI4AAQIECBAgQIAAAQIEahEQ0GvZtDkJECBAgAABAgQIECBAILSAgB56PZojQIAAAQIECBAgQIAAgVoEBPRaNm1OAgQIECBAgAABAgQIEAgtIKCHXo/mCBAgQIAAAQIECBAgQKAWAQG9lk2bkwABAgQIECBAgAABAgRCCwjoodejOQIECBAgQIAAAQIECBCoRUBAr2XT5iRAgAABAgQIECBAgACB0AICeuj1aI4AAQIECBAgQIAAAQIEahEQ0GvZtDkJECBAgAABAgQIECBAILSAgB56PZojQIAAAQIECBAgQIAAgVoEBPRaNm1OAgQIECBAgAABAgQIEAgtIKCHXo/mCBAgQIAAAQIECBAgQKAWAQG9lk2bkwABAgQIECBAgAABAgRCCwjoodejOQIECBAgQIAAAQIECBCoRUBAr2XT5iRAgAABAgQIECBAgACB0AICeuj1aI4AAQIECBAgQIAAAQIEahEQ0GvZtDkJECBAgAABAgQIECBAILSAgB56PZojQIAAAQIECBAgQIAAgVoEBPRaNm1OAgQIECBAgAABAgQIEAgtIKCHXo/mCBAgQIAAAQIECBAgQKAWAQG9lk2bkwABAgQIECBAgAABAgRCCwjoodejOQIECBAgQIAAAQIECBCoRUBAr2XT5iRAgAABAgQIECBAgACB0AICeuj1aI4AAQIECBAgQIAAAQIEahEQ0GvZtDkJECBAgAABAgQIECBAILSAgB56PZojQIAAAQIECBAgQIAAgVoEBPRaNm1OAgQIECBAgAABAgQIEAgtIKCHXo/mCBAgQIAAAQIECBAgQKAWAQG9lk2bkwABAgQIECBAgAABAgRCCwjoodejOQIECBAgQIAAAQIECBCoRUBAr2XT5iRAgAABAgQIECBAgACB0AICeuj1aI4AAQIECBAgQIAAAQIEahEQ0GvZtDkJECBAgAABAgQIECBAILSAgB56PZojQIAAAQIECBAgQIAAgVoEBPRaNm1OAgQIECBAgAABAgQIEAgtsG5paSlNTU2FbjJycy+++GL67//+77AtHj9+PO3evTtsf6+99lro+292djYdO3YsrN/MzExovxdeeCF0f+fOnQv9/gh74/2ksaGhodD7nZ+fTzfffHNYxr//+79PGzZsCNtf5J8dc3Nz6cSJE2HtXn311XTrrbeG7e+v/uqvQr93X3rpJT97M+6e73znO6H3G/273w9+8IO0d+/ejA3092jz3SVydvva174WOhudOXMmfehDH+rvkjKq79ixI6XFxcXlKzXC/hsbG1uO/LgSgMPaNXvdtWtXZL7lI0eOhPbbvn176P527twZur8rHzKh+zt8+HDo90f05iYnJ0Pvd3R0NHR/w8PDYftreov8OHnyZFi75mfvxMRE6P6ufLkP3d+2bdtC9xf9Z1v0/qJ/t2q+m0Z+NN/tI2e3LVu2hO5v06ZNoftrsrk/cc/4DYejBAgQIECAAAECBAgQIECglICAXkpSHQIECBAgQIAAAQIECBAgkCEgoGfgOUqAAAECBAgQIECAAAECBEoJCOilJNUhQIAAAQIECBAgQIAAAQIZAgJ6Bp6jBAgQIECAAAECBAgQIECglICAXkpSHQIECBAgQIAAAQIECBAgkCEgoGfgOUqAAAECBAgQIECAAAECBEoJCOilJNUhQIAAAQIECBAgQIAAAQIZAgJ6Bp6jBAgQIECAAAECBAgQIECglICAXkpSHQIECBAgQIAAAQIECBAgkCEgoGfgOUqAAAECBAgQIECAAAECBEoJCOilJNUhQIAAAQIECBAgQIAAAQIZAgJ6Bp6jBAgQIECAAAECBAgQIECglICAXkpSHQIECBAgQIAAAQIECBAgkCEgoGfgOUqAAAECBAgQIECAAAECBEoJCOilJNUhQIAAAQIECBAgQIAAAQIZAgJ6Bp6jBAgQIECAAAECBAgQIECglICAXkpSHQIECBAgQIAAAQIECBAgkCEgoGfgOUqAAAECBAgQIECAAAECBEoJCOilJNUhQIAAAQIECBAgQIAAAQIZAgJ6Bp6jBAgQIECAAAECBAgQIECglICAXkpSHQIECBAgQIAAAQIECBAgkCEgoGfgOUqAAAECBAgQIECAAAECBEoJCOilJNUhQIAAAQIECBAgQIAAAQIZAgJ6Bp6jBAgQIECAAAECBAgQIECglICAXkpSHQIECBAgQIAAAQIECBAgkCEgoGfgOUqAAAECBAgQIECAAAECBEoJCOilJNUhQIAAAQIECBAgQIAAAQIZAgJ6Bp6jBAgQIECAAAECBAgQIECglICAXkpSHQIECBAgQIAAAQIECBAgkCEgoGfgOUqAAAECBAgQIECAAAECBEoJCOilJNUhQIAAAQIECBAgQIAAAQIZAgJ6Bp6jBAgQIECAAAECBAgQIECglICAXkpSHQIECBAgQIAAAQIECBAgkCEgoGfgOUqAAAECBAgQIECAAAECBEoJCOilJNUhQIAAAQIECBAgQIAAAQIZAgJ6Bp6jBAgQIECAAAECBAgQIECglICAXkpSHQIECBAgQIAAAQIECBAgkCEwtLi4uPxbv/VbGSX6f/Tw4cP9v0iPV3jxxRfTgw8+2OPpwRyL7Pfkk0+mr3/964OB6OEqr7/+evroRz/aw8nBHDl16lQaHR0dzMV6uMobb7yRxsbGejg5mCM33nhj2rZt22Au1sNVbrrpprR79+4eTg7myH333TeYC/V4lZdffjmtX7++x9P9P3bzzTeH7e/SpUvpU5/6VP8RerzCmTNn0ve+970eT/f/2FtvvZV+7ud+rv8X6vEKL730UhoZGenxdP+PnT59Ov3Kr/xK/y/U4xWi/2yL3t/s7Gzo98cdd9yRHnrooR7vjv4f+8QnPtH/i2Rc4Zprrknj4+MZFfp7dGFhIQ0PD/f3IhnVH3/88TS0fOWRUcNRAgQItFagCZhPPPFE2P6PHj0aOqCHhftJY5s3b05zc3Nh25yfnw/7JaH5AhM5wDVf/k6ePBl2t9EbO3bsWNqzZ0/YNqenp1Pk/3MhLFxLGtu/f386dOhQ2G6PHDmS9u7dG7a/e+65Jz399NNh+zt+/HjaunVr2P7a0Jg/cW/DlvRIgAABAgQIECBAgAABAp0XENA7v2IDEiBAgAABAgQIECBAgEAbBAT0NmxJjwQIECBAgAABAgQIECDQeQEBvfMrNiABAgQIECBAgAABAgQItEFAQG/DlvRIgAABAgQIECBAgAABAp0XENA7v2IDEiBAgAABAgQIECBAgEAbBAT0NmxJjwQIECBAgAABAgQIECDQeQEBvfMrNiABAgQIECBAgAABAgQItEFAQG/DlvRIgAABAgQIECBAgAABAp0XENA7v2IDEiBAgAABAgQIECBAgEAbBAT0NmxJjwQIECBAgAABAgQIECDQeQEBvfMrNiABAgQIECBAgAABAgQItEFAQG/DlvRIgAABAgQIECBAgAABAp0XENA7v2IDEiBAgAABAgQIECBAgEAbBAT0NmxJjwQIECBAgAABAgQIECDQeQEBvfMrNiABAgQIECBAgAABAgQItEFAQG/DlvRIgAABAgQIECBAgAABAp0XENA7v2IDEiBAgAABAgQIECBAgEAbBAT0NmxJjwQIECBAgAABAgQIECDQeQEBvfMrNiABAgQIECBAgAABAgQItEFAQG/DlvRIgAABAgQIECBAgAABAp0XENA7v2IDEiBAgAABAgQIECBAgEAbBAT0NmxJjwQIECBAgAABAgQIECDQeQEBvfMrNiABAgQIECBAgAABAgQItEFAQG/DlvRIgAABAgQIECBAgAABAp0XENA7v2IDEiBAgAABAgQIECBAgEAbBAT0NmxJjwQIECBAgAABAgQIECDQeQEBvfMrNiABAgQIECBAgAABAgQItEFAQG/DlvRIgAABAgQIECBAgAABAp0XENA7v2IDEiBAgAABAgQIECBAgEAbBAT0NmxJjwQIECBAgAABAgQIECDQeQEBvfMrNiABAgQIECBAgAABAgQItEFAQG/DlvRIgAABAgQIECBAgAABAp0XENA7v2IDEiBAgAABAgQIECBAgEAbBAT0NmxJjwQIECBAgAABAgQIECDQeQEBvfMrNiABAgQIECBAgAABAgQItEFAQG/DlvRIgAABAgQIECBAgAABAp0XENA7v2IDEiBAgAABAgQIECBAgEAbBIaWrzza0KgeCRAgUFpg586dpUsWrbdnz550//33F61ZU7Ho+/3a176WbrrpppArOX36dPrN3/zNkL39tKlvf/vbYfubnZ1Nzz33XNj+vvnNb6bz58+H7a9pLPJ+H3nkkdB2TXMHDhwI22P0z+ahoaF07733hvVr3hu33HJL2P6uv/76NDo6Gra/t99+O33wgx8M29/v/M7vpPSTgN6EdP8YuAfcA0XvgebzJfJjenq66LylP0ePHj0amS98b+Pj46H3Oz8/H9aw6a30/VyyXrPbyI+ZmZnQflNTU6H7az6bIz8efvjh0H5f/OIXI/Mt79u3L7Tftm3bQvf31FNPhd7v1q1bQ/tt2rQpdH+Li4vL/sQ97O9PNEaAAAECBAgQIECAAAECNQkI6DVt26wECBAgQIAAAQIECBAgEFZAQA+7Go0RIECAAAECBAgQIECAQE0CAnpN2zYrAQIECBAgQIAAAQIECIQVENDDrkZjBAgQIECAAAECBAgQIFCTgIBe07bNSoAAAQIECBAgQIAAAQJhBQT0sKvRGAECBAgQIECAAAECBAjUJCCg17RtsxIgQIAAAQIECBAgQIBAWAEBPexqNEaAAAECBAgQIECAAAECNQkI6DVt26wECBAgQIAAAQIECBAgEFZAQA+7Go0RIECAAAECBAgQIECAQE0CAnpN2zYrAQIECBAgQIAAAQIECIQVENDDrkZjBAgQIECAAAECBAgQIFCTgIBe07bNSoAAAQIECBAgQIAAAQJhBQT0sKvRGAECBAgQIECAAAECBAjUJCCg17RtsxIgQIAAAQIECBAgQIBAWAEBPexqNEaAAAECBAgQIECAAAECNQkI6DVt26wECBAgQIAAAQIECBAgEFZAQA+7Go0RIECAAAECBAgQIECAQE0CAnpN2zYrAQIECBAgQIAAAQIECIQVENDDrkZjBAgQIECAAAECBAgQIFCTgIBe07bNSoAAAQIECBAgQIAAAQJhBQT0sKvRGAECBAgQIECAAAECBAjUJCCg17RtsxIgQIAAAQIECBAgQIBAWAEBPexqNEaAAAECBAgQIECAAAECNQkI6DVt26wECBAgQIAAAQIECBAgEFZAQA+7Go0RIECAAAECBAgQIECAQE0CAnpN2zYrAQIECBAgQIAAAQIECIQVENDDrkZjBAgQIECAAAECBAgQIFCTgIBe07bNSoAAAQIECBAgQIAAAQJhBQT0sKvRGAECBAgQIECAAAECBAjUJCCg17RtsxIgQIAAAQIECBAgQIBAWAEBPexqNEaAAAECBAgQIECAAAECNQkI6DVt26wECBAgQIAAAQIECBAgEFZAQA+7Go0RIECAAAECBAgQIECAQE0CAnpN2zYrAQIECBAgQIAAAQIECIQVENDDrkZjBAgQIECAAAECBAgQIFCTgIBe07bNSoAAAQIECBAgQIAAAQJhBYaWrzyGhobCNtg09sd//Meh+9McgbUSOH78ePrbv/3btbr8Va975ePlqq9Zyxc88MADa3n5q177rrvuSrt3777q69bqBV/4whfW6tKruu6xY8fS+vXrV/XatXjR7bffnoaHh9fi0le95sWLF9P73//+q75urV7w9ttvpw984ANrdfmrXvff/u3f0ltvvXXV163VC+bm5tL4+PhaXX5V1/32t7+9qtetxYseeeSRdO7cubW49KqvefDgwVW/dtAv3Llz56Av+TNd75133km//uu//jOdGeSLP/GJT6Rdu3YN8pI/07Wif7f6x3/8x3Tdddf9TDMN8sXf+MY3UviAvnHjxnT27NlBurgWgdYIfOUrX0mf+9znwvYbPaCHhWtJY1NTU2l2djZst6Ojo+nUqVNh+2vC+cLCQsj+mt7m5+dD9tY01QTMzZs3h+1vYmIinThxImx/zXt3ZmYmbH/T09Pp8OHDYfvTWJ7A/v3706FDh/KK9PH0kSNH0t69e/t4BaXXUuCjH/1oeuONN9ayhRWvvbi4mPyJ+4pEniRAgAABAgQIECBAgAABAoMRENAH4+wqBAgQIECAAAECBAgQIEBgRQEBfUUeTxIgQIAAAQIECBAgQIAAgcEICOiDcXYVAgQIECBAgAABAgQIECCwooCAviKPJwkQIECAAAECBAgQIECAwGAEBPTBOLsKAQIECBAgQIAAAQIECBBYUUBAX5HHkwQIECBAgAABAgQIECBAYDACAvpgnF2FAAECBAgQIECAAAECBAisKCCgr8jjSQIECBAgQIAAAQIECBAgMBgBAX0wzq5CgAABAgQIECBAgAABAgRWFBDQV+TxJAECBAgQIECAAAECBAgQGIyAgD4YZ1chQIAAAQIECBAgQIAAAQIrCgjoK/J4kgABAgQIECBAgAABAgQIDEZAQB+Ms6sQIECAAAECBAgQIECAAIEVBQT0FXk8SYAAAQIECBAgQIAAAQIEBiMgoA/G2VUIECBAgAABAgQIECBAgMCKAgL6ijyeJECAAAECBAgQIECAAAECgxEQ0Afj7CoECBAgQIAAAQIECBAgQGBFAQF9RR5PEiBAgAABAgQIECBAgACBwQgI6INxdhUCBAgQIECAAAECBAgQILCigIC+Io8nCRAgQIAAAQIECBAgQIDAYAQE9ME4uwoBAgQIECBAgAABAgQIEFhRQEBfkceTBAgQIECAAAECBAgQIEBgMAIC+mCcXYUAAQIECBAgQIAAAQIECKwoIKCvyONJAgQIECBAgAABAgQIECAwGAEBfTDOrkKAAAECBAgQIECAAAECBFYUENBX5PEkAQIECBAgQIAAAQIECBAYjICAPhhnVyFAgAABAgQIECBAgAABAisKCOgr8niSAAECBAgQIECAAAECBAgMRkBAH4yzqxAgQIAAAQIECBAgQIAAgRUFBPQVeTxJgAABAgQIECBAgAABAgQGIyCgD8bZVQgQIECAAAECBAgQIECAwIoCAvqKPJ4kQIAAAQIECBAgQIAAAQKDERDQB+PsKgQIECBAgAABAgQIECBAYEUBAX1FHk8SIECAAAECBAgQIECAAIHBCAjog3F2FQIECBAgQIAAAQIECBAgsKKAgL4ijycJECBAgAABAgQIECBAgMBgBAT0wTi7CgECBAgQIECAAAECBAgQWFFg3YrPenJVAvv371/V67yonQKPPvpoOxvX9VUFor93X3vttXTLLbdcdY61fMH27dvX8vIrXvvOO+9MH/vYx1Z8zVo+efHixXTttdeuZQutvfapU6dS5HvvRz/6UYr8s+Po0aNpZGQk7P5nZ2dT5M/nl156Kf3iL/5iWL/o/R07diz0+/f5559Pe/fuDbvf6I1Ffu82dvv27UsbN26Mzbh85XGlw7D/rgA2LYZ+RPbTW969feVNHPree+ihh8K+d5t7L/pjeno6tN/U1FTo/iYmJkL3d/Lkyei3oP56FGh2G/nn2+TkZI+TDebYlYAe2m/btm2h+9uxY4f+MrLDlV+uhfY7cuTIYN6IHb3K1q1bQ+/39ddfDy/vT9xj//5EdwQIECBAgAABAgQIECBQiYCAXsmijUmAAAECBAgQIECAAAECsQUE9Nj70R0BAgQIECBAgAABAgQIVCIgoFeyaGMSIECAwP9p1/5d66z+OICflsiViwptoY1RbzWWmtJB/DGoSwaLGbp1yODYQqEgCE6lUHc7OATUreDQoot/gOjgopNKRgMRLcSmNFCx7bWBlOojFL7f8Tl9Tvg8z3ld6Pacc9+f1ye9yTstAQIECBAgQIBAbAEFPfZ+pCNAgAABAgQIECBAgACBSgQU9EoWbUwCBAgQIECAAAECBAgQiC2goMfej3QECBAgQIAAAQIECBAgUImAgl7Joo1JgAABAgQIECBAgAABArEFFPTY+5GOAAECBAgQIECAAAECBCoRUNArWbQxCRAgQIAAAQIECBAgQCC2gIIeez/SESBAgAABAgQIECBAgEAlAgp6JYs2JgECBAgQIECAAAECBAjEFlDQY+9HOgIECBAgQIAAAQIECBCoREBBr2TRxiRAgAABAgQIECBAgACB2AIKeuz9SEeAAAECBAgQIECAAAEClQgo6JUs2pgECBAgQIAAAQIECBAgEFtAQY+9H+kIECBAgAABAgQIECBAoBIBBb2SRRuTAAECBAgQIECAAAECBGILKOix9yMdAQIECBAgQIAAAQIECFQioKBXsmhjEiBAgAABAgQIECBAgEBsAQU99n6kI0CAAAECBAgQIECAAIFKBBT0ShZtTAIECBAgQIAAAQIECBCILaCgx96PdAQIECBAgAABAgQIECBQiYCCXsmijUmAAAECBAgQIECAAAECsQUU9Nj7kY4AAQIECBAgQIAAAQIEKhFQ0CtZtDEJECBAgAABAgQIECBAILaAgh57P9IRIECAAAECBAgQIECAQCUCCnolizYmAQIECBAgQIAAAQIECMQWUNBj70c6AgQIECBAgAABAgQIEKhEQEGvZNHGJECAAAECBAgQIECAAIHYAgp67P1IR4AAAQIECBAgQIAAAQKVCCjolSzamAQIECBAgAABAgQIECAQW0BBj70f6QgQIECAAAECBAgQIECgEgEFvZJFG5MAAQIECBAgQIAAAQIEYgso6LH3Ix0BAgQIECBAgAABAgQIVCKgoFeyaGMSIECAAAECBAgQIECAQGwBBT32fqQjQIAAAQIECBAgQIAAgUoEFPRKFm1MAgQIECBAgAABAgQIEIgtMBM7nnQECBAoJ/D777+nN998s9wbPOLNGxsbofNtbW2FznfmzJl04MCBR9xCueM7OztpZibut+Evvvii3PAd3Pzll192cEu9V0T2++GHH9L7778fdjmfffZZeuutt8LmW19fD52v+dyL/PUXdrE9CXbhwoXQSc+dO5fG43HYjJ9//nmK+5NBWDbBCBAYisDhw4fT1atXw47z2muvpeYH1aivhYWF0Pnm5ubSH3/8EZXvvx8QptNpyHyRf3hpwCaTyX9/vPIE3nnnnbyDu3RqeXl5l94p7202NzdD/wJhcXExfffdd3nD7cKpTz75JEXf8S4wDPYtou/2gw8+SM0/gER9NQXdf3GPuh25CBAgQIAAAQIECBAgQKAqAQW9qnUblgABAgQIECBAgAABAgSiCijoUTcjFwECBAgQIECAAAECBAhUJaCgV7VuwxIgQIAAAQIECBAgQIBAVAEFPepm5CJAgAABAgQIECBAgACBqgQU9KrWbVgCBAgQIECAAAECBAgQiCqgoEfdjFwECBAgQIAAAQIECBAgUJWAgl7Vug1LgAABAgQIECBAgAABAlEFFPSom5GLAAECBAgQIECAAAECBKoSUNCrWrdhCRAgQIAAAQIECBAgQCCqgIIedTNyESBAgAABAgQIECBAgEBVAgp6Ves2LAECBAgQIECAAAECBAhEFVDQo25GLgIECBAgQIAAAQIECBCoSkBBr2rdhiVAgAABAgQIECBAgACBqAIKetTNyEWAAAECBAgQIECAAAECVQko6FWt27AECBAgQIAAAQIECBAgEFVAQY+6GbkIECBAgAABAgQIECBAoCoBBb2qdRuWAAECBAgQIECAAAECBKIKKOhRNyMXAQIECBAgQIAAAQIECFQloKBXtW7DEiBAgAABAgQIECBAgEBUAQU96mbkIkCAAAECBAgQIECAAIGqBBT0qtZtWAIECBAgQIAAAQIECBCIKqCgR92MXAQIECBAgAABAgQIECBQlYCCXtW6DUuAAAECBAgQIECAAAECUQUU9KibkYsAAQIECBAgQIAAAQIEqhJQ0Ktat2EJECBAgAABAgQIECBAIKqAgh51M3IRIECAAAECBAgQIECAQFUCCnpV6zYsAQIECBAgQIAAAQIECEQVUNCjbkYuAgQIECBAgAABAgQIEKhKQEGvat2GJUCAAAECBAgQIECAAIGoAgp61M3IRYAAAQIECBAgQIAAAQJVCSjoVa3bsAQIECBAgAABAgQIECAQVUBBj7oZuQgQIECAAAECBAgQIECgKgEFvap1G5YAAQIECBAgQIAAAQIEogoo6FE3IxcBAgQIECBAgAABAgQIVCWgoFe1bsMSIECAAAECBAgQIECAQFQBBT3qZuQiQIAAAQIECBAgQIAAgaoEFPSq1m1YAgQIECBAgAABAgQIEIgqMBM1mFwECBAoLXD69OnU/In6+vnnn9NHH30UNV5677330iuvvBI23927d0Pnu3jxYnrqqadC+m1vb6cTJ06EzPYw1DfffBM6X+RwX3/9dbp06VLYiIcOHUpXrlwJm+/48eMp8tdf872j+XyJ+lpZWUlfffVV1Hjp7NmzKILEgAAADNdJREFUaXl5OWy+6MGif+/Yt29fOnjwYFjG5vuvgh52PYIRIFBa4O233y79Fo90f/R84/E4/fTTT480Y8nDc3NzaW1treRbPNLdS0tLqTGM+JpOp+nkyZMRo/2XaTKZhM3Wl2Dffvtt2Kjvvvtu2GxNsOifzdHzNeX8008/DbvjpqB75QtsbW2l1dXV/AsKn5ydnU2bm5uF3yX/+tFolPwX93w/JwkQIECAAAECBAgQIECAQGcCCnpnlC4iQIAAAQIECBAgQIAAAQL5Agp6vp2TBAgQIECAAAECBAgQIECgMwEFvTNKFxEgQIAAAQIECBAgQIAAgXwBBT3fzkkCBAgQIECAAAECBAgQINCZgILeGaWLCBAgQIAAAQIECBAgQIBAvoCCnm/nJAECBAgQIECAAAECBAgQ6ExAQe+M0kUECBAgQIAAAQIECBAgQCBfQEHPt3OSAAECBAgQIECAAAECBAh0JqCgd0bpIgIECBAgQIAAAQIECBAgkC+goOfbOUmAAAECBAgQIECAAAECBDoTUNA7o3QRAQIECBAgQIAAAQIECBDIF1DQ8+2cJECAAAECBAgQIECAAAECnQko6J1RuogAAQIECBAgQIAAAQIECOQLKOj5dk4SIECAAAECBAgQIECAAIHOBBT0zihdRIAAAQIECBAgQIAAAQIE8gUU9Hw7JwkQIECAAAECBAgQIECAQGcCCnpnlC4iQIAAAQIECBAgQIAAAQL5Agp6vp2TBAgQIECAAAECBAgQIECgMwEFvTNKFxEgQIAAAQIECBAgQIAAgXwBBT3fzkkCBAgQIECAAAECBAgQINCZgILeGaWLCBAgQIAAAQIECBAgQIBAvoCCnm/nJAECBAgQIECAAAECBAgQ6ExAQe+M0kUECBAgQIAAAQIECBAgQCBfQEHPt3OSAAECBAgQIECAAAECBAh0JqCgd0bpIgIECBAgQIAAAQIECBAgkC+goOfbOUmAAAECBAgQIECAAAECBDoTUNA7o3QRAQIECBAgQIAAAQIECBDIF1DQ8+2cJECAAAECBAgQIECAAAECnQko6J1RuogAAQIECBAgQIAAAQIECOQLKOj5dk4SIECAAAECBAgQIECAAIHOBBT0zihdRIAAAQIECBAgQIAAAQIE8gUU9Hw7JwkQIECAAAECBAgQIECAQGcCCnpnlC4iQIAAAQIECBAgQIAAAQL5Agp6vp2TBAgQIECAAAECBAgQIECgMwEFvTNKFxEgQIAAAQIECBAgQIAAgXwBBT3fzkkCBAgQIECAAAECBAgQINCZgILeGaWLCBAgQIAAAQIECBAgQIBAvsBM/lEnHwo8ePAABgECBDoXWFpaSjdu3Oj83q4uPH/+fDp27FhX13V+z+bmZpqdne383q4ufOONN9LevTF/T76zs5OOHj3a1ajuCSbw66+/ht7vrVu3gon9f5yVlZV0+fLlsBlPnTqVPvzww7D5zp49m5o/XnkCJ06cSFtbW3mHd+HUn3/+Gfrz5d69e6HzbW9vJwV9F75QvQUBAgRyBVZXV3OPFj/XFLiXX365+PvkvkHkbM1M6+vraTqd5o5X9Nx4PA6brRl8MpkUnX/ol8/Pz6e1tbWwY77++uthsz0MFvmzuSnokV/RP5sj2/Xh66/52SDy50vzi/tr166FXfNoNEoxf3UflkwwAgQIECBAgAABAgQIECBQRkBBL+PqVgIECBAgQIAAAQIECBAg0EpAQW/F5WECBAgQIECAAAECBAgQIFBGQEEv4+pWAgQIECBAgAABAgQIECDQSkBBb8XlYQIECBAgQIAAAQIECBAgUEZAQS/j6lYCBAgQIECAAAECBAgQINBKQEFvxeVhAgQIECBAgAABAgQIECBQRkBBL+PqVgIECBAgQIAAAQIECBAg0EpAQW/F5WECBAgQIECAAAECBAgQIFBGQEEv4+pWAgQIECBAgAABAgQIECDQSkBBb8XlYQIECBAgQIAAAQIECBAgUEZAQS/j6lYCBAgQIECAAAECBAgQINBKQEFvxeVhAgQIECBAgAABAgQIECBQRkBBL+PqVgIECBAgQIAAAQIECBAg0EpAQW/F5WECBAgQIECAAAECBAgQIFBGQEEv4+pWAgQIECBAgAABAgQIECDQSkBBb8XlYQIECBAgQIAAAQIECBAgUEZAQS/j6lYCBAgQIECAAAECBAgQINBKQEFvxeVhAgQIECBAgAABAgQIECBQRkBBL+PqVgIECBAgQIAAAQIECBAg0EpAQW/F5WECBAgQIECAAAECBAgQIFBGQEEv4+pWAgQIECBAgAABAgQIECDQSkBBb8XlYQIECBAgQIAAAQIECBAgUEZAQS/j6lYCBAgQIECAAAECBAgQINBKQEFvxeVhAgQIECBAgAABAgQIECBQRkBBL+PqVgIECBAgQIAAAQIECBAg0EpAQW/F5WECBAgQIECAAAECBAgQIFBGQEEv4+pWAgQIECBAgAABAgQIECDQSkBBb8XlYQIECBAgQIAAAQIECBAgUEZAQS/j6lYCBAgQIECAAAECBAgQINBKQEFvxeVhAgQIECBAgAABAgQIECBQRkBBL+PqVgIECBAgQIAAAQIECBAg0EpAQW/F5WECBAgQIECAAAECBAgQIFBGQEEv4+pWAgQIECBAgAABAgQIECDQSkBBb8XlYQIECBAgQIAAAQIECBAgUEZAQS/j6lYCBAgQIECAAAECBAgQINBKQEFvxeVhAgQIECBAgAABAgQIECBQRkBBL+PqVgIECBAgQIAAAQIECBAg0Epgz4N/X3v27Gl1aLcffv7553f7Lb0fgV4I3LlzJ21tbYXN+u/HS9hsfQi2uLiY1tbWwkZ94okn0t9//x023/fff58mk0nYfE8//XTYbM3f3R9//DFsvo2NjXTq1Kmw+Z588sl0+/btsPn279+fbt68GTbfs88+m65fvx4233PPPZd+++23sPleeOGFdO3atbD5XnzxxbS+vh4238cff5yWl5fD5ms+/yK/Njc30+zsbNiIr776atq7N+6/Uf/yyy9pJqze/wSL/CHYBz8ZCRDop8Djjz+emm90UV8LCwsp+g8KUe2aXH/99VeaTqchI47H4/TMM8+EzNaEun//fuivveh/N5ofniN/tszPz4fe75EjR0L7vfTSS6H9moLue0f+x2vkz+Zmquj5HnvssdBff6PRKMX99UH+162TBAgQIECAAAECBAgQIECgdwIKeu9WJjABAgQIECBAgAABAgQIDFFAQR/iVs1EgAABAgQIECBAgAABAr0TUNB7tzKBCRAgQIAAAQIECBAgQGCIAgr6ELdqJgIECBAgQIAAAQIECBDonYCC3ruVCUyAAAECBAgQIECAAAECQxRQ0Ie4VTMRIECAAAECBAgQIECAQO8EFPTerUxgAgQIECBAgAABAgQIEBiigII+xK2aiQABAgQIECBAgAABAgR6J6Cg925lAhMgQIAAAQIECBAgQIDAEAUU9CFu1UwECBAgQIAAAQIECBAg0DsBBb13KxOYAAECBAgQIECAAAECBIYooKAPcatmIkCAAAECBAgQIECAAIHeCSjovVuZwAQIECBAgAABAgQIECAwRAEFfYhbNRMBAgQIECBAgAABAgQI9E5AQe/dygQmQIAAAQIECBAgQIAAgSEKKOhD3KqZCBAgQIAAAQIECBAgQKB3Agp671YmMAECBAgQIECAAAECBAgMUUBBH+JWzUSAAAECBAgQIECAAAECvRNQ0Hu3MoEJECBAgAABAgQIECBAYIgCCvoQt2omAgQIECBAgAABAgQIEOidgILeu5UJTIAAAQIECBAgQIAAAQJDFFDQh7hVMxEgQIAAAQIECBAgQIBA7wQU9N6tTGACBAgQIECAAAECBAgQGKKAgj7ErZqJAAECBAgQIECAAAECBHonoKD3bmUCEyBAgAABAgQIECBAgMAQBRT0IW7VTAQIECBAgAABAgQIECDQOwEFvXcrE5gAAQIECBAgQIAAAQIEhiigoA9xq2YiQIAAAQIECBAgQIAAgd4JKOi9W5nABAgQIECAAAECBAgQIDBEAQV9iFs1EwECBAgQIECAAAECBAj0TkBB793KBCZAgAABAgQIECBAgACBIQoo6EPcqpkIECBAgAABAgQIECBAoHcCCnrvViYwAQIECBAgQIAAAQIECAxRQEEf4lbNRIAAAQIECBAgQIAAAQK9E1DQe7cygQkQIECAAAECBAgQIEBgiAIK+hC3aiYCBAgQIECAAAECBAgQ6J2Agt67lQlMgAABAgQIECBAgAABAkMU2PPg39cQBzMTAQIE+i6wvb0deoQm32g0Cp0xcr7o+2WX/6Ud/e+GfPm7bU7yG7ZfM13kz79H03c6+vfeZkP/AH+W5d04Ch1wAAAAAElFTkSuQmCC;" vertex="1" parent="1">
                    <mxGeometry y="560" width="180" height="180" as="geometry"/>
                </mxCell>
                <mxCell id="5" value="" style="shape=image;verticalLabelPosition=bottom;labelBackgroundColor=default;verticalAlign=top;aspect=fixed;imageAspect=0;image=data:image/png,iVBORw0KGgoAAAANSUhEUgAAA+gAAAPoCAYAAABNo9TkAAAABHNCSVQICAgIfAhkiAAAIABJREFUeF7s2m+s1fddB/AvhZbuIpVqS+ilvcxmY3fZA+TeJt3QwJQGksXU6SLV25gYo08gos3S+mdJa/tgUR+sra41alZrFrrwYMlcphHG1M0/MWYXIZGU1doMCoiMlo7bewsFivyWLdGbmJ1zz/lx3+d8Xyfpgzt/5/t7f16f37n3vq8suXrtVbwIECBAIE7g4sWLcZn+d6Am3/Lly2Mzyrfw1aTbNZOlP3sL12//nfbbvrE7ECBAYKECy5o3LlmyZKHv9z4CBAj8vwL+/vf/0nT0f7j//vvL/v37O7p2MS4aHx8vR48eXYxbd3TP0dHRcurUqY6uXYyLRkZGytzc3GLc+vveMzlbE35sbKwcO3bs+86xWBccOXKkTE5OLtbtv+99m2zT09Pf97rFumBqaqrs2bNnsW7f0X397twRk4sIEOhCYNWqVeXcuXPlhi7e41ICBAgQIECAAAECBAgQIECgJQEFvSVYxxIgQIAAAQIECBAgQIAAgW4EFPRutFxLgAABAgQIECBAgAABAgRaElDQW4J1LAECBAgQIECAAAECBAgQ6EZAQe9Gy7UECBAgQIAAAQIECBAgQKAlAQW9JVjHEiBAgAABAgQIECBAgACBbgQU9G60XEuAAAECBAgQIECAAAECBFoSUNBbgnUsAQIECBAgQIAAAQIECBDoRkBB70bLtQQIECBAgAABAgQIECBAoCUBBb0lWMcSIECAAAECBAgQIECAAIFuBBT0brRcS4AAAQIECBAgQIAAAQIEWhJQ0FuCdSwBAgQIECBAgAABAgQIEOhGQEHvRsu1BAgQIECAAAECBAgQIECgJQEFvSVYxxIgQIAAAQIECBAgQIAAgW4EFPRutFxLgAABAgQIECBAgAABAgRaElDQW4J1LAECBAgQIECAAAECBAgQ6EZAQe9Gy7UECBAgQIAAAQIECBAgQKAlAQW9JVjHEiBAgAABAgQIECBAgACBbgQU9G60XEuAAAECBAgQIECAAAECBFoSUNBbgnUsAQIECBAgQIAAAQIECBDoRkBB70bLtQQIECBAgAABAgQIECBAoCUBBb0lWMcSIECAAAECBAgQIECAAIFuBBT0brRcS4AAAQIECBAgQIAAAQIEWhJQ0FuCdSwBAgQIECBAgAABAgQIEOhGQEHvRsu1BAgQIECAAAECBAgQIECgJQEFvSVYxxIgQIAAAQIECBAgQIAAgW4EFPRutFxLgAABAgQIECBAgAABAgRaElDQW4J1LAECBAgQIECAAAECBAgQ6EZAQe9Gy7UECBAgQIAAAQIECBAgQKAlAQW9JVjHEiBAgAABAgQIECBAgACBbgQU9G60XEuAAAECBAgQIECAAAECBFoSUNBbgnUsAQIECBAgQIAAAQIECBDoRkBB70bLtQQIECBAgAABAgQIECBAoCUBBb0lWMcSIECAAAECBAgQIECAAIFuBBT0brRcS4AAAQIECBAgQIAAAQIEWhJQ0FuCdSwBAgQIECBAgAABAgQIEOhGQEHvRsu1BAgQIECAAAECBAgQIECgJQEFvSVYxxIgQIAAAQIECBAgQIAAgW4ElnVzsWsJECBA4PoKrF279vresMu7Jee7evVqSc936623dil+fS5/5513yi233HJ9braAu1y5cmUB77p+bzlz5kxZs2bN9bthl3eam5uLzvfWW291OZHLCRAgMDwC8QV91apV5dy5c8MjbhICfRR46qmnykMPPdTHEx2VJLBv376kOLJUJNAUuBUrVsROPDY2FputCbZ69epy+vTp2IzNH65efPHF2Hzvete7YrMNQrAnn3yy/MZv/MYgRJWRwHUXaP4w/sYbb1z3+3ZzQ//EvRst1xIgQIAAAQIECBAgQIAAgZYEFPSWYB1LgAABAgQIECBAgAABAgS6EVDQu9FyLQECBAgQIECAAAECBAgQaElAQW8J1rEECBAgQIAAAQIECBAgQKAbAQW9Gy3XEiBAgAABAgQIECBAgACBlgQU9JZgHUuAAAECBAgQIECAAAECBLoRUNC70XItAQIECBAgQIAAAQIECBBoSUBBbwnWsQQIECBAgAABAgQIECBAoBsBBb0bLdcSIECAAAECBAgQIECAAIGWBBT0lmAdS4AAAQIECBAgQIAAAQIEuhFQ0LvRci0BAgQIECBAgAABAgQIEGhJQEFvCdaxBAgQIECAAAECBAgQIECgGwEFvRst1xIgQIAAAQIECBAgQIAAgZYEFPSWYB1LgAABAgQIECBAgAABAgS6EVDQu9FyLQECBAgQIECAAAECBAgQaElAQW8J1rEECBAgQIAAAQIECBAgQKAbAQW9Gy3XEiBAgAABAgQIECBAgACBlgQU9JZgHUuAAAECBAgQIECAAAECBLoRUNC70XItAQIECBAgQIAAAQIECBBoSUBBbwnWsQQIECBAgAABAgQIECBAoBsBBb0bLdcSIECAAAECBAgQIECAAIGWBBT0lmAdS4AAAQIECBAgQIAAAQIEuhFQ0LvRci0BAgQIECBAgAABAgQIEGhJQEFvCdaxBAgQIECAAAECBAgQIECgGwEFvRst1xIgQIAAAQIECBAgQIAAgZYEFPSWYB1LgAABAgQIECBAgAABAgS6EVDQu9FyLQECBAgQIECAAAECBAgQaElAQW8J1rEECBAgQIAAAQIECBAgQKAbAQW9Gy3XEiBAgAABAgQIECBAgACBlgQU9JZgHUuAAAECBAgQIECAAAECBLoRUNC70XItAQIECBAgQIAAAQIECBBoSUBBbwnWsQQIECBAgAABAgQIECBAoBsBBb0bLdcSIECAAAECBAgQIECAAIGWBBT0lmAdS4AAAQIECBAgQIAAAQIEuhFQ0LvRci0BAgQIECBAgAABAgQIEGhJQEFvCdaxBAgQIECAAAECBAgQIECgGwEFvRst1xIgQIAAAQIECBAgQIAAgZYEFPSWYB1LgAABAgQIECBAgAABAgS6EVjWzcWuJUCAAIHrJ3D48OHrd7MF3mnDhg0LfGf7b0v3u3DhQrn55pvbh1jAHZpsybt9++23S/J+X3rppWi/t956q6xfv34BT8b1ecu5c+euz43chQABAoECCnoflrJkyZI+nOKIRIGdO3eWZ555JjGaTBUIPPLII2X//v2xk05PT8dma4Ldf//95fjx47EZR0ZGytzcXGS+Jtvs7GxktiZUs9d169bF5puYmCiHDh2Kzdd8X9m+fXtsvnvuuSc2m2C9C+zatas8++yzvR/khEiBq1evRuYapFD+ifsgbUtWAgQIECBAgAABAgQIEBhaAQV9aFdrMAIECBAgQIAAAQIECBAYJAEFfZC2JSsBAgQIECBAgAABAgQIDK2Agj60qzUYAQIECBAgQIAAAQIECAySgII+SNuSlQABAgQIECBAgAABAgSGVkBBH9rVGowAAQIECBAgQIAAAQIEBklAQR+kbclKgAABAgQIECBAgAABAkMroKAP7WoNRoAAAQIECBAgQIAAAQKDJKCgD9K2ZCVAgAABAgQIECBAgACBoRVQ0Id2tQYjQIAAAQIECBAgQIAAgUESUNAHaVuyEiBAgAABAgQIECBAgMDQCijoQ7tagxEgQIAAAQIECBAgQIDAIAko6IO0LVkJECBAgAABAgQIECBAYGgFFPShXa3BCBAgQIAAAQIECBAgQGCQBBT0QdqWrAQIECBAgAABAgQIECAwtAIK+tCu1mAECBAgQIAAAQIECBAgMEgCCvogbUtWAgQIECBAgAABAgQIEBhaAQV9aFdrMAIECBAgQIAAAQIECBAYJAEFfZC2JSsBAgQIECBAgAABAgQIDK2Agj60qzUYAQIECBAgQIAAAQIECAySgII+SNuSlQABAgQIECBAgAABAgSGVkBBH9rVGowAAQIECBAgQIAAAQIEBklAQR+kbclKgAABAgQIECBAgAABAkMroKAP7WoNRoAAAQIECBAgQIAAAQKDJKCgD9K2ZCVAgAABAgQIECBAgACBoRVQ0Id2tQYjQIAAAQIECBAgQIAAgUESUNAHaVuyEiBAgAABAgQIECBAgMDQCijoQ7tagxEgQIAAAQIECBAgQIDAIAko6IO0LVkJECBAgAABAgQIECBAYGgFFPShXa3BCBAgQIAAAQIECBAgQGCQBBT0QdqWrAQIECBAgAABAgQIECAwtAIK+tCu1mAECBAgQIAAAQIECBAgMEgCCvogbUtWAgQIECBAgAABAgQIEBhaAQV9aFdrMAIECBAgQIAAAQIECBAYJAEFfZC2JSsBAgQIECBAgAABAgQIDK2Agj60qzUYAQIECBAgQIAAAQIECAySgII+SNuSlQABAgQIECBAgAABAgSGVkBBH9rVGowAAQIECBAgQIAAAQIEBklg2SCFlZUAAQI1Cbz++utl48aNsSMfPXq0TExMxOb74R/+4dL8l/pauXJlufHGG1PjxefaunVrfMbkgPyStyMbAQI1CyjoNW/f7AQIRAv80A/9UNm/f39sxvHx8dhsTbDXXnutHD9+PDbj7OxsGRkZic2XHGxsbKwcOHAgOWJ0tm3btpXmPy8CBAgQyBPwT9zzdiIRAQIECBAgQIAAAQIECFQooKBXuHQjEyBAgAABAgQIECBAgECegIKetxOJCBAgQIAAAQIECBAgQKBCAQW9wqUbmQABAgQIECBAgAABAgTyBBT0vJ1IRIAAAQIECBAgQIAAAQIVCijoFS7dyAQIECBAgAABAgQIECCQJ6Cg5+1EIgIECBAgQIAAAQIECBCoUEBBr3DpRiZAgAABAgQIECBAgACBPAEFPW8nEhEgQIAAAQIECBAgQIBAhQIKeoVLNzIBAgQIECBAgAABAgQI5Ako6Hk7kYgAAQIECBAgQIAAAQIEKhRQ0CtcupEJECBAgAABAgQIECBAIE9AQc/biUQECBAgQIAAAQIECBAgUKGAgl7h0o1MgAABAgQIECBAgAABAnkCCnreTiQiQIAAAQIECBAgQIAAgQoFFPQKl25kAgQIECBAgAABAgQIEMgTUNDzdiIRAQIECBAgQIAAAQIECFQooKBXuHQjEyBAgAABAgQIECBAgECegIKetxOJCBAgQIAAAQIECBAgQKBCAQW9wqUbmQABAgQIECBAgAABAgTyBBT0vJ1IRIAAAQIECBAgQIAAAQIVCijoFS7dyAQIECBAgAABAgQIECCQJ6Cg5+1EIgIECBAgQIAAAQIECBCoUEBBr3DpRiZAgAABAgQIECBAgACBPAEFPW8nEhEgQIAAAQIECBAgQIBAhQIKeoVLNzIBAgQIECBAgAABAgQI5Ako6Hk7kYgAAQIECBAgQIAAAQIEKhRQ0CtcupEJECBAgAABAgQIECBAIE9AQc/biUQECBAgQIAAAQIECBAgUKGAgl7h0o1MgAABAgQIECBAgAABAnkCCnreTiQiQIAAAQIECBAgQIAAgQoFFPQKl25kAgQIECBAgAABAgQIEMgTUNDzdiIRAQIECBAgQIAAAQIECFQooKBXuHQjEyBAgAABAgQIECBAgECegIKetxOJCBAgQIAAAQIECBAgQKBCAQW9wqUbmQABAgQIECBAgAABAgTyBBT0vJ1IRIAAAQIECBAgQIAAAQIVCijoFS7dyAQIECBAgAABAgQIECCQJ7AsL5JEBAgQINAIrFq1quzYsSMW48tf/nJ5+eWXY/PddtttZe3atbH55ubmysjISGS+JtuXvvSlyGxNqLNnz5Zmv8mv5M9usptsBAgQqF1AQa/9CTA/AQKxAnv37o3N1gSbnJwsBw8ejM04OjpaTp06FZsvtZx/D+yBBx6ItUvf7cTERPQf12IXKxgBAgQIFP/E3UNAgAABAgQIECBAgAABAgQCBBT0gCWIQIAAAQIECBAgQIAAAQIEFHTPAAECBAgQIECAAAECBAgQCBBQ0AOWIAIBAgQIECBAgAABAgQIEFDQPQMECBAgQIAAAQIECBAgQCBAQEEPWIIIBAgQIECAAAECBAgQIEBAQfcMECBAgAABAgQIECBAgACBAAEFPWAJIhAgQIAAAQIECBAgQIAAAQXdM0CAAAECBAgQIECAAAECBAIEFPSAJYhAgAABAgQIECBAgAABAgQUdM8AAQIECBAgQIAAAQIECBAIEFDQA5YgAgECBAgQIECAAAECBAgQUNA9AwQIECBAgAABAgQIECBAIEBAQQ9YgggECBAgQIAAAQIECBAgQEBB9wwQIECAAAECBAgQIECAAIEAAQU9YAkiECBAgAABAgQIECBAgAABBd0zQIAAAQIECBAgQIAAAQIEAgQU9IAliECAAAECBAgQIECAAAECBBR0zwABAgQIECBAgAABAgQIEAgQUNADliACAQIECBAgQIAAAQIECBBQ0D0DBAgQIECAAAECBAgQIEAgQEBBD1iCCAQIECBAgAABAgQIECBAQEH3DBAgQIAAAQIECBAgQIAAgQABBT1gCSIQIECAAAECBAgQIECAAAEF3TNAgAABAgQIECBAgAABAgQCBBT0gCWIQIAAAQIECBAgQIAAAQIEFHTPAAECBAgQIECAAAECBAgQCBBQ0AOWIAIBAgQIECBAgAABAgQIEFDQPQMECBAgQIAAAQIECBAgQCBAQEEPWIIIBAgQIECAAAECBAgQIEBAQfcMECBAgAABAgQIECBAgACBAAEFPWAJIhAgQIAAAQIECBAgQIAAAQXdM0CAAAECBAgQIECAAAECBAIEFPSAJYhAgAABAgQIECBAgAABAgQUdM8AAQIECBAgQIAAAQIECBAIEFDQA5YgAgECBAgQIECAAAECBAgQUNA9AwQIECBAgAABAgQIECBAIEBAQQ9YgggECBAgQIAAAQIECBAgQGAZgt4Fdu7c2fshTiBAgMA8gWeffTbeZPPmzbEZz58/X97znvfE5nvmmWfKihUrIvPNzs6W5N3OzMxE7/bNN98syZ/fF198sbz//e+PfPa+F8rvVtHr6Tmc/fZM6IAhFlDQ+7Dc5pcsLwIECPRb4C//8i/L/v37+31s384bHx8vBw8e7Nt5/T5odHS0HDp0qN/H9u28r3/962Vubq5v5/XzoJGRkdhszZzNbv/t3/6tnyP39azms7Fr166+ntnPwyYnJ8unP/3pfh7Z17OmpqaKAtdX0qjD/N4ctQ5hAgX8E/fApYhEgAABAgQIECBAgAABAvUJKOj17dzEBAgQIECAAAECBAgQIBAooKAHLkUkAgQIECBAgAABAgQIEKhPQEGvb+cmJkCAAAECBAgQIECAAIFAAQU9cCkiESBAgAABAgQIECBAgEB9Agp6fTs3MQECBAgQIECAAAECBAgECijogUsRiQABAgQIECBAgAABAgTqE1DQ69u5iQkQIECAAAECBAgQIEAgUEBBD1yKSAQIECBAgAABAgQIECBQn4CCXt/OTUyAAAECBAgQIECAAAECgQIKeuBSRCJAgAABAgQIECBAgACB+gQU9Pp2bmICBAgQIECAAAECBAgQCBRQ0AOXIhIBAgQIECBAgAABAgQI1CegoNe3cxMTIECAAAECBAgQIECAQKCAgh64FJEIECBAgAABAgQIECBAoD4BBb2+nZuYAAECBAgQIECAAAECBAIFFPTApYhEgAABAgQIECBAgAABAvUJKOj17dzEBAgQIECAAAECBAgQIBAooKAHLkUkAgQIECBAgAABAgQIEKhPQEGvb+cmJkCAAAECBAgQIECAAIFAAQU9cCkiESBAgAABAgQIECBAgEB9Agp6fTs3MQECBAgQIECAAAECBAgECijogUsRiQABAgQIECBAgAABAgTqE1DQ69u5iQkQIECAAAECBAgQIEAgUEBBD1yKSAQIECBAgAABAgQIECBQn4CCXt/OTUyAAAECBAgQIECAAAECgQIKeuBSRCJAgAABAgQIECBAgACB+gQU9Pp2bmICBAgQIECAAAECBAgQCBRQ0AOXIhIBAgQIECBAgAABAgQI1CegoNe3cxMTIECAAAECBAgQIECAQKCAgh64FJEIECBAgAABAgQIECBAoD4BBb2+nZuYAAECBAgQIECAAAECBAIFFPTApYhEgAABAgQIECBAgAABAvUJKOj17dzEBAgQIECAAAECBAgQIBAooKAHLkUkAgQIECBAgAABAgQIEKhPQEGvb+cmJkCAAAECBAgQIECAAIFAAQU9cCkiESBAgAABAgQIECBAgEB9Agp6fTs3MQECBAgQIECAAAECBAgECiwLzPR/Ir3xxhvl+eefT48pH4FFEThy5Mii3HdYbvrEE09Ej7J69ery6KOPxmb8q7/6q/LhD384Nt/dd99d7rzzzth8f/d3f1eWLl0ame/KlSvlJ37iJyKzNaFOnDhRXnnlldh8MzMz0Z/df/qnf4r+7J46dSp2t4MQ7Ktf/WpZtWrVIESVkcB1F1i2LLf+Nr23eS25eu21ZMmS647jhgQIDL/AtW8v0UM++OCD5YUXXojNuG/fvrJt27bYfJOTk+XgwYOx+Y4dO1bGxsZi861YsaLMzc1F5hsZGSmzs7OR2ZpQx48fL+vWrYvNNzExUaanp2Pz7d+/v2zfvj0239TUVNmzZ09sviaY352j1yMcgYEUaP6wdu7cueKfuA/k+oQmQIAAAQIECBAgQIAAgWETUNCHbaPmIUCAAAECBAgQIECAAIGBFFDQB3JtQhMgQIAAAQIECBAgQIDAsAko6MO2UfMQIECAAAECBAgQIECAwEAKKOgDuTahCRAgQIAAAQIECBAgQGDYBBT0YduoeQgQIECAAAECBAgQIEBgIAUU9IFcm9AECBAgQIAAAQIECBAgMGwCCvqwbdQ8BAgQIECAAAECBAgQIDCQAgr6QK5NaAIECBAgQIAAAQIECBAYNgEFfdg2ah4CBAgQIECAAAECBAgQGEgBBX0g1yY0AQIECBAgQIAAAQIECAybgII+bBs1DwECBAgQIECAAAECBAgMpICCPpBrE5oAAQIECBAgQIAAAQIEhk1AQR+2jZqHAAECBAgQIECAAAECBAZSQEEfyLUJTYAAAQIECBAgQIAAAQLDJqCgD9tGzUOAAAECBAgQIECAAAECAymgoA/k2oQmQIAAAQIECBAgQIAAgWETUNCHbaPmIUCAAAECBAgQIECAAIGBFFDQB3JtQhMgQIAAAQIECBAgQIDAsAko6MO2UfMQIECAAAECBAgQIECAwEAKKOgDuTahCRAgQIAAAQIECBAgQGDYBBT0YduoeQgQIECAAAECBAgQIEBgIAUU9IFcm9AECBAgQIAAAQIECBAgMGwCCvqwbdQ8BAgQIECAAAECBAgQIDCQAgr6QK5NaAIECBAgQIAAAQIECBAYNgEFfdg2ah4CBAgQIECAAAECBAgQGEgBBX0g1yY0AQIECBAgQIAAAQIECAybgII+bBs1DwECBAgQIECAAAECBAgMpICCPpBrE5oAAQIECBAgQIAAAQIEhk1AQR+2jZqHAAECBAgQIECAAAECBAZSQEEfyLUJTYAAAQIECBAgQIAAAQLDJqCgD9tGzUOAAAECBAgQIECAAAECAymgoA/k2oQmQIAAAQIECBAgQIAAgWETUNCHbaPmIUCAAAECBAgQIECAAIGBFFDQB3JtQhMgQIAAAQIECBAgQIDAsAko6MO2UfMQIECAAAECBAgQIECAwEAKKOgDuTahCRAgQIAAAQIECBAgQGDYBBT0YduoeQgQIECAAAECBAgQIEBgIAWWNamvXr06kOGFJkCAQC8C9957b2n+81qYwMqVK8uWLVsW9ubr8K6HH364rFmz5jrcaWG3mJiYKEuXLl3Ymyt/16lTp6KfvfT1TE9PR/udPHkyndDvzvEbEpDA4Ap8p6B7ESBAoEaB3bt31zh232aemZkpBw8e7Nt5/T5odHS0NEUu9TUyMlLm5uYi4zXZkl/Nbr/61a/GRmz++JL8mpycLL/zO78TG3Fqaio2m2AECBBoW8A/cW9b2PkECBAgQIAAAQIECBAgQKADAQW9AySXECBAgAABAgQIECBAgACBtgUU9LaFnU+AAAECBAgQIECAAAECBDoQUNA7QHIJAQIECBAgQIAAAQIECBBoW0BBb1vY+QQIECBAgAABAgQIECBAoAMBBb0DJJcQIECAAAECBAgQIECAAIG2BRT0toWdT4AAAQIECBAgQIAAAQIEOhBQ0DtAcgkBAgQIECBAgAABAgQIEGhbQEFvW9j5BAgQIECAAAECBAgQIECgAwEFvQMklxAgQIAAAQIECBAgQIAAgbYFFPS2hZ1PgAABAgQIECBAgAABAgQ6EFDQO0ByCQECBAgQIECAAAECBAgQaFtAQW9b2PkECBAgQIAAAQIECBAgQKADAQW9AySXECBAgAABAgQIECBAgACBtgUU9LaFnU+AAAECBAgQIECAAAECBDoQUNA7QHIJAQIECBAgQIAAAQIECBBoW0BBb1vY+QQIECBAgAABAgQIECBAoAMBBb0DJJcQIECAAAECBAgQIECAAIG2BRT0toWdT4AAAQIECBAgQIAAAQIEOhBQ0DtAcgkBAgQIECBAgAABAgQIEGhbQEFvW9j5BAgQIECAAAECBAgQIECgAwEFvQMklxAgQIAAAQIECBAgQIAAgbYFFPS2hZ1PgAABAgQIECBAgAABAgQ6EFDQO0ByCQECBAgQIECAAAECBAgQaFtAQW9b2PkECBAgQIAAAQIECBAgQKADAQW9AySXECBAgAABAgQIECBAgACBtgUU9LaFnU+AAAECBAgQIECAAAECBDoQUNA7QHIJAQIECBAgQIAAAQIECBBoW0BBb1vY+QQIECBAgAABAgQIECBAoAMBBb0DJJcQIECAAAECBAgQIECAAIG2BRT0toWdT4AAAQIECBAgQIAAAQIEOhBQ0DtAcgkBAgQIECBAgAABAgQIEGhbQEFvW9j5BAgQIECAAAECBAgQIEDT11AMAAAgAElEQVSgAwEFvQMklxAgQIAAAQIECBAgQIAAgbYFFPS2hZ1PgAABAgQIECBAgAABAgQ6EFDQO0ByCQECBAgQIECAAAECBAgQaFtAQW9b2PkECBAgQIAAAQIECBAgQKADAQW9AySXECBAgAABAgQIECBAgACBtgWWXL32avsmw3z+4cOHyx/8wR/Ejnj69OmyZs2a2HxNsD179kTnSw73xBNPlG984xuxEe+9996ye/fu2HyC9SbwYz/2Y70d0PK7t2/fXt7znve0fJeFH/9Hf/RH5YYbMv9O/s4775S777574cO1/M7Z2dmyY8eOlu+y8OO/+c1vliNHjiz8gJbf2WRbsWJFy3dZ+PFnz54t99xzz8IPaPmdJ0+eLGvXrm35Lgs//n3ve1959NFHF35Ay+/ctWtXeeONN1q+y8KP/+mf/uno7y8Ln8w7B0Vg2aAETc75wgsvxMbbuHFj+du//dvYfMm/YMWizQuW/Pw1Bd1reAUuXLhQDh48GDvg5z73uTI2Nhab71d/9VfL3NxcZL6RkZHyL//yL5HZmlDNXr/whS/E5ms+F5/4xCdi801OTpZ//ud/js23adOmkvyzbcuWLdH5Hn/88djdfi9Y8n6bgu5FYDEFMv90v5gi7k2AAAECBAgQIECAAAECBBZBQEFfBHS3JECAAAECBAgQIECAAAEC8wUU9PkiviZAgAABAgQIECBAgAABAosgoKAvArpbEiBAgAABAgQIECBAgACB+QIK+nwRXxMgQIAAAQIECBAgQIAAgUUQUNAXAd0tCRAgQIAAAQIECBAgQIDAfAEFfb6IrwkQIECAAAECBAgQIECAwCIIKOiLgO6WBAgQIECAAAECBAgQIEBgvoCCPl/E1wQIECBAgAABAgQIECBAYBEEFPRFQHdLAgQIECBAgAABAgQIECAwX0BBny/iawIECBAgQIAAAQIECBAgsAgCCvoioLslAQIECBAgQIAAAQIECBCYL6CgzxfxNQECBAgQIECAAAECBAgQWAQBBX0R0N2SAAECBAgQIECAAAECBAjMF1DQ54v4mgABAgQIECBAgAABAgQILIKAgr4I6G5JgAABAgQIECBAgAABAgTmCyjo80V8TYAAAQIECBAgQIAAAQIEFkFAQV8EdLckQIAAAQIECBAgQIAAAQLzBRT0+SK+JkCAAAECBAgQIECAAAECiyCgoC8CulsSIECAAAECBAgQIECAAIH5Agr6fBFfEyBAgAABAgQIECBAgACBRRBQ0BcB3S0JECBAgAABAgQIECBAgMB8AQV9voivCRAgQIAAAQIECBAgQIDAIggo6IuA7pYECBAgQIAAAQIECBAgQGC+gII+X8TXBAgQIECAAAECBAgQIEBgEQQU9EVAd0sCBAgQIECAAAECBAgQIDBfQEGfL+JrAgQIECBAgAABAgQIECCwCAIK+iKguyUBAgQIECBAgAABAgQIEJgvoKDPF/E1AQIECBAgQIAAAQIECBBYBAEFfRHQ3ZIAAQIECBAgQIAAAQIECMwXUNDni/iaAAECBAgQIECAAAECBAgsgoCCvgjobkmAAAECBAgQIECAAAECBOYLKOjzRXxNgAABAgQIECBAgAABAgQWQUBBXwR0tyRAgAABAgQIECBAgAABAvMFFPT5Ir4mQIAAAQIECBAgQIAAAQKLIKCgLwK6WxIgQIAAAQIECBAgQIAAgfkCCvp8EV8TIECAAAECBAgQIECAAIFFEFDQFwHdLQkQIECAAAECBAgQIECAwHyBJVevveb/j0lfnzx5svzyL/9yUqT/k+W///u/y7Jly2LznT59uqxZsyY239zcXLnrrrti8124cKHcfPPNsflWr15dfvEXfzE2XxNs27ZtsfkefPDBcvbs2dh8H//4x6P97rnnnli7JtinP/3p8sEPfjA24/79+2OznT9/vvze7/1ebL6333673HHHHbH5/uu//qvcdNNNsfma/Tafj9TXc889V15++eXUeGX58uXlsccei83XBEv+2Zv8va+x++QnP/mdHae+HnnkkbJ169bUeGX79u2x2ZpgzfeXtWvXRmcsTUFPfp04caL5A0Lsf+vXr4/N1rht3LgxOt+HPvSh6HybN2+Ozvfoo48mf3zjs01NTUXvd9++fdGGExMT0X7Hjh2L9ksONzs7G73b0dHR6Hzj4+PR+a6Vt+TH7+qePXui/Xbv3h3tJ1xvAg888ED083fgwIHeBmz53Rs2bIj2a7pl+ss/cc/++4l0BAgQIECAAAECBAgQIFCJgIJeyaKNSYAAAQIECBAgQIAAAQLZAgp69n6kI0CAAAECBAgQIECAAIFKBBT0ShZtTAIECBAgQIAAAQIECBDIFlDQs/cjHQECBAgQIECAAAECBAhUIqCgV7JoYxIgQIAAAQIECBAgQIBAtoCCnr0f6QgQIECAAAECBAgQIECgEgEFvZJFG5MAAQIECBAgQIAAAQIEsgUU9Oz9SEeAAAECBAgQIECAAAEClQgo6JUs2pgECBAgQIAAAQIECBAgkC2goGfvRzoCBAgQIECAAAECBAgQqERAQa9k0cYkQIAAAQIECBAgQIAAgWwBBT17P9IRIECAAAECBAgQIECAQCUCCnolizYmAQIECBAgQIAAAQIECGQLKOjZ+5GOAAECBAgQIECAAAECBCoRUNArWbQxCRAgQIAAAQIECBAgQCBbQEHP3o90BAgQIECAAAECBAgQIFCJgIJeyaKNSYAAAQIECBAgQIAAAQLZAgp69n6kI0CAAAECBAgQIECAAIFKBBT0ShZtTAIECBAgQIAAAQIECBDIFlDQs/cjHQECBAgQIECAAAECBAhUIqCgV7JoYxIgQIAAAQIECBAgQIBAtoCCnr0f6QgQIECAAAECBAgQIECgEgEFvZJFG5MAAQIECBAgQIAAAQIEsgUU9Oz9SEeAAAECBAgQIECAAAEClQgo6JUs2pgECBAgQIAAAQIECBAgkC2goGfvRzoCBAgQIECAAAECBAgQqERAQa9k0cYkQIAAAQIECBAgQIAAgWwBBT17P9IRIECAAAECBAgQIECAQCUCCnolizYmAQIECBAgQIAAAQIECGQLKOjZ+5GOAAECBAgQIECAAAECBCoRUNArWbQxCRAgQIAAAQIECBAgQCBbQEHP3o90BAgQIECAAAECBAgQIFCJgIJeyaKNSYAAAQIECBAgQIAAAQLZAgp69n6kI0CAAAECBAgQIECAAIFKBBT0ShZtTAIECBAgQIAAAQIECBDIFlDQs/cjHQECBAgQIECAAAECBAhUIqCgV7JoYxIgQIAAAQIECBAgQIBAtsCyixcvlk2bNsWmnJubK+Pj47H5Gr/p6enYfJ///OfLW2+9FZvvnXfeifY7evRoefLJJ2P9/uzP/qxMTk7G5lu5cmWZmZmJzfexj30s+vmLhftusOb581q4QPJn9/Lly9E/ey9duhT92f2bv/mb8tnPfnbhD0fL7zx//nzLd+jt+Ob3vuTfrXqbrv13P/bYY+VLX/pS+zda4B1+4Ad+oLz55psLfHf7b9uxY0d55JFH2r/RkN6h6UbJ3e306dNl7dq10frLmnQHDx6MDblmzZrSQKa+NmzYUCYmJlLjlXPnzpVPfvKTsfmab4LJfsnZmqXecccd0Z/fLVu2ROf7+Mc/Hv38xX5wvxss/fOR7tf8AbD5I3Tia2RkJDZb4zU2Nhb/2f3EJz6RuNrvZNq2bVtstiaY7y29ryf5d/vNmzdH/27wm7/5m57BHh7B5cuXl8OHD/dwQrtvbbpl+ss/cU/fkHwECBAgQIAAAQIECBAgUIWAgl7Fmg1JgAABAgQIECBAgAABAukCCnr6huQjQIAAAQIECBAgQIAAgSoEFPQq1mxIAgQIECBAgAABAgQIEEgXUNDTNyQfAQIECBAgQIAAAQIECFQhoKBXsWZDEiBAgAABAgQIECBAgEC6gIKeviH5CBAgQIAAAQIECBAgQKAKAQW9ijUbkgABAgQIECBAgAABAgTSBRT09A3JR4AAAQIECBAgQIAAAQJVCCjoVazZkAQIECBAgAABAgQIECCQLqCgp29IPgIECBAgQIAAAQIECBCoQkBBr2LNhiRAgAABAgQIECBAgACBdAEFPX1D8hEgQIAAAQIECBAgQIBAFQIKehVrNiQBAgQIECBAgAABAgQIpAso6Okbko8AAQIECBAgQIAAAQIEqhBQ0KtYsyEJECBAgAABAgQIECBAIF1AQU/fkHwECBAgQIAAAQIECBAgUIWAgl7Fmg1JgAABAgQIECBAgAABAukCCnr6huQjQIAAAQIECBAgQIAAgSoEFPQq1mxIAgQIECBAgAABAgQIEEgXUNDTNyQfAQIECBAgQIAAAQIECFQhoKBXsWZDEiBAgAABAgQIECBAgEC6gIKeviH5CBAgQIAAAQIECBAgQKAKAQW9ijUbkgABAgQIECBAgAABAgTSBRT09A3JR4AAAQIECBAgQIAAAQJVCCjoVazZkAQIECBAgAABAgQIECCQLqCgp29IPgIECBAgQIAAAQIECBCoQkBBr2LNhiRAgAABAgQIECBAgACBdAEFPX1D8hEgQIAAAQIECBAgQIBAFQIKehVrNiQBAgQIECBAgAABAgQIpAso6Okbko8AAQIECBAgQIAAAQIEqhBQ0KtYsyEJECBAgAABAgQIECBAIF1AQU/fkHwECBAgQIAAAQIECBAgUIWAgl7Fmg1JgAABAgQIECBAgAABAukCCnr6huQjQIAAAQIECBAgQIAAgSoEFPQq1mxIAgQIECBAgAABAgQIEEgXUNDTNyQfAQIECBAgQIAAAQIECFQhoKBXsWZDEiBAgAABAgQIECBAgEC6wLIm4LFjx2Jznj59uqxZsyY234svvljWrVsXm++uu+6K3m8s3IAE+6Vf+qXS/Jf6evjhh8vo6GhqvPKpT32q/PZv/3Zsvttvv71861vfis03MjJS5ubmYvP9wz/8QxkbG4vN1/z8SH2dO3eufOQjH0mNVy5fvhybrQl22223Rf/s/drXvhb9u8udd95ZTpw4Ebvjj370o+Xpp5+Ozfftb387+mfvvffeWz772c/G+qUHu++++8p//Md/xMb80z/90/L+978/Nt8gBFu2fPny6F9gkn+5ahbc/BJz/Pjx2F2/973vjd5vLNyABEv/fDR/XDt16lSs5rvf/e7oz29T0JO/v4yPj0fni33wvhss+fPbFMzkz26yXbPe9HyrV6+O/uw2BT35e1/695Yf/MEfjP78Nj970z8j6TtO/nw0v/vZb29PkH/i3pufdxMgQIAAAQIECBAgQIAAgb4IKOh9YXQIAQIECBAgQIAAAQIECBDoTUBB783PuwkQIECAAAECBAgQIECAQF8EFPS+MDqEAAECBAgQIECAAAECBAj0JqCg9+bn3QQIECBAgAABAgQIECBAoC8CCnpfGB1CgAABAgQIECBAgAABAgR6E1DQe/PzbgIECBAgQIAAAQIECBAg0BcBBb0vjA4hQIAAAQIECBAgQIAAAQK9CSjovfl5NwECBAgQIECAAAECBAgQ6IuAgt4XRocQIECAAAECBAgQIECAAIHeBBT03vy8mwABAgQIECBAgAABAgQI9EVAQe8Lo0MIECBAgAABAgQIECBAgEBvAgp6b37eTYAAAQIECBAgQIAAAQIE+iKgoPeF0SEECBAgQIAAAQIECBAgQKA3AQW9Nz/vJkCAAAECBAgQIECAAAECfRFQ0PvC6BACBAgQIECAAAECBAgQINCbgILem593EyBAgAABAgQIECBAgACBvggo6H1hdAgBAgQIECBAgAABAgQIEOhNQEHvzc+7CRAgQIAAAQIECBAgQIBAXwQU9L4wOoQAAQIECBAgQIAAAQIECPQmoKD35ufdBAgQIECAAAECBAgQIECgLwIKel8YHUKAAAECBAgQIECAAAECBHoTUNB78/NuAgQIECBAgAABAgQIECDQFwEFvS+MDiFAgAABAgQIECBAgAABAr0JKOi9+Xk3AQIECBAgQIAAAQIECBDoi4CC3hdGhxAgQIAAAQIECBAgQIAAgd4EFPTe/LybAAECBAgQIECAAAECBAj0RUBB7wujQwgQIECAAAECBAgQIECAQG8CCnpvft5NgAABAgQIECBAgAABAgT6IqCg94XRIQQIECBAgAABAgQIECBAoDcBBb03P+8mQIAAAQIECBAgQIAAAQJ9EVDQ+8LoEAIECBAgQIAAAQIECBAg0JuAgt6bn3cTIECAAAECBAgQIECAAIG+CCjofWF0CAECBAgQIECAAAECBAgQ6E1AQe/Nz7sJECBAgAABAgQIECBAgEBfBBT0vjA6hAABAgQIECBAgAABAgQI9CagoPfm590ECBAgQIAAAQIECBAgQKAvAgp6XxgdQoAAAQIECBAgQIAAAQIEehNY1tvbvfvChQtlZGQkFuLs2bNlxYoVsfl+6qd+quzduzc2X3qwJ554ovz+7/9+bMyJiYnoz8elS5ei8/3Wb/1W+chHPhK737m5uWi/WLjvBkv+3txEnJ2djSV89dVXo3+2jY+Pl+np6Vi/ixcvRn9277jjjujn74//+I+jn7/Jycno/X7uc58rDz/8cOzn48///M/Ljh07YvNduXIler8/93M/V06ePBnrd8stt5Tz58/H5nv99deLgt7jem6++ebS/JKa+rrhhhui86W6DVKu5Odv6dKl0c/fjTfeGJ2v+SGS/AfA5GyD8hlO/fw2u03e77ve9a7oz27687d8+fJovyZf8vOX/rMj/Xe/9Hzpn9/0362WLFkS/f2l+d0q9Wfv9549/8Q9/VMoHwECBAgQIECAAAECBAhUIaCgV7FmQxIgQIAAAQIECBAgQIBAuoCCnr4h+QgQIECAAAECBAgQIECgCgEFvYo1G5IAAQIECBAgQIAAAQIE0gUU9PQNyUeAAAECBAgQIECAAAECVQgo6FWs2ZAECBAgQIAAAQIECBAgkC6goKdvSD4CBAgQIECAAAECBAgQqEJAQa9izYYkQIAAAQIECBAgQIAAgXQBBT19Q/IRIECAAAECBAgQIECAQBUCCnoVazYkAQIECBAgQIAAAQIECKQLKOjpG5KPAAECBAgQIECAAAECBKoQUNCrWLMhCRAgQIAAAQIECBAgQCBdQEFP35B8BAgQIECAAAECBAgQIFCFgIJexZoNSYAAAQIECBAgQIAAAQLpAgp6+obkI0CAAAECBAgQIECAAIEqBBT0KtZsSAIECBAgQIAAAQIECBBIF1DQ0zckHwECBAgQIECAAAECBAhUIaCgV7FmQxIgQIAAAQIECBAgQIBAuoCCnr4h+QgQIECAAAECBAgQIECgCgEFvYo1G5IAAQIECBAgQIAAAQIE0gUU9PQNyUeAAAECBAgQIECAAAECVQgo6FWs2ZAECBAgQIAAAQIECBAgkC6goKdvSD4CBAgQIECAAAECBAgQqEJAQa9izYYkQIAAAQIECBAgQIAAgXQBBT19Q/IRIECAAAECBAgQIECAQBUCCnoVazYkAQIECBAgQIAAAQIECKQLKOjpG5KPAAECBAgQIECAAAECBKoQUNCrWLMhCRAgQIAAAQIECBAgQCBdQEFP35B8BAgQIECAAAECBAgQIFCFgIJexZoNSYAAAQIECBAgQIAAAQLpAgp6+obkI0CAAAECBAgQIECAAIEqBBT0KtZsSAIECBAgQIAAAQIECBBIF1DQ0zckHwECBAgQIECAAAECBAhUIaCgV7FmQxIgQIAAAQIECBAgQIBAuoCCnr4h+QgQIECAAAECBAgQIECgCgEFvYo1G5IAAQIECBAgQIAAAQIE0gUU9PQNyUeAAAECBAgQIECAAAECVQgsq2LKloccGRlp+Q4LP/6dd94pyfmuXLmy8OGuwzvn5uauw10WfotLly7F7zf5+Uv/fFy8eLEkP4NNtuT9pudrPvnpfgv/7tTuO996661ou3an78/pyc9efyZs75S33347+vlL/9mWnm9mZib6Z2/zu3P65zc539WrV6P9mt/9FPQev39v2LChzM7O9nhKe2//yle+Uu677772btDjyUuXLu3xhHbf/vzzz5ddu3a1e5MeTn/00Uejn79f//VfL//4j//Yw4TtvvXXfu3XytTUVLs36eH07du3l/vvv7+HE9p96/j4eDl69Gi7N+nh9NHR0XLq1KkeTmj3rc0vMKl/gGmyrVixol2AHk4fGxuL/t7Xw2jX5a3btm3j14P0TTfdFPvZbcZqfu/72te+1sOE7b61+b0q+XeDz3zmM+VXfuVX2kXo4fQDBw6UrVu39nBC3W+98847oz+/y5cvL/6Je93PqOkJECBAgAABAgQIECBAIERAQQ9ZhBgECBAgQIAAAQIECBAgULeAgl73/k1PgAABAgQIECBAgAABAiECCnrIIsQgQIAAAQIECBAgQIAAgboFFPS69296AgQIECBAgAABAgQIEAgRUNBDFiEGAQIECBAgQIAAAQIECNQtoKDXvX/TEyBAgAABAgQIECBAgECIgIIesggxCBAgQIAAAQIECBAgQKBuAQW97v2bngABAgQIECBAgAABAgRCBBT0kEWIQYAAAQIECBAgQIAAAQJ1Cyjode/f9AQIECBAgAABAgQIECAQIqCghyxCDAIECBAgQIAAAQIECBCoW0BBr3v/pidAgAABAgQIECBAgACBEAEFPWQRYhAgQIAAAQIECBAgQIBA3QIKet37Nz0BAgQIECBAgAABAgQIhAgo6CGLEIMAAQIECBAgQIAAAQIE6hZQ0Ovev+kJECBAgAABAgQIECBAIERAQQ9ZhBgECBAgQIAAAQIECBAgULeAgl73/k1PgAABAgQIECBAgAABAiECCnrIIsQgQIAAAQIECBAgQIAAgboFFPS69296AgQIECBAgAABAgQIEAgRUNBDFiEGAQIECBAgQIAAAQIECNQtoKDXvX/TEyBAgAABAgQIECBAgECIgIIesggxCBAgQIAAAQIECBAgQKBuAQW97v2bngABAgQIECBAgAABAgRCBBT0kEWIQYAAAQIECBAgQIAAAQJ1Cyjode/f9AQIECBAgAABAgQIECAQIqCghyxCDAIECBAgQIAAAQIECBCoW0BBr3v/pidAgAABAgQIECBAgACBEAEFPWQRYhAgQIAAAQIECBAgQIBA3QIKet37Nz0BAgQIECBAgAABAgQIhAgo6CGLEIMAAQIECBAgQIAAAQIE6hZQ0Ovev+kJECBAgAABAgQIECBAIERAQQ9ZhBgECBAgQIAAAQIECBAgULeAgl73/k1PgAABAgQIECBAgAABAiECCnrIIsQgQIAAAQIECBAgQIAAgboFFPS69296AgQIECBAgAABAgQIEAgRUNBDFiEGAQIECBAgQIAAAQIECNQtsCx9/JMnT5YrV67Exjx16lQZHR2NzXfmzJkyNjYWmy892Llz56L3e+LEiXL8+PFYxpmZGc9fj9tJ/vxeunQp+vPR/OxI9rt8+XJZtWpVj09Ie2+/7bbb2jvcyQQGXCD5e8u3v/3t6N8N3nzzzejvzc2jmbzf5nf75N/90v2WLl0avd/GL76gNyHXrVsX+218/fr15aWXXorNt3Xr1nLs2LHYfOnBbr311tL8ESb19corr0R/Pp5++uny3HPPpfLF59q3b190xsnJyfKf//mfsRmb733Jv2StWLGizM3NRfqNjIyU2dnZyGxCEVhsgd27d5fmv9TXY489Fv27wTPPPFP+4i/+IpUvPtd9991XpqamYnMeOnQo+mfvIPQi/8Q99vEWjAABAgQIECBAgAABAgRqElDQa9q2WQkQIECAAAECBAgQIEAgVkBBj12NYAQIECBAgAABAgQIECBQk4CCXtO2zUqAAAECBAgQIECAAAECsQIKeuxqBCNAgAABAgQIECBAgACBmgQU9Jq2bVYCBAgQIECAAAECBAgQiBVQ0GNXIxgBAgQIECBAgAABAgQI1CSgoNe0bbMSIECAAAECBAgQIECAQKyAgh67GsEIECBAgAABAgQIECBAoCYBBb2mbZuVAAECBAgQIECAAAECBGIFFPTY1QhGgAABAgQIECBAgAABAjUJKOg1bdusBAgQIECAAAECBAgQIBAroKDHrkYwAgQIECBAgAABAgQIEKhJQEGvadtmJUCAAAECBAgQIECAAIFYAQU9djWCESBAgAABAgQIECBAgEBNAgp6Tds2KwECBAgQIECAAAECBAjECijosasRjAABAgQIECBAgAABAgRqElDQa9q2WQkQIECAAAECBAgQIEAgVkBBj12NYAQIECBAgAABAgQIECBQk4CCXtO2zUqAAAECBAgQIECAAAECsQIKeuxqBCNAgAABAgQIECBAgACBmgQU9Jq2bVYCBAgQIECAAAECBAgQiBVQ0GNXIxgBAgQIECBAgAABAgQI1CSgoNe0bbMSIECAAAECBAgQIECAQKyAgh67GsEIECBAgAABAgQIECBAoCYBBb2mbZuVAAECBAgQIECAAAECBGIFFPTY1QhGgAABAgQIECBAgAABAjUJKOg1bdusBAgQIECAAAECBAgQIBAroKDHrkYwAgQIECBAgAABAgQIEKhJQEGvadtmJUCAAAECBAgQIECAAIFYAQU9djWCESBAgAABAgQIECBAgEBNAgp6Tds2KwECBAgQIECAAAECBAjECijosasRjAABAgQIECBAgAABAgRqElDQa9q2WQkQIECAAAECBAgQIEAgVkBBj12NYAQIECBAgAABAgQIECBQk4CCXtO2zUqAAAECBAgQIECAAAECsQIKeuxqBCNAgAABAgQIECBAgACBmgQU9Jq2bVYCBAgQIECAAAECBAgQiBVYdvHixXLkyJHYgGfOnCkTExOx+c6dO1fGx8dj850+fbocPHgwNt/Ro0ej/V599dXo569ZbCrER3MAACAASURBVPLn48SJE56/Hj596Z+Pubm56Ofv3//938vZs2d72EC7b12/fn254QZ/J29XeXFOT/65+z2R5J8d/Hp/bpP32/t07Z6Q/vzNzMxE/+xtdzuVnH7hwoWr10aN/W/t2rVXk1+HDh2KtWv2unHjxuh8H/rQh6Lz7dy5M/nxi8+2e/fu6P1u2rQpOt/k5GR0vunp6ehncGxsLNpvdnY22k+4hQs0n43k3622bdu28OGuwzv37NkT7df8bPMaXoEHHngg+vk7cODA8OKb7DsC/nRfyR9ijEmAAAECBAgQIECAAAEC2QIKevZ+pCNAgAABAgQIECBAgACBSgQU9EoWbUwCBAgQIECAAAECBAgQyBZQ0LP3Ix0BAgQIECBAgAABAgQIVCKgoFeyaGMSIECAAAECBAgQIECAQLaAgp69H+kIECBAgAABAgQIECBAoBIBBb2SRRuTAAECBAgQIECAAAECBLIFFPTs/UhHgAABAgQIECBAgAABApUIKOiVLNqYBAgQIECAAAECBAgQIJAtoKBn70c6AgQIECBAgAABAgQIEKhEQEGvZNHGJECAAAECBAgQIECAAIFsAQU9ez/SESBAgAABAgQIECBAgEAlAgp6JYs2JgECBAgQIECAAAECBAhkCyjo2fuRjgABAgQIECBAgAABAgQqEVDQK1m0MQkQIECAAAECBAgQIEAgW0BBz96PdAQIECBAgAABAgQIECBQiYCCXsmijUmAAAECBAgQIECAAAEC2QIKevZ+pCNAgAABAgQIECBAgACBSgQU9EoWbUwCBAgQIECAAAECBAgQyBZQ0LP3Ix0BAgQIECBAgAABAgQIVCKgoFeyaGMSIECAAAECBAgQIECAQLaAgp69H+kIECBAgAABAgQIECBAoBIBBb2SRRuTAAECBAgQIECAAAECBLIFFPTs/UhHgAABAgQIECBAgAABApUIKOiVLNqYBAgQIECAAAECBAgQIJAtoKBn70c6AgQIECBAgAABAgQIEKhEQEGvZNHGJECAAAECBAgQIECAAIFsAQU9ez/SESBAgAABAgQIECBAgEAlAgp6JYs2JgECBAgQIECAAAECBAhkCyjo2fuRjgABAgQIECBAgAABAgQqEVDQK1m0MQkQIECAAAECBAgQIEAgW0BBz96PdAQIECBAgAABAgQIECBQiYCCXsmijUmAAAECBAgQIECAAAEC2QIKevZ+pCNAgAABAgQIECBAgACBSgQU9EoWbUwCBAgQIECAAAECBAgQyBZQ0LP3Ix0BAgQIECBAgAABAgQIVCKgoFeyaGMSIECAAAECBAgQIECAQLaAgp69H+kIECBAgAABAgQIECBAoBKBZc2c27Ztq2Tc/o/50ksvlcnJyf4f3KcTZ2Zmovebnq9Pa2jtmP3797d2dj8OPn78ePTzd+LEiejP7/nz56P9+vGMtHnG7bffXpr/Ul9//dd/XW655ZbIeBcvXizLly+PzNaEOnPmTFm9enVsvpdffjn6s/vaa6+V5J8fX/ziF6O/N3/961+P9pueno72S8/34osvRvvt3bu3XLlyJfb73yuvvFLuvvvu2Hwf+MAHytq1a2PzfSfYVa+eBA4dOnS1YUz9b+vWrT3N583ZAo8//njss9d8Jp5++ulowKmpqWi/ffv2RfulhxsbG4ve78jISGy+5GzN95bR0dFYuybfxMRE9Mej+d6S+ntLk2vTpk3R+bZs2SJfD7/7bt68Odov/fnbuHFjtN/69euj8137f85Ef39uwvkn7td+EngRIECAAAECBAgQIECAAIHFFlDQF3sD7k+AAAECBAgQIECAAAECBK4JKOgeAwIECBAgQIAAAQIECBAgECCgoAcsQQQCBAgQIECAAAECBAgQIKCgewYIECBAgAABAgQIECBAgECAgIIesAQRCBAgQIAAAQIECBAgQICAgu4ZIECAAAECBAgQIECAAAECAQIKesASRCBAgAABAgQIECBAgAABAgq6Z4AAAQIECBAgQIAAAQIECAQIKOgBSxCBAAECBAgQIECAAAECBAgo6J4BAgQIECBAgAABAgQIECAQIKCgByxBBAIECBAgQIAAAQIECBAgoKB7BggQIECAAAECBAgQIECAQICAgh6wBBEIECBAgAABAgQIECBAgICC7hkgQIAAAQIECBAgQIAAAQIBAgp6wBJEIECAAAECBAgQIECAAAECCrpngAABAgQIECBAgAABAgQIBAgo6AFLEIEAAQIECBAgQIAAAQIECCjongECBAgQIECAAAECBAgQIBAgoKAHLEEEAgQIECBAgAABAgQIECCgoHsGCBAgQIAAAQIECBAgQIBAgICCHrAEEQgQIECAAAECBAgQIECAgILuGSBAgAABAgQIECBAgAABAgECCnrAEkQgQIAAAQIECBAgQIAAAQIKumeAAAECBAgQIECAAAECBAgECCjoAUsQgQABAgQIECBAgAABAgQIKOieAQIECBAgQIAAAQIECBAgECCgoAcsQQQCBAgQIECAAAECBAgQIKCgewYIECBAgAABAgQIECBAgECAgIIesAQRCBAgQIAAAQIECBAgQICAgu4ZIECAAAECBAgQIECAAAECAQIKesASRCBAgAABAgQIECBAgAABAgq6Z4AAAQIECBAgQIAAAQIECAQIKOgBSxCBAAECBAgQIECAAAECBAgo6J4BAgQIECBAgAABAgQIECAQIKCgByxBBAIECBAgQIAAAQIECBAgoKB7BggQIECAAAECBAgQIECAQICAgh6wBBEIECBAgAABAgQIECBAgMAyBL0LTE1N9X6IEwgsUMDzt0C4a2/75je/WTZt2rTwA1p+53PPPVfOnj3b8l0Wfvz4+HiZmJhY+AEtv/POO+8szX+pr8uXL5dlyzJ/DCdna/Y5MzNT3v3ud6euNj7X9PR09Pe+5vte8s+2kydPytfDU37w4MHo5+/111+P3u/hw4ej/V577bXofM8//3z5kR/5kR6e4Hbf+rGPfawsuXrt1e5tnE6AAIFMgQcffLC88MILmeGupZqcnCzNL9KpryZbckFft25dOX78eCpfGRkZKXNzc5H5krM1YKOjo+XUqVORdk2o5nOR/Nndv39/2b59e6xfU8737NkTm0+w3gR27dpVnn322d4OafHde/fuLTt27GjxDr0dfd9995WvfOUrvR3S4rvXr19fXnrppRbv0NvRa9asKadPn+7tkBbffeHCheKfuLcI7GgCBAgQIECAAAECBAgQINCpgILeqZTrCBAgQIAAAQIECBAgQIBAiwIKeou4jiZAgAABAgQIECBAgAABAp0KKOidSrmOAAECBAgQIECAAAECBAi0KKCgt4jraAIECBAgQIAAAQIECBAg0KmAgt6plOsIECBAgAABAgQIECBAgECLAgp6i7iOJkCAAAECBAgQIECAAAECnQoo6J1KuY4AAQIECBAgQIAAAQIECLQooKC3iOtoAgQIECBAgAABAgQIECDQqYCC3qmU6wgQIECAAAECBAgQIECAQIsCCnqLuI4mQIAAAQIECBAgQIAAAQKdCijonUq5jgABAgQIECBAgAABAgQItCigoLeI62gCBAgQIECAAAECBAgQINCpgILeqZTrCBAgQIAAAQIECBAgQIBAiwIKeou4jiZAgAABAgQIECBAgAABAp0KKOidSrmOAAECBAgQIECAAAECBAi0KKCgt4jraAIECBAgQIAAAQIECBAg0KmAgt6plOsIECBAgAABAgQIECBAgECLAgp6i7iOJkCAAAECBAgQIECAAAECnQoo6J1KuY4AAQIECBAgQIAAAQIECLQooKC3iOtoAgQIECBAgAABAgQIECDQqYCC3qmU6wgQIECAAAECBAgQIECAQIsCCnqLuI4mQIAAAQIECBAgQIAAAQKdCijonUq5jgABAgQIECBAgAABAgQItCigoLeI62gCBAgQIECAAAECBAgQINCpgILeqZTrCBAgQIAAAQIECBAgQIBAiwIKeou4jiZAgAABAgQIECBAgAABAp0KKOidSrmOAAECBAgQIECAAAECBAi0KKCgt4jraAIECBAgQIAAAQIECBAg0KmAgt6plOsIECBAgAABAgQIECBAgECLAgp6i7iOJkCAAAECBAgQIECAAAECnQoo6J1KuY4AAQIECBAgQIAAAQIECLQooKC3iOtoAgQIECBAgAABAgQIECDQqYCC3qmU6wgQIECAAAECBAgQIECAQIsCCnqLuI4mQIAAAQIECBAgQIAAAQKdCijonUq5jgABAgQIECBAgAABAgQItCigoLeI62gCBAgQIECAAAECBAgQINCpgILeqZTrCBAgQIAAAQIECBAgQIBAiwJLrl57tXi+owkQIBAr8OEPfzg2WxPs+PHjZWxsLDbjunXryuTkZGy+Q4cOlZUrV8bmu3TpUrnxxhsj8124cKF84xvfiMzWhGry3XvvvbH5vvWtb5UPfvCDsfm+/OUvl5mZmdh8TbC///u/j833h3/4h7HZvhds9+7dsRnTf/YuWbKk/MzP/Eys32c+85ly6623xuYbGRkp733ve2Pz/eu//mtZvnx5bL4vfvGLpXy3oDcl3X8MPAOegb4+A833l+TX1NRUX+ft9/fRa+U3Ot/4+Hh0vmPHjiU/ftHZZmdno3d77Q9X0X7T09PRfunfW5rvzcmvp59+Onq/jz/+eDLf1Z07d0b7bdq0KTrfxo0bo/Nd++N49PO3du3aaL9rf4C+6p+4x/79RDACBAgQIECAAAECBAgQqElAQa9p22YlQIAAAQIECBAgQIAAgVgBBT12NYIRIECAAAECBAgQIECAQE0CCnpN2zYrAQIECBAgQIAAAQIECMQKKOixqxGMAAECBAgQIECAAAECBGoSUNBr2rZZCRAgQIAAAQIECBAgQCBWQEGPXY1gBAgQIECAAAECBAgQIFCTgIJe07bNSoAAAQIECBAgQIAAAQKxAgp67GoEI0CAAAECBAgQIECAAIGaBBT0mrZtVgIECBAgQIAAAQIECBCIFVDQY1cjGAECBAgQIECAAAECBAjUJKCg17RtsxIgQIAAAQIECBAgQIBArICCHrsawQgQIECAAAECBAgQIECgJgEFvaZtm5UAAQIECBAgQIAAAQIEYgUU9NjVCEaAAAECBAgQIECAAAECNQko6DVt26wECBAgQIAAAQIECBAgECugoMeuRjACBAgQIECAAAECBAgQqElAQa9p22YlQIAAAQIECBAgQIAAgVgBBT12NYIRIECAAAECBAgQIECAQE0CCnpN2zYrAQIECBAgQIAAAQIECMQKKOixqxGMAAECBAgQIECAAAECBGoSUNBr2rZZCRAgQIAAAQIECBAgQCBWQEGPXY1gBAgQIECAAAECBAgQIFCTgIJe07bNSoAAAQIECBAgQIAAAQKxAgp67GoEI0CAAAECBAgQIECAAIGaBBT0mrZtVgIECBAgQIAAAQIECBCIFVDQY1cjGAECBAgQIECAAAECBAjUJKCg17RtsxIgQIAAAQIECBAgQIBArICCHrsawQgQIECAAAECBAgQIECgJgEFvaZtm5UAAQIECBAgQIAAAQIEYgUU9NjVCEaAAAECBAgQIECAAAECNQko6DVt26wECBAgQIAAAQIECBAgECugoMeuRjACBAgQIECAAAECBAgQqElAQa9p22YlQIAAAQIECBAgQIAAgVgBBT12NYIRIECAAAECBAgQIECAQE0CCnpN2zYrAQIECBAgQIAAAQIECMQKKOixqxGMAAECBAgQIECAAAECBGoSUNBr2rZZCRAgQIAAAQIECBAgQCBWYFlssv8V7Hd/93cHIaaMBK67wKFDh8oXvvCF637fYbnh+973vvL444/HjvP5z3++bNmyJTbf7bffXn7hF34hNp9gvQkkfzZ6m6z9dx89ejT6s3v8+PHofCdPnmx/ST3ewedj4YBHjhyJfv7efvvt6N8NXnnllfLRj3504Qto+Z3PPvtsWbNmTct3WfjxP//zP19uueWWhR9wHd655Oq115IlS67DrRZ2i1WrVpVz584t7M3eRWDIBZ566qny0EMPxU557dtLbLZBCLZ9+/ayf//+2KjT09NlYmIiNp9gBBZL4ODBg2VycnKxbv9979tkaz6/qa+pqamyZ8+e1Hhy9Siwa9eu0pS41NfevXvLjh07UuPF5/rRH/3Rcvjw4dicJ06cKGvXro3N1wTzT9yj1yMcAQIECBAgQIAAAQIECNQioKDXsmlzEiBAgAABAgQIECBAgEC0gIIevR7hCBAgQIAAAQIECBAgQKAWAQW9lk2bkwABAgQIECBAgAABAgSiBRT06PUIR4AAAQIECBAgQIAAAQK1CCjotWzanAQIECBAgAABAgQIECAQLaCgR69HOAIECBAgQIAAAQIECBCoRUBBr2XT5iRAgAABAgQIECBAgACBaAEFPXo9whEgQIAAAQIECBAgQIBALQIKei2bNicBAgQIECBAgAABAgQIRAso6NHrEY4AAQIECBAgQIAAAQIEahFQ0GvZtDkJECBAgAABAgQIECBAIFpAQY9ej3AECBAgQIAAAQIECBAgUIuAgl7Lps1JgAABAgQIECBAgAABAtECCnr0eoQjQIAAAQIECBAgQIAAgVoEFPRaNm1OAgQIECBAgAABAgQIEIgWUNCj1yMcAQIECBAgQIAAAQIECNQioKDXsmlzEiBAgAABAgQIECBAgEC0gIIevR7hCBAgQIAAAQIECBAgQKAWAQW9lk2bkwABAgQIECBAgAABAgSiBRT06PUIR4AAAQIECBAgQIAAAQK1CCjotWzanAQIECBAgAABAgQIECAQLaCgR69HOAIECBAgQIAAAQIECBCoRUBBr2XT5iRAgAABAgQIECBAgACBaAEFPXo9whEgQIAAAQIECBAgQIBALQIKei2bNicBAgQIECBAgAABAgQIRAso6NHrEY4AAQIECBAgQIAAAQIEahFQ0GvZtDkJECBAgAABAgQIECBAIFpAQY9ej3AECBAgQIAAAQIECBAgUIuAgl7Lps1JgAABAgQIECBAgAABAtECCnr0eoQjQIAAAQIECBAgQIAAgVoEFPRaNm1OAgQIECBAgAABAgQIEIgWUNCj1yMcAQIECBAgQIAAAQIECNQioKDXsmlzEiBAgAABAgQIECBAgEC0gIIevR7hCBAgQIAAAQIECBAgQKAWAQW9lk2bkwABAgQIECBAgAABAgSiBRT06PUIR4AAAQIECBAgQIAAAQK1CCjotWzanAQIECBAgAABAgQIECAQLbDk6rXXkiVLYkOuWrWqnDt3LjZfE2zXrl3R+YTrTeCZZ57p7YAW3/3UU0+Vhx56qMU79Hb0tW8vvR1Q+bu3bNkSLXDTTTeV9evXx2acmZkpK1eujM136dKlcuONN0bmu3z5clm2bFlktu+FSv7e/MILL5Q/+ZM/ifV79dVXy1133RWb78yZM+Unf/InY/MdOXKkfOADH5BvgQL79+8vo6OjC3x3+2974403yo//+I+3f6MF3uFnf/Zny9atWxf47vbflv67y+rVq0vzX+rrU5/6VClNQb8WMPa/awW9iRj9SvaTrbdne+fOndHP3pNPPhn72W2ePa/eBLZt2xa93/Hx8eh8134BjM43MjISmy85W/O9ZWxsrLcPV8vvnp6ejt1t4zc5ORmdb9OmTdH5rhUQ+XroDps3b472S3/+Dhw40PJ3sN6O37BhQ/R+16xZE53vwoULV/0T99Q/n8hFgAABAgQIECBAgAABAlUJKOhVrduwBAgQIECAAAECBAgQIJAqoKCnbkYuAgQIECBAgAABAgQIEKhKQEGvat2GJUCAAAECBAgQIECAAIFUAQU9dTNyESBAgAABAgQIECBAgEBVAgp6Ves2LAECBAgQIECAAAECBAikCijoqZuRiwABAgQIECBAgAABAgSqElDQq1q3YQkQIECAAAECBAgQIEAgVUBBT92MXAQIECBAgAABAgQIECBQlYCCXtW6DUuAAAECBAgQIECAAAECqQIKeupm5CJAgAABAgQIECBAgACBqgQU9KrWbVgCBAgQIECAAAECBAgQSBVQ0P+nXfsJsbJswwD+RNYMQ0KCi2EURYJhQOiPGpELXWRB2wIJgzamm4IgSEREEMRF0KJFuW4ZRLiTxIRcuBCCQhciWCkpMyAZGOIE4tcrffB9u+G87zlddv8OuDvP+9737zpn5lzHSU3GXAQIECBAgAABAgQIECBQSkBBLxW3ZQkQIECAAAECBAgQIEAgVUBBT03GXAQIECBAgAABAgQIECBQSkBBLxW3ZQkQIECAAAECBAgQIEAgVUBBT03GXAQIECBAgAABAgQIECBQSkBBLxW3ZQkQIECAAAECBAgQIEAgVUBBT03GXAQIECBAgAABAgQIECBQSkBBLxW3ZQkQIECAAAECBAgQIEAgVUBBT03GXAQIECBAgAABAgQIECBQSkBBLxW3ZQkQIECAAAECBAgQIEAgVUBBT03GXAQIECBAgAABAgQIECBQSkBBLxW3ZQkQIECAAAECBAgQIEAgVUBBT03GXAQIECBAgAABAgQIECBQSkBBLxW3ZQkQIECAAAECBAgQIEAgVUBBT03GXAQIECBAgAABAgQIECBQSkBBLxW3ZQkQIECAAAECBAgQIEAgVUBBT03GXAQIECBAgAABAgQIECBQSkBBLxW3ZQkQIECAAAECBAgQIEAgVUBBT03GXAQIECBAgAABAgQIECBQSkBBLxW3ZQkQIECAAAECBAgQIEAgVUBBT03GXAQIECBAgAABAgQIECBQSkBBLxW3ZQkQIECAAAECBAgQIEAgVUBBT03GXAQIECBAgAABAgQIECBQSkBBLxW3ZQkQIECAAAECBAgQIEAgVUBBT03GXAQIECBAgAABAgQIECBQSkBBLxW3ZQkQIECAAAECBAgQIEAgVWBV6mDmIkCAwLgF3n777Xb//v1x32bk67/44ott7969I58f98Gff/65bdq0ady3Gfn6H3/8cdu4cePI58d98N13321PPfXUuG8z0vWXl5fb1NTUSGcncejWrVvtrbfemsStRrrHtWvX2ssvvzzS2UkcunHjRtu+ffskbjXSPX777bf25ZdfjnR2EodOnDgR7Xf16lXz9XghPP3009Gvvx6rTeTooUOHJnKfUW/SfTZI/uzS/f5V0EdN1zkCBP4VAskfAr/55pv22muv/Suc/4klPvroo3b9+vV/4tYruueZM2fazMzMip7rSf8v0OX63nvvxbIsLCy0y5cvx863devWdv78+dj59uzZ03bv3h073+LiYvvggw9i59u5c2f77rvvYufbsWNHO3fuXOx83eeC5NdfLNzfg6Xbffjhh637kjL10X057k/cU9MxFwECBAgQIECAAAECBAiUElDQS8VtWQIECBAgQIAAAQIECBBIFVDQU5MxFwECBAgQIECAAAECBAiUElDQS8VtWQIECBAgQIAAAQIECBBIFVDQU5MxFwECBAgQIECAAAECBAiUElDQS8VtWQIECBAgQIAAAQIECBBIFVDQU5MxFwECBAgQIECAAAECBAiUElDQS8VtWQIECBAgQIAAAQIECBBIFVDQU5MxFwECBAgQIECAAAECBAiUElDQS8VtWQIECBAgQIAAAQIECBBIFVDQU5MxFwECBAgQIECAAAECBAiUElDQS8VtWQIECBAgQIAAAQIECBBIFVDQU5MxFwECBAgQIECAAAECBAiUElDQS8VtWQIECBAgQIAAAQIECBBIFVDQU5MxFwECBAgQIECAAAECBAiUElDQS8VtWQIECBAgQIAAAQIECBBIFVDQU5MxFwECBAgQIECAAAECBAiUElDQS8VtWQIECBAgQIAAAQIECBBIFVDQU5MxFwECBAgQIECAAAECBAiUElDQS8VtWQIECBAgQIAAAQIECBBIFVDQU5MxFwECBAgQIECAAAECBAiUElDQS8VtWQIECBAgQIAAAQIECBBIFVDQU5MxFwECBAgQIECAAAECBAiUElDQS8VtWQIECBAgQIAAAQIECBBIFVDQU5MxFwECBAgQIECAAAECBAiUElDQS8VtWQIECBAgQIAAAQIECBBIFVDQU5MxFwECBAgQIECAAAECBAiUElDQS8VtWQIECBAgQIAAAQIECBBIFVDQU5MxFwECBAgQIECAAAECBAiUElDQS8VtWQIECBAgQIAAAQIECBBIFVDQU5MxFwECBAgQIECAAAECBAiUElDQS8VtWQIECBAgQIAAAQIECBBIFVDQU5MxFwECBAgQIECAAAECBAiUElDQS8VtWQIECBAgQIAAAQIECBBIFVDQU5MxFwECBAgQIECAAAECBAiUElDQS8VtWQIECBAgQIAAAQIECBBIFVDQU5MxFwECBAgQIECAAAECBAiUElDQS8VtWQIECBAgQIAAAQIECBBIFViVOpi5CBAgMG6BxcXF9sILL4z7NiNf//33328bNmwY+fy4D965c6etXr163LcZ+frdbMn5vv766+2JJ54Yeb9xHzxz5sy4b9Hr+snznT17tp06darXfuM8vLS0FP3e6H42Jz+uXLkS7Tc9Pd2S3x9HjhyJ9rt06VLbvXt37Etw165dsbN1g6V/Nvjkk0/a2rVrow0V9Oh4DEeAwDgFZmdnW/dBOvWxdevW9u2336aO1xYWFtqFCxdi55ubm2s3b96MnW9mZqbdvXs3cr5utuRH98VV8pdXa9asacePH48l7H62fP/997Hz7dmzJ3a2brD5+fn22Wefxc549OjR9sorr8TO9/XXX7fPP/88dr6DBw/GzvbfwZI/G3Tvj+TPBl988UVbt25ddMb+xD06HsMRIECAAAECBAgQIECAQBUBBb1K0vYkQIAAAQIECBAgQIAAgWgBBT06HsMRIECAAAECBAgQIECA6/dPDQAAC41JREFUQBUBBb1K0vYkQIAAAQIECBAgQIAAgWgBBT06HsMRIECAAAECBAgQIECAQBUBBb1K0vYkQIAAAQIECBAgQIAAgWgBBT06HsMRIECAAAECBAgQIECAQBUBBb1K0vYkQIAAAQIECBAgQIAAgWgBBT06HsMRIECAAAECBAgQIECAQBUBBb1K0vYkQIAAAQIECBAgQIAAgWgBBT06HsMRIECAAAECBAgQIECAQBUBBb1K0vYkQIAAAQIECBAgQIAAgWgBBT06HsMRIECAAAECBAgQIECAQBUBBb1K0vYkQIAAAQIECBAgQIAAgWgBBT06HsMRIECAAAECBAgQIECAQBUBBb1K0vYkQIAAAQIECBAgQIAAgWgBBT06HsMRIECAAAECBAgQIECAQBUBBb1K0vYkQIAAAQIECBAgQIAAgWgBBT06HsMRIECAAAECBAgQIECAQBUBBb1K0vYkQIAAAQIECBAgQIAAgWgBBT06HsMRIECAAAECBAgQIECAQBUBBb1K0vYkQIAAAQIECBAgQIAAgWgBBT06HsMRIECAAAECBAgQIECAQBUBBb1K0vYkQIAAAQIECBAgQIAAgWgBBT06HsMRIECAAAECBAgQIECAQBUBBb1K0vYkQIAAAQIECBAgQIAAgWgBBT06HsMRIECAAAECBAgQIECAQBUBBb1K0vYkQIAAAQIECBAgQIAAgWgBBT06HsMRIECAAAECBAgQIECAQBUBBb1K0vYkQIAAAQIECBAgQIAAgWgBBT06HsMRIECAAAECBAgQIECAQBUBBb1K0vYkQIAAAQIECBAgQIAAgWgBBT06HsMRIECAAAECBAgQIECAQBUBBb1K0vYkQIAAAQIECBAgQIAAgWgBBT06HsMRIECAAAECBAgQIECAQBUBBb1K0vYkQIAAAQIECBAgQIAAgWgBBT06HsMRIECAAAECBAgQIECAQBUBBb1K0vYkQIAAAQIECBAgQIAAgWiBVdHTPSLDPXjw4BGZ1JgECPyvwIEDB1r3L/XxzjvvtPn5+dTx2p07d6LnO3z4cHv22Wdj/e7du9emp6cj5+tme/755yNn64b6888/25NPPhk93w8//BA731dfffXw/Zv6uH37dupoD+fauXNnS843Gu+v4fbv3//wn8doAum/e/ft29deffXV0ZZz6qGAgu6FQIBAWYHnnnsuevfZ2dl2+vTp2BkXFhba5cuXY+frPkRv2LAhdr7kwe7evdt+/PHH2BHn5ubazZs3Y+fbsmVLS/75srS01I4dOxbrt23bttjZusGSs42G+3s4fv1SWr16dbtw4UK/i4zxdFfOZdwP2J+49/NzmgABAgQIECBAgAABAgQIDCKgoA/C6CIECBAgQIAAAQIECBAgQKCfgILez89pAgQIECBAgAABAgQIECAwiICCPgijixAgQIAAAQIECBAgQIAAgX4CCno/P6cJECBAgAABAgQIECBAgMAgAgr6IIwuQoAAAQIECBAgQIAAAQIE+gko6P38nCZAgAABAgQIECBAgAABAoMIKOiDMLoIAQIECBAgQIAAAQIECBDoJ6Cg9/NzmgABAgQIECBAgAABAgQIDCKgoA/C6CIECBAgQIAAAQIECBAgQKCfgILez89pAgQIECBAgAABAgQIECAwiICCPgijixAgQIAAAQIECBAgQIAAgX4CCno/P6cJECBAgAABAgQIECBAgMAgAgr6IIwuQoAAAQIECBAgQIAAAQIE+gko6P38nCZAgAABAgQIECBAgAABAoMIKOiDMLoIAQIECBAgQIAAAQIECBDoJ6Cg9/NzmgABAgQIECBAgAABAgQIDCKgoA/C6CIECBAgQIAAAQIECBAgQKCfgILez89pAgQIECBAgAABAgQIECAwiICCPgijixAgQIAAAQIECBAgQIAAgX4CCno/P6cJECBAgAABAgQIECBAgMAgAgr6IIwuQoAAAQIECBAgQIAAAQIE+gko6P38nCZAgAABAgQIECBAgAABAoMIKOiDMLoIAQIECBAgQIAAAQIECBDoJ6Cg9/NzmgABAgQIECBAgAABAgQIDCKgoA/C6CIECBAgQIAAAQIECBAgQKCfgILez89pAgQIECBAgAABAgQIECAwiICCPgijixAgQIAAAQIECBAgQIAAgX4CCno/P6cJECBAgAABAgQIECBAgMAgAgr6IIwuQoAAAQIECBAgQIAAAQIE+gko6P38nCZAgAABAgQIECBAgAABAoMIKOiDMLoIAQIECBAgQIAAAQIECBDoJ6Cg9/NzmgABAgQIECBAgAABAgQIDCKgoA/C6CIECBAgQIAAAQIECBAgQKCfgILez89pAgQIECBAgAABAgQIECAwiICCPgijixAgQIAAAQIECBAgQIAAgX4CCno/P6cJECBAgAABAgQIECBAgMAgAgr6IIwuQoAAAQIECBAgQIAAAQIE+gms6nd8/Kd///33tmnTpvHfyB0IPIICf/zxxyM4tZFXKnDv3r02Ozu70qdP/Hnp87300kvt8ccfn7jLSm945cqVNjMzs9KnT/x5v/7668TvudIbLi4uRr83Ll682NavX7/SdSb+vGeeeaYl53vy5MlovzfffLN9+umnE8/NDQl0AsvLy9E//954442HM6Y+7t+/H/3Z4OrVqy2+oHfh/vLLL6kZm4sAAQJjE5ienm5dEUl9LCwsRP98npubazdu3Ejli56r++Ig+cuDdevWRfstLS1Fv/Y2b97ckg3XrFkT7Rf94jPcv15gamoq+rPB/Px8++mnn2Jz6P7jI/2zgT9xj335GIwAAQIECBAgQIAAAQIEKgko6JXStisBAgQIECBAgAABAgQIxAoo6LHRGIwAAQIECBAgQIAAAQIEKgko6JXStisBAgQIECBAgAABAgQIxAoo6LHRGIwAAQIECBAgQIAAAQIEKgko6JXStisBAgQIECBAgAABAgQIxAoo6LHRGIwAAQIECBAgQIAAAQIEKgko6JXStisBAgQIECBAgAABAgQIxAoo6LHRGIwAAQIECBAgQIAAAQIEKgko6JXStisBAgQIECBAgAABAgQIxAoo6LHRGIwAAQIECBAgQIAAAQIEKgko6JXStisBAgQIECBAgAABAgQIxAoo6LHRGIwAAQIECBAgQIAAAQIEKgko6JXStisBAgQIECBAgAABAgQIxAoo6LHRGIwAAQIECBAgQIAAAQIEKgko6JXStisBAgQIECBAgAABAgQIxAoo6LHRGIwAAQIECBAgQIAAAQIEKgko6JXStisBAgQIECBAgAABAgQIxAoo6LHRGIwAAQIECBAgQIAAAQIEKgko6JXStisBAgQIECBAgAABAgQIxAoo6LHRGIwAAQIECBAgQIAAAQIEKgko6JXStisBAgQIECBAgAABAgQIxAoo6LHRGIwAAQIECBAgQIAAAQIEKgko6JXStisBAgQIECBAgAABAgQIxAoo6LHRGIwAAQIECBAgQIAAAQIEKgko6JXStisBAgQIECBAgAABAgQIxAoo6LHRGIwAAQIECBAgQIAAAQIEKgko6JXStisBAgQIECBAgAABAgQIxAoo6LHRGIwAAQIECBAgQIAAAQIEKgko6JXStisBAgQIECBAgAABAgQIxAoo6LHRGIwAAQIECBAgQIAAAQIEKgko6JXStisBAgQIECBAgAABAgQIxAoo6LHRGIwAAQIECBAgQIAAAQIEKgko6JXStisBAgQIECBAgAABAgQIxAoo6LHRGIwAAQIECBAgQIAAAQIEKgko6JXStisBAgQIECBAgAABAgQIxAoo6LHRGIwAAQIECBAgQIAAAQIEKgko6JXStisBAgQIECBAgAABAgQIxAo89uCvR+x0BiNAgEBhgeXl5ejtu/mmpqZiZ0yfr4NL9osN9hEYLP29m/7a4/cIvMiN+I8JpL8/0n/3ps/XvbD+A/o/qnMfiP41AAAAAElFTkSuQmCC;" vertex="1" parent="1">
                    <mxGeometry x="360" y="320" width="180" height="180" as="geometry"/>
                </mxCell>
            </root>
        </mxGraphModel>
    </diagram>
</mxfile>